<mxfile host="app.diagrams.net" agent="Mozilla/5.0 (Macintosh; Intel Mac OS X 10_15_7) AppleWebKit/537.36 (KHTML, like Gecko) Chrome/129.0.0.0 Safari/537.36 Edg/129.0.0.0" version="24.7.12">
  <diagram name="第 1 页" id="iJC8x9Ewez8u1t-v_Puq">
    <mxGraphModel dx="1069" dy="714" grid="1" gridSize="10" guides="1" tooltips="1" connect="1" arrows="1" fold="1" page="1" pageScale="1" pageWidth="827" pageHeight="1169" math="0" shadow="0">
      <root>
        <mxCell id="0" />
        <mxCell id="1" parent="0" />
        <mxCell id="qA_CRGKP_DHO0OBm4st0-23" value="" style="group;verticalAlign=top;" vertex="1" connectable="0" parent="1">
          <mxGeometry x="140" y="250" width="592" height="678.0517647058823" as="geometry" />
        </mxCell>
        <mxCell id="qA_CRGKP_DHO0OBm4st0-1" value="" style="rounded=0;whiteSpace=wrap;html=1;dashed=1;verticalAlign=top;fontStyle=1" vertex="1" parent="qA_CRGKP_DHO0OBm4st0-23">
          <mxGeometry y="-60" width="592" height="610" as="geometry" />
        </mxCell>
        <mxCell id="qA_CRGKP_DHO0OBm4st0-3" value="Master1" style="rounded=0;whiteSpace=wrap;html=1;verticalAlign=top;fillColor=#fff2cc;strokeColor=#d6b656;" vertex="1" parent="qA_CRGKP_DHO0OBm4st0-23">
          <mxGeometry width="296" height="120" as="geometry" />
        </mxCell>
        <mxCell id="qA_CRGKP_DHO0OBm4st0-40" value="Node1-Basic Service" style="rounded=0;whiteSpace=wrap;html=1;verticalAlign=top;fillColor=#f5f5f5;strokeColor=#666666;fontColor=#333333;" vertex="1" parent="qA_CRGKP_DHO0OBm4st0-23">
          <mxGeometry y="160" width="296" height="130" as="geometry" />
        </mxCell>
        <mxCell id="qA_CRGKP_DHO0OBm4st0-19" value="scheduler" style="rounded=0;whiteSpace=wrap;html=1;" vertex="1" parent="qA_CRGKP_DHO0OBm4st0-23">
          <mxGeometry x="16" y="31.610588235294117" width="120" height="25.294117647058822" as="geometry" />
        </mxCell>
        <mxCell id="qA_CRGKP_DHO0OBm4st0-20" value="etcd" style="rounded=0;whiteSpace=wrap;html=1;" vertex="1" parent="qA_CRGKP_DHO0OBm4st0-23">
          <mxGeometry x="156" y="31.610588235294117" width="120" height="25.294117647058822" as="geometry" />
        </mxCell>
        <mxCell id="qA_CRGKP_DHO0OBm4st0-21" value="apiserver" style="rounded=0;whiteSpace=wrap;html=1;" vertex="1" parent="qA_CRGKP_DHO0OBm4st0-23">
          <mxGeometry x="16" y="75.87823529411764" width="120" height="25.294117647058822" as="geometry" />
        </mxCell>
        <mxCell id="qA_CRGKP_DHO0OBm4st0-22" value="controller-manager" style="rounded=0;whiteSpace=wrap;html=1;" vertex="1" parent="qA_CRGKP_DHO0OBm4st0-23">
          <mxGeometry x="156" y="75.87823529411764" width="120" height="25.294117647058822" as="geometry" />
        </mxCell>
        <mxCell id="qA_CRGKP_DHO0OBm4st0-8" value="" style="shape=image;imageAspect=0;aspect=fixed;verticalLabelPosition=bottom;verticalAlign=top;image=data:image/png,iVBORw0KGgoAAAANSUhEUgAAAMgAAADICAYAAACtWK6eAAAAAXNSR0IArs4c6QAAIABJREFUeF7tnQuUFsWVx2sYHgPyHkAFNRpF4wuNiKAxBvPwfVbX5CQYIKsm8RUTdXPIanw/dmN0s0ajsmpiTIBIctS4ie+TFUyy6ojPiaIBEtGALxgE5A0zs+dfM7e5X31V3dXvqm++PoczzHR3dXV3/ep/761b1Q2ivuX2BFZ8uHFyUHivXpMbGho+o71YZ+f24/gBDQ3z1eM7OzufCv7W0TF/5LD+VcfkdkM9sOCGHnjPmd+yBKFXL9nIAwhMjT7zq3cX2A1TAFAdnkyedB2QBI8RQDQ0Nl4pTy0ahLj1bWiYT9CMHNLvqrin9/Tj64BEtAAyk7wBwqJFdwpxNQ6rAxP9sOqAaJ5RBRSuK0T0Ow4/olth6rDoH1MdkO7n0qOgMCFTh6XqyfRoQOpQhIhLHRb5cHokIIGTXevmU1rzq/v8nuyz9ChA6mCkI6YngtIjAKmDkQ4M3dmApSc49jUNyIo1m69qEKJrvKK+5fIEah2UmgSkDkYuLIQWWqug1BQgtWRKvfj8c9oGecihhxXf+mNcsdZAqQlAfASDA3DXzJ/IJvjiAj0UuvZ5yIQuUMYfOlH+/Ma558doxvkeKp35GskF8x4Qn8wpQJEEBtvmDGgADH66oDS1oCbeAuILGARFHHWwBSLquG+e+20n1MVnULwDxAdzKgsoJnxyf9m4JxxygBi9Y3PAwjvvt4kFL74qf1/w0mtRjMj9ToCCkfn29qt9m7/iFSCuq0YaMM77+lckCKec+DmrRk8HLX/nPfnfX/7692LOfY+FnksmWJn+im9q4g0gK9dumefq3IukYCSFIoyCNWvWiP+d/7S44oafhsICVSkLFJ8gcR4Ql02qNGCcd+aXYylFkoOfe/5l0bLgJXHH7Ie0p5cJCSrU2dFxtOsml9OAuGpShYEx7qBxYvq0aQI/sc2Y8T3R+kqr/D8UI2swOrZt0Tb+Xr37Bn9v37xe3H73b5wExXU1cRYQV02qn868NQjV8papgoF9AAOAYLvu++fF9i9wHgDobN8qy+ignwYoTCpDsPz3L35bhySmFDsHiDSpevWaF/M+cj/cpBrTp08T06ZPC64PKGbNnh2oBqJRP7/1Guv6ERCAwaQO1oUZDrxzzsNaUOomV/UDcwoQV00qnWqoYCxc+Lp44P77xZ/+9OfgKduqBkGxbfP6tG3f+nxnIXEsS9gZQFyEQ6caOlPqkUceE4uX/E20PPO0aGtrk4307psvF4cdenBog4VvkKdSRNHyQusicda/3VR1WOlK4hAkTgDiKhznnjm9ovHceOMNgfONHYsXLxGPPPq4PGbxokVi8aK/WsEBMIpUizBQ6pCEdyOlA+IDHDrVmDf/KdHa2jWiDdWAekQph0tg8GZhgmTm3bNKzelyIcJVKiAuwqH6G6qvgYZ1/wMPimXLlgdtjEyrMLPKVTjoJnQ+CUbeZ/5sVpSlluv+siEpDRAXw7jwObhZZQMHmVYmOOCAt2/ZkFtEKsvWqYOkbH9E3l9Dw/wRg/seneW92pZVCiAuwoEHNnHcPsFzg1kFn4NvqnKQaWWCw3XVoHvr3W8H0dDYR2C85Ac33VWV01W2qVUmJIUD4iocqmn1+BOViX8qHHhpjzz0ezH1S8eJSy76ZlWH5AMcAKKx7wAJBt8O+NQXK353wdQqC5JCAXHR56CWcO7Xpwcz+rhphYE/OOSIWPFtVdtK6Zy3PnVvVQNLAgd68aJDvv0Gj6q4J5iDTqsI8rcKDgEXBojLcKjmFQDB9kprazAirrNZr/neN8SpJx9f1ci2blhtZeICisZ+O1QcmwQuq4spB/Fr68wqtUxnVKRgSAoBxHU4VOfc1OAoARH7oSzqSDl6YBs4dGCgTGTeYgMk48ftnaTdW5/TZ8BQqRZnnH+F9cQrJ3yR7jssSklyB8R1OEzJh3gPzc3NYr/99hVTp08Te+y+e9D4rrv2OplSgkb8i5k/CP4OOKLyp6hh8paMTNvbf/brisZ91tQTxdnTTrJu8HEPhHmFdPgzL7jW+lQnIlqstkVAkisgvsIBML559lni6Mn6L6YRIHhX//fI3WLIkCGy148aHVeVA1NmAYZp6uwLj860brxxD0RdSLG4WmHQ8IW/LNYmM7pkZtH95g1JboC4mpVLD1anHADjC8ccK77whc+JXXYZU9HmMDC4fPk7Ytny5WLek/OCtBIAMmiH/lamFXeKdarBG+r4A8fmqiBRQLk6uq6rd54Tr3IDZOWazZ1RL6Gs/TqfA3BccOGFYuLECUG1AEXLcwsqRs2xk6eWAJABfTojTSvY+zCvsKlw5G1OJX3OOkhcM7Po3kYM6ZdLW86lUN9MKx0cunEPehkckEfvvUmMGtoU2QbJ9+BwuAoGvxkVEhfNLFnfnEbbMwfEdTjwLPmIOX6/+PuXBP4GVANwhG0ckDt/eJFVxAmA/O7xP4nL/uN2WbQPcNAzQEo8QKGtpbUra9m1LQ9/JFNAXPc78EJV32Ps3vuIW2+9Wb5rGzhwHE9ttwVkU2c/ceGlP5IOuU9w4H5VFXEp3KtCmrU/kikgLvsd9CD5iDn+ds211wZ+x8233GbVKSYBZMlb74uvnHOVVBtA5dvGVcRVPyQPUyszQHwwrVTziqtHS8sC8WyL3eLRfOagbSiWemFbxXENIK4izvoh9NAy9EcyAcQXONToFaJWJ5xwnHystuqBY5GkiA0DeTCXbDesT5Xn4J9tPZIc5xUgGaajpAbEB7+DGoQKCJlXcdSDO+hxAUnSMMs6B0Co6S7czHLVUefPKwt/JDUgrqav6xqWKaU9jnpwQGzNqywaedHqAxhUX8k3QLII/aYCxBfTihooB+TTnz5SXHb5ZSKOeqCcIgHB4GKvxj5yMtNtP71XjD9gT6uQchogkYKC7cwLr6sChM84dDmSVaEiKdPjUwHiQ9TKZF4lBYQiWHlHo9SkxjO+dbno6NgWOwI2/vhzrcPKPFespeV50b51UwWQ3A/xBRC8/zSj7IkB8Uk9dHlXBEjYiLmuJyZA8vQ/dOnwGD9BanrcKJgtIOo1Acjt99xfAaSvgKQZQEwEiE+OuSmd3WVAdCnxBEhc5QIg2KL8Jd01/+XcS8TZU08MVMRXQHD/SR32ZIB48v3xsLkeBEgcBx0PmhQkbk8exy9Qp8LSuTCzFry8MJaKwLmH7xA1es+vSUuhwg/Bxp11Ag5/d3rAUH3gCcdGYgPii2kVBgeeHRIUf3XvnFjjH0UBYppxSCpiowjUPgiQqHMoIMDntJBicLg4IL5BkkRFYgPig2NumkJ7y6jh4jsfrAr6limnfVW8uXSpWNXWJrAIw/DmEcG+4c3NEiJ1oyhWngqCa6orjVA9Zt7zgFQE6tltpuZSow5TEZ6MSNd6vnVR1bVUQLyCJIGKxALEB/UIg+OIpiZx6NvvxLF2BNJRxu69fX54UYCEVZIaqa0/wlVEBzbfb7ouwaUDxCdI4jrssQDxQT3UVHa8PCgH4MAWFxAyxyYefoQ8nwDJM4qF3vyObpXAzEJZ7+5FHPB33ttHOd/U4HnDVs8xzR6kc8NMLA6UL6HfOGFfa0B8UA81U1eFY1V7uzhm+ftVnSR6YkRraMOcbGz8234wtwgSJCvuPqY59piErXTZ9OhBXS3nrfMydaaWek16JqoJZ1KQwAQsecFrm2ccR0WsAXFdPXROOVcOHRymRkAPWV2rliChbN68/JCoHl3Xs9s0DJ4qYvJHSJ1Mvk1g3jX1E+P79RV3rvmo4tLOZ/p219ZWRawAcV09ouDAM7l+1Wpx37oNwcu0td9VSLiK2JZh03jVY0i9SM34fphdMLlsHHR+ngpeVOhXV+/A4R8ySJw1ZJAERIXEh/CvbUTLChDX1UP1O2YMGyy+Mmhgxfs9/b0V4tUtXR/DxGZru+NY3vMWBUgSqGzOUU2puCpIgNwxqlmMb+onL6mDxHl/xDKiFQmIb+rxpYEDxMXDu1YP4Rt3zuM62LznhZmFcDC+JpWngtg09qTHpIFEBwjqcfYHbeKFTZsrquR6SryNingNiM60emLMjmJ4Y2PFi1L9jzSAVJg6nk6fxT2ozraNkvCOgisIPRM1Qui8P2KhIqGAuK4eqmk1d+cRYq8+lUv5b+7sEPM2bBCXta1NZF7RSbroTVzQkvb4eZynCwREQcLPeX630VXV8tHUilIRbwFR1YNHrPibW7Ftq3hh8+bUgNDodQDMgWNjO8l5NPQ0ZerCyWGQUMACvgcURLepkPiuIqGAuOqc60wrXY8GOKAgcM5JQXz1G9KAEHauDhJTAMMGEFxLNbVcj2qFqYgREJfNKxUQnd+xtqNdrG3fJttGHZBwvFRITOFfW0B8M7USAeLqXHMVDl3UCqoB9eDbKe+2yV9rXUEoE9hmtXn+fDgkpmdE4W6Mf+Bf2OaVwx7irBsVxFXzSnXMdeqxbGtluBEvkgDB/+OMgeRl2uRVLp/XYfO9EqpHHEB0ESz1fmpFRbSAuGpe2agH+R3qC5u7bqOY+1HXSHpUtCavxpt3ueo8kjiA8MFQk4KYxkBM9+WTipjMLC0grppXqnqojrnOtKKX15MAsf0UHG/YPIyt60CiQrw2ES0c4+wIu8HM0gPi4Lc9VPW4bPhQccrAARXvxaQePcFRl1+GevVv4rwzvhT5pSv+0Ci1npIU0zroKii+q0gVIL6YV6p68KiVSfK5H1JrZhZMJDIfbU052+iVLHfOwzL9P2wMxHcV0ZlZVYD4YF7pIlc6xzzMD6m1aBb5EFEBCMoS5gOfNlm9cf0P/uy9URGNmVUNiAfmlRq5slEPemEYMKSs3lqChNRAneMC0wlzy0kFeMONAoOvz5sGEJ8iWqqKVADiqnnFnfOk6qFz1vE3G0jIvHDZLLOdhUir0UetMo/yaM4JnxOjy1iIMunqgEQ9oRT7o0bN46iHCRL8XZd4qDqwUeZLitvM5FQdJOgAaF57FBSoBFciWg8rqf9RC2ZWhYK4ODjIAdE5iDa+h6718bCvuh+NSl0Gx4XMXd0nCTIhi4FB5XG15NNsTUmKUfXwRkUUP8R5QLh5NXunkeITffsE7yJs3CPqhWF/GCTq+UWpB18PC+MZfOPrW5Hq2dyn7hids07Hcd+Em1c2I+im+ngDiLLYdQCIi/5HlHkVNu5h23BsIClKPfhIuC6XyrSYA81NJ1OK3zuf0w5ViFoQQvXJ0vofPppZ3FH3BhDVvEqrHvzFIar16pZtQSpKWerBAdm89gMt47bOuO5kqGDY+bqoVhbmVWC2aRZ4cHJaLjOzAkBcHP8Ii15loR42volNlMtWraKOUzNxKUSrc66TgBIGiA4Orh42GbxR9+eNmaUFxLHxD3UJ0d+OHiV27d07eAdJnfOol6jzTYr0P/AZAm5eYQAQppMpAgVQYEbp1tbVKWGc0XOen5XG/wgzs1zNzaJ1s6SCuPi9D9X/4PH3LM0rGxVJOv4RN+oEBx2AqFm4UZDQPRAkNDBY0TC719GKWhguMIe6U0vwe9z0krBOSF39xNUpueSHdAHi4Pc++DKi6gvKy7ziLzaLvC36LoeNatExgESNXuk+QxCnzCTH5qEeqIcvc9ZpeVJnAQkL7+ZpXlFjyiIlBT0/RqPjfEvd1Jij1tZNAoHpHO57ZKkeuB7WzoKK8M1FM6sCENcddD7+kbd5RS9ODf8mMbOo588qTKwuPWSbNhIXnrzUg+qhJi+6CAh9QloqiGuAqA469z+KMK/oRXIzK2k0i7JskwBW5WS3LpLLoOq2sLEQfjwcevX753x/1pErXV1VP8TJVU+6I1ldgDgWwQpz0Iswr3QqkhQQPjCXBSRJwrsVAPzwIuN6XnmaVhV1UMZDXHXUEclyHhBuAxdlXtHL5MsFSQczpHGFmTFBsl+GS5XGASXqMw/SN1DUKWvfw0dAEMlqcDHEa4pgFQ0IXir3RZKqiISLZuRlCAk17DA4bT+RUOXfWCztE9e3oeNVR91VBekCxPEQL597XqT/kbWKoDzyR9KAlrRRhp3HVzThxyWZ+2FbP9VRdzHlxFlATCHeIv0P/qKzCPlSedQYs4ps2TZI03HqB4L4cVmkl5iu6wUgQlztpIJwQCjFpAzzil4uBySNL0LlkTlTNiRhcAR1DVmoOg2caiTL1VBvg2shXjx0lwDRpcOnNZG4Q5y2rKSNVAfHgJFjxIYVy6uKzMNhV0fU64DEeJM6QIr2PwDGq5uRBl+5xi/dRtreX53OmzRCFuOxykPV69L5gGOXo04RH73/D/Hun3+XOyR1QOK+ue7jTYOERQJiM4kqC1OLO+74f1rooh65yaQiOOh8QLLi5T+KbetWVxSZpZLUAYl6W4b9JkCKcNBtweBVz6Ln51EkSmvPIn+L6mlSDexv3u8w0bzvhKq3sWXjerHsjw9qITlr8MDgA54JX3NVTlbdxLJ8kjpA8nbQo8ypHQ87RjQNGyXWvPWGWP3G81V3kkXPr/bu8E3SJDoSFGRWmR4/7m3IrmO1uwHJey89JTa9+2bV/rTzQ9SxEHcBcSzNpGhAwlRD13g+eK3FCIk0maaeaNkVdPkDsgH/ZbGcFIWftJgCL4Rgwd9wnG7wj8q6Y87Dga9hW5HeA4eKkQcfJQbtuKv2FNM9p4HEC0CEEA2u5WEVBUhcMHjLMTUYOgaKYmrI1KObkg5tG3Uex4WpyZp/LBbvP/dEZkpSByThG9QBkqWDHmZOmexx3a28u+AP4qO3/1qxa+KkSaLl2WcrHdtxe8vfYS7RplOJhI8r8WlwuKUi9esrJzHR1rTzHtIn2WHYyKqyTRGuJCPudUASv7rKcRCsw9ve2SE/xpl2M6kGojiD9tjfaIubrgsnlo8bfOfCC8V3LrxAQtLybIu45cc/jqwyb6gvbN4indckGze75JKhBpMN19M52Xzgbugnj5aA2EKSJLpVByTJW+4+h4+DZAFIGnNKdxvrP1wh/wyzY93il4JDoCBz5t4beud77b5HsN+UyoHGA1h4z84LtYmc6UK6YakjKiB0PR0oujBwXH+kDkhGgMzdeYRoEp2JSgszp+CUDtvzwFjlAgyCg07EWAGiPDRmQCpiKpgAsc1z0i2Vg7JNkTNdSFe3ptjmjkpFXry1PZgKO3DsJwUc9zBI8ByWP/mbSNhNz0G9LxeTFVF351NNbhk1XOzWGPo5d+07yEo1CAgVDPWiOlAmTpoooCp8iwsInRsGCh2D1Uz48j86cwqfxsaC3+q2pVOIL7/XNVdcBcQEyt8fnxN0DHHNLDUXy0lAGhrmOwkInw8yY9hg8amm7evxRnX5RYMRBQr2AxIChfwSUhD4Vmvb27U+Vr+GXmJwY6O8BP6PzQSK7rnozB4TIDifphjDUW/aaXfto+YmFw9U2CoiFcoBcXU+COalOw8IvgcybVD/KC5kztTcjzYac6fCQpi8cJ0ZFXlxzQGqoqiHUIOyjdCN7N0ngMQWlLiAUNZyGCBcTdYueSWI5MX1QeqAJGlV3efwOekH9O0jrmseHFmampJOJwzabR/RfMDhom//HULLyAoMnaIQLHwfARInhWaXPl2hWV0vTA1UVRgeJcM1wxTklx9tFA+s2yBsAEEdVr80L6hL3FAvnw/i5KINuDNXFUQdC3lw5+bQxq3OHaeDbVQjLzB0Fd703tIgbYNsdltAYGJBRbAhAnTn2nVBSFg1b3jvrH7PY2yfRq0PgnLjAALoKYIX1/9QI1h1QCL7/8oD4gKi8zui4CgSDLo7XaOyNbEAyNvbOiQYBAmVqzZQ3jtTzx7m61A5cQDhsMc1r3wBBIvHOTmjEC+Mj4VMGTRATBlo9kNUQMJCuGWAwfEns4QatS0gKGNwr0YxuHH7At7cnIKKyFFxpiw4B4DYXiOODwL1oNB2XPPKiwiWEBhcuNrJVU3wYnkkKwoQnYm19xe/VaVbyE5d/e5bMfUs28Op500CCNWEIlpYtemzy/XfEaFj0XhtzTiKYpnCvGGgx3lKPsxHx/14A4iNo85XQcTN6UwslwCJ27vrGiAfuzA1UIBI6vux3o2ib8iQki0g3FSsVfNKAuLqulioXFo/RJ0lRw3og78vjNPZ5XIsmVloXLv17pUoz2x9pxBTuwf2eCWnT58mf32ltVW0vtJqrP+pAweIfbq/97h3n97i9+u7IlgYQYeChG1pzCtf/A/cv7MrK9LLieOH4BxVRXRmFkwsKEmZGzezrhs+ODYgSAuZsXL7dFhAMW7cODHuoHFVtwVIZs2eHQoLPykOIHGjV7iOF6uZdD+Q7YCs3TJPdHZOLrPR6K4dxw/B+aqzrjOzynbSUU8OyI3NQ4xhV/WZwEmf0bamIuMXcEzrVg06fnjzCLFx4waxccOGiiKOPeY4+ftBx58qf+64177i/SWvi/cXvy7eW/J6cGyYD5LGvMIFfPE/nF7dnd5UWjML5agq4gIgqBeZWU+OGWUFCEyq/1q9feyDt/zHn3gs+HX0LruK/gMGiGeeflocfPDB4sNVbQEoAGSnvfYVx3z70qr+CIC0PvpAAApS3nVbluaVsykmuHG+uruLy4+ijiogGFGHwx62qWbWx46dJvoNHBKc4oKjjspQQ5uzU7PYIcRxDgODboqryJ577yNu+tGP5D9sb7/zjgQEoJz/rfPFB+u3agGhsn55QZcPY1IRqncW5pWzA4TdEayRQ/pd5ewXpuiF5WFmueCok5n1r8MGiaOa+lYxrwMDvf+440+VKoAe/4mf/HtwHqkIFOT0r31NKgi2X993nzj8iCPk/089+eRIQFDmyvfe1TrqPca8qgLkw42TG3r12p5YE9pHF7uTA4Irx007QS7WzhM+X1FpFxx1amxqCNukGDCLAAbf0JjJdyAVASAvv/yyePaZZ+ShF333u/InVGTqaaeJhtF7iYOO6/JB1I2gi1IPnFfL4V3cX8VHPPEH1xZvoJenmllRg4Y4Lyqa5ZofInv3gQPEW9vatVNudXDgHJ2KwEEf1lyduwZADtxvf2leqaDRsw5TDxzTU8wr3GvFZ6AlII5GslC3rM2srAEhNbDNgqUGyfOZTLqMiJOpx8c5rzz2gHjl0Qfk6aQi8EPULQoQKsfknKcxr3Qf7nRyghQ9tG4HHb8G7qHLgMSNZqkqMvQTh4pR+08M2kzWjjo1Hphzg/c6qGparqnx4+983gjGIPhyn1Fw8J6fTC34IjoVWblihZg04TCtgpAShQHOo1dxzSsvvknIXhJ94bYCEBe/NMUbVtxBQ3V+iBruzdJR54DA30mjUNQQbeFQTS2uIruNHi0ddDjqbyxcKE464UTxtZtnV/EaZVrhBDXJMgx6dZ869uFy9Ap11wIizSzHVlnkDzqus64OGo757JcrlrHJExDUOwkk3IzRNeSwRskddlKRc84+W0w6/HDpqJsAiXLMSeWymvuB8pw2r5j/UaEgrvshcZ11NcNXHVXPMpKlKkhSQJKoB0HDHXadL/KLu+8Wd/3qvqoxEIx7RPlOPcm8wvMkB90rQFDZuCrCo1mqH5Kkhzf14FkAwh32OOYVr5NORSiidcWll4onW16qAISONznmPVE9uHlVBYjrfkhcFVHNLO6HuAYIn99NjT4uKGEqogJiY1qlBcQ351z1P7wDRKciYeMiKiA7H/lPwQrmWUayslYQrgqUWBgW6rVREQDy2qpNQcjYxjFHuUnNK+9Cu90PkZtXVYC47odQQ+ARLfzNNLoe5Ydk5ahnAYjaGFVzzhYUk4pgwToaJKQxj6iZgzxogPrEmVrro3pQgiJ/9lVpcq6bWag8XxYIv4epSJgf4hogZNLwpUx1oESpCfkW5Kxv3dYuQ7yUxYv9UY65CmxYciKtIWxaSxhluR650plXWgXxARBUXFURU6ZvmB+SVSQrKwXhMEQtPId0kR3H7qsdZVdVBJOpZsz4ngQEKe2mZEQVRu4XqYODNlDw8lwf+0BdVfNKC4gvZpaqIiZTSwVk9xNODxaRy8pRzwMQ3riiUlJ05helrdMU3FmzZsuJUkhLiTKtSMn4yvUwr+JAoftWCsp18lNrkoSG+SMG962aBKOdieCLiqhhX52pFeaH+AIIwRIFCo4jWPgsQUzFpfnpNlNqo/whVWkC33DSJPl9FL5g9y0/vrniOymuTpJSw7t0T14DojO1dJBwP4QPGCaNZEEx+OcB8lYQtUEClG0ffVj1BVpTw+V/t1EPGxB5mQBCBYPvnzrltIovb7lobunMK6OJ5YuZhXqqYyP4mwqJyVFPAgg1HgACR5cSDGGO8LknWamTrtFTQiN+xgUFdaYN56p+jw1kYYphOl+FxCmn3WBehQLii5mFm1BNLfyNO+1hiYtJIll8bIAgSQoIb+wVjbW78fLs3jiNN89joxRDd218lg6Q0OaSL2Iyr2oGEJ2phb/R+EhYJCsJICibQ8LT1Gm0niJkspdft32JHuq1XWz4YVAlgUItj6uIS76IybwKBcQnM8tkatF0VhUQvpBD0lAvB0RtCOq8jjx786zKJsda/Uovyn/o4YfEx/bYQ66Wom44Ho44bXF8ERdUJEw9IgHxyczCzehCv4BkyqD+AmYWbRyQOL4CqUFcu9/UiHm0p/L/2yd30bnqp9x0DbVPn97i9YVd61tdefkVwSFYZXKHMXvK3zu2bJI/N65YXvGFXnx8lF+Devspp00RZ5xxupzGi4lYtBEY+GmrLqqZ5YKzngoQ31QkDBKEe2nb7fNTRNOQrnnbtoDwtAs1gqUDQG38+F6hbWNPqgqYVvvOsn/I09GgDxs/Qf5ft4DepjVt4u0/zA0upQLCw7OYX8IBwWfkSDXU86Lqzr/yW7aZFQVHpILgAN9UxAQJf3G8wdgAgq9TDRi6vffkZXW2bxNb1q8VK17+o/Q1or5yG9WA0u7/26K/BkXQSoo6QDavWyPeenz77EK13ry354CQcoSZUmH34FI0KxNAfFQR1FkX2aIXFxcQnKf7XjhvCAjtawuXAAAJJ0lEQVQZL33kHvmd9ChzKC0EYefbAoIyFt1/W1CUDmzq7eGDDB4yWGBJId3G/Zaoe58za1aF+VemHxLmnNN9Wn1f2UcVCYMkzWAhQMHWp2lAxXcPfQIEdd2weqX44OmHQgGh3v7W226VC2NzQLgPgkIIDCgLbTpY3njtNXHSiScFx5QFiI16WJlYdCcuz1cP61F1SpIGEN216AOhaHAuKcgVV1wlR7Axm3Loxw8QWzdtkP9odXseiUNjRt35Rn7IxZdcLI4+erLgywmhXHLQOSBh74J8JDL9cGxZjrqNesQCxNX1e23MFRUS9RNtScdC1GujwZ33jdNl2kVZGzexCBBTarsaql6y9M2KapMfAniuueaqCkCS3B8Bgsxiyg0rw1G3VY9YgOBgX1UEdechYHU50iwBGX/AJ6p64iSNKek5HJCf//weMffeuca5H2rOlQoI6kB+CBx1Wjk+ad0QYQMkVC+UUwYgtuoRGxCfVUSaAeO6VhysA9LVxFVAdOYhB4SHesnEanm2pYIXCmdDdVQfxAVA4qhHbECkiji8RGlUz0aAYBzj48dODQ7PSkGowel64qi6ZbWfGiHKi6sgOkDIUUcka9ROOwaDhboRd909cEhI3Z5teS6IZBWtIHHUIxEgvka0uILg/3yFk6wBKdNR54AsXrxEfhPE5IOoc851oV4TIHGB5oOYHJAinfS46pEIEJ9VhE/TrQPStS4wnzWoA4QiWb/9nwfFgP5NFflYTf3N367v378yb4t/6aoMQJLAkRgQX1WEA8LzsbJWkDJH0+MoCBoAn3dO9aYvUmE/ok1QIYyFjB27V1zh0B5P0TXsLGochL73EfcGrAYKdYX66LDnDQj1yLoxhbgvJunxHJANGzeJfz75lNAVTDggqPeN/3lDxcc/yUzLChBkBB915FHB7RUxcSqpeiRWELo738K+HBA+WJiVglCPXCYgq9pWig/b2uQr2rp1mxy1DlviR13RkX8QFGUQZBgsPPLII2Nxi+xidSvDvIrrmPM6J1YQFOKbiugASTLtNqyVUIMrK5IVFxB1sFAFZN68+eL6H1wfCwwZEJk0SVx++WWCQ0JqRIW5rh6pFcQ3h50DgjkSIw76tOjVt0lg0lRWW/D12pKSFtMCgnAutrVr14rrr78+GPEOez6AAcsLjdllF9Gnd+8KKOg8FbRColchc81t33cqBZEq4vAHQNWHoC42h/0YNGxsHm37vCKPI0DKctQ5IKgs8p7CTCybFUwwVoFt/KFdc1peeL5FvLjgOfl/TKiaNm2azPaVYK3ZPjFt6dKlYtmyZVUKVNTYR1LHPDMTiwryxdQKS4G3WYozkg42Ol2WH6IDJGwtLBUQggE9PLZDDu2Cg2+6lWRsno0sb8JhYubPZtkenvi4NI555oCgQB9G2KNeLF/KJ+mb4Q2uDD/EBpCwZYNsTR/d9GbTM+PQ6YBL+qxN52UFB8pPbWLxSvoACeobpiTYnwYUPvhWxog6H7HGvVDmLE0TjlpNxRYQXeNEB6RuRQChXjNN1EotK1NAfPJHbHrApKBQJMsFQHjmbFRPXZT5E1WPNPuz8DtyMbGoUF/8EapvHqAQIGX4IaqCqIDwdXrpGUA1AEcZvX0aGNRzszStqOxMFYQK9cXU4g8YoGC7a+ZPQt+ZjapQJMsFQCi8St8KoZubPWu2wIrv2GpCOYS4euSQfldlCVzmPkiFP+LwJ6XDHqItKOSr4Cdf7xYA8cG3oh11VUEIEHUAEDlW8E9qBZAs/Y5cTazA1PJofMQEjI35FdVjleGH8FmFPQGQrP2OQgDBRXzzR8JAsTG/dOeXMWDIAaH0jhtvvEGuTMI3vnhCEWkfUZ1Jkv15+B2FAVJLkNBDi2OC4Zwy/BAOSFvbKvHV074qogApKu08CQSmc/KGI1cfhN9UrSiJ7kUh9k9pF7RfdfSL9kNsAeGri/gGSBFwFAZILSpJWE+oDkQW7YfwOSGU8q5GsVB/HslKM0CYpSrYlFUUHIUC0pMgcQkQPHf4GlGA+BLqLRKOwgHBBX0cI7Hp1fgxas5X0X4IV5AwQLwL9WaQvh73XeYyUBhViZ4ACVeRogHRJSzqFIQDgnfmdCSrBDhKURCCp9YhUc2sIh11HSAI8SKSpW481Ouso14SHKUCUus+iWpmFemoq4DQiHkUIC466kX7HGoHUoqJ1VNCwHwGY5EDhraAqCaWa4CUDUfpCkKg1Oo4SVl+iJqPReFcriCtra1BsiK9B5cAcQEOZwCpVXNLNbOK8kNMCYtRwRNXnHRX4HAKkFqFhJtZRfohuoRFEyAYA5FzQjTzz6Ogynq/S3A4B4iEpAaygHmj4WaWS4AUPU/cBqQ8s3Jtrq87pnQn3VTxWvFLuJlV1HiI6qS/+eZScc7Z58hH7ZKfEbz7EsO4UeA4C0itmFxF+yEqHHiOHBDXUkpcM6mcC/NGEVwLJlcR0SwdGPRsKeUdvzsDSEPD/M729qtHDus/P6oNlLnfaQWplfESdVSdPk+Wxcc+w8Dgz8+pyVEOm1TeKUgtQGJasI5AwXf9dN8UN/WcgAIbreJuOg6mFZb/5ItPl60grptUXgMSRLkaG68UnZ2Ty5TeuNfWrQuslkGQhMHS3DxcvL5wYcWpC9nv9HllU/1Kc9I9Mam8B4RuwLcoVxYLQMSFUj2+LDh8Uw3+3LzxQUyNw0dQcC98hfS0DT/q/LIGAn0Gg56p94CQ2SV69ZrcIMSVUY3Fxf26ee0AiG80750G+HT3QZ8nwD46rpTRcU/NKd0zrQlAfDW7XIQ1VZ1qCIyaUhD1pfpmdqVqlI6cXAvmVM0rSB2U4mmpVTBqWkHqoOQMSg2aUqYnVlM+SFSzgOmFY3x15qPuL/f9PQiMHqUgOkWpgxIDpx4IRo8GhDcN6dA3NHzGt5H5GM072aHdUOBk1xMKk92g3Vk9ysSKeiQ9HpY6FFVNpA6IgZoeA0sditB+sw5IlKx0f+ekZnyWhgY5/wJzMXq6+WTx6rP9DLTNBWvhmCAa5oPvwoDoyb5E0nZXV5CkT46dh1mPyAWTKgNoZBddcDo+gdDZ+ZS8fkfH/DoQ6V9uHZD0zzC0BA5PBUD8LBNM3Y1evUAnIOjoCKaq1kHI7yX+P4Igm624TrfCAAAAAElFTkSuQmCC;" vertex="1" parent="qA_CRGKP_DHO0OBm4st0-23">
          <mxGeometry x="123" y="229.00058823529412" width="50" height="50" as="geometry" />
        </mxCell>
        <mxCell id="qA_CRGKP_DHO0OBm4st0-9" value="" style="shape=image;imageAspect=0;aspect=fixed;verticalLabelPosition=bottom;verticalAlign=top;image=data:image/png,iVBORw0KGgoAAAANSUhEUgAAANAAAADICAYAAACZIW+CAAAAAXNSR0IArs4c6QAAF7dJREFUeF7tXVlyJDcOrdLFLHki2n2rtm417gi7NRdTjclKUswsLli5VEIfM7aLyeUBDwDB7XrZ/l7//vbn5eX62+V2e71crx+Xz9v/3E8f//n5Zyhj/28IGAJ7BK7uXz15rpcfRXBul3cjkqmOIfCIwLVJnvCNkWhp/Xn99f31crn9sMhCVoxwArl2ry9vH2///ZDtgtWmjUDWSJpBFIH9+vrPtxu4puv14+PtrzdweaWCDwqxzdkszMwD/vrrj19+bnv4+/j9pw/h7e9yiR46xQlgZHAEckmFwaBXQ07zkFkuGIHqJqKEj/+qQaJr9eNcu4OVtE6gOTzkbBbdCFSWCCQHUHMasCxc2v5oArnJ8O3zVwmS0R5yNvK4/vjw5IgZIDyZcSySfYKQx7XXJJAHuZXKDj0fTKBqX00pivp1nOuaoblcoPN/EIEC8q2QbhbgPeHdX7p+NQG5JS2kZF3eC31+vvrF8sv13bKpQAK15kA5IRW90YQKGon08vJhSiFJueevC+KBWg6jmMbcWyxv6s1qPb9OnWqETQIBpgS2DnAqlbHBpgiUI63rB9RhGIFMp06PQDoN8Fk3xG4bNoHiCm4QwyS7uH0yZJK+zKKhTlYY5Zil3zP3g0WgauobED9qAfOQSZww+aE19lK9UVaTbMfqPX6t9sgEAq0bDRBWqV+tbIoWwLPUu5swm0ERE4sugVw3O3uiYmZlAJnFpCRQ0Z5A59nydJ9i4OY1GLjpBGpsqUk70dP6V1OTJ7W8ud3rM+yqxygqtmyv7UtkArkBNfPoYdQdFbdOoPNY3mq69sm9MWd3NZaoPAJBvVBHgTVJ3TmkxApEo3xOoXpGBRpjKiZLCmefduUFDTqLQN4LgUmEP81KiV9hyQ18X3oqgXRbOaPyjAQCyV54Xs4mUBB2axOqu+kHE3c/gIHwHNJ9kVbonvWttK+Ri0sz+ggNIHSp1ScxAnlv1DoSASSRhNCl+tICcPbfy1nJ5/LCTXkngpL0vqIEApEIwP7aHiWWFztqO6AvsxOk1r+znN4FTyOEwzdXnTiBQPOihuLWAKFYj7Peo1ANZYHRwAoGBOx9FAymCoFA86JGJkTjKiaJ0HAFhQJFAhNcECOBJYg87tYmpeM4qgRqChJCooCy0IG5LOBPZI2bmKdaK5jOlSADpY5m4kDB6+wgpHQa+81sIVQ2tHkSEoEschDg4mNuzfG0vE53AjWtYmdLWJ10du4L1hiVymcvBgRUTplTAqpVLyJxGE6ik+ohXNrJquIqu9ojWD23e+QEFRaJ/UUf6Z+79GM7x9QUsL8gxG3Yfbx1tPlt9ELrpbOL5OmsQw7CrgQKMisqb0cAmqlP4b5EwrgL3jkKD2YGsOBiYVxRbsTIgXvIcAiBqiGdsOLW1Ki5Y8Fbd/rTLrvTujOR5ggKUfmAFBUrliUP0QA8hLxEOQ8j0AwkAhEoiP92eXf/WLvAfneT0cyEeSAQbptV1Shtu1Gk51bSxxOy2TuCIRlKoGZyAWEVSBtPoRthcxrj1xa2v5XIUtJ+BNalKnYGiaCM5XplryauZe+wxB9OIAiJQJY/3P2MEFxzHiQWfCxSEZFEkqHVESmVBfXakQeE/gxLIuTUqbl+Ed5tTRZUs6lbZEzcXIhbRPfFugkIVb3R245K+1fvch4YKQewThBJntZfC92X9EBhcE0SQbUEYUWMQBVQQ5iaptXDQ9QAWWCVsankFfLE+SfwYWwpzzZFCLcHrv58CUBu/y5AwybFFsKB0KQXQhiyaETDW65Hr1aQaVGGAE8VL1R0jRO3ik1HoBgeVN4AAkkUIDwxjwfq0AkLAQ0ZJAIpebPRl8hMSSAREgGEZwTSJzUkjGtuQyoYw+YyBEAHuAhMSyARErXOHWEeWOYifdbvWzJonWIufA82foBIhCOaqQkkQiKq9eKgat/uEciQoOl1XA1c8rg6zk4gNokybhxsvYwIsgiErB5k4bmWcUNEDpAQkjPI6T3QLjtDTSwchGHZN47KdPi2mq7+4xd4M66y9/EOrgMcYk2wPMcBTFZdYiPqXNF2tDm2Go5SINZ21HtcI09rvuQ1+vrhjoPU9ixKjmEpAvlwDgJiDqFcKAe5xVIS7RF1Ie8DSBckdw849+g7lTzIMUoOZTkCsUikHcrFDabX+87twktnD4fptDyAQAjTZYd5gwC1xVLqAqgUiZYkEItE0qGcoPUTU1bBPh0VjRwBlDS2lebO7ZhXHB+WWMsS6J6dQ0woAzJSWTkB694SVtxqcr38aJWNvwO2sIDrqhQk9S2tD0AC6TNAEuM+1rE0gURJBCVjJwXNWv5aqAdQSA0FQkcDwH6uQB6fs9ACtVe95JR0dnGv4tEGESeHY7T+4QIS4kZIaRlJXTMltVNaenzZ3FSPRrTbIJMoE4bl74xb7+Yabcxb9X+dF4I/r1jcnTCR8Xq6EC4MiDy5zZEopMo7bEZsKeIZfq9u65mYPE8RwqUKJpVUOIPSzjDG5n64ycnzdATyE1rEPqmoROZpuvEppuohmcUOmU7uwJdPIjxkq6g37Sxg7bjCHvl909scO7eIPJ6OQOi0aiq4RYQGJcJux8OgTB2aONvgtHdRQzFslVuGQLs9WgBlIM2HHFpPQCKfUMmtGQFv3GkpDeR3KnF83QvJYGoCPQgBASw5tb2YAPdJlO+vxWumOnlaFnEW8z5TJhGy940BV68f5kPUndsLkgjtcQW3/TfviIO4rFAGYSQx1WqVncYDaS2ioRUrRXqBLBB5/YupsKKk6eQdNUg0nEBVly+gwKxQbmJPJBEq7RRqmx+VjgfsCONxYbxJVNHkVZIHYQhDCVT0DsSQrSQXtpUWDHckrCB7PBKd0KhjwfW4IQRqbTr8ePvrTVo+rFCOGe5IjeVpiTMJvhQ5dSdQVZEVLRA7lBsUp4uHahQt6fXNYgmErlm4pgIrkifIX9yCKwr8VMRZMH3ddQ40A3kiiSh75VoWWGiBMpJGcZLeGsrI3ykJBB/RdLyF54iPeggHsfoU4KiCbpKZWnE0SfdrlVw2y/2n5sUi/rvJHh7mYkD5nujNd/Ik1kHpbjcP1NwdTRy0Iyb17i+RhAIFdZfNU0r/Uroz1TdEPXBj2BlpRj0UPFQ9UFNRCYONYQ7Dbat7IYokzv4NY83vQZ4d5tPqHkgjdNsBxQD8wWqdXXknGD83jJd6dRsLhZoHkg7djoTkAu5JBL2JB4uqlcchQIhEjg2UF+V177NQIZC098mFXDIEEnhOEqcqVjqHgASBahuHmdFKTWg6BGpZdgRgpfmKBIHuXshINJrVErJsGW2JNnI46RCotdaCIVDJsghalRb4oxXsqdtH6EINh6YMhdo59mEIgaDWoL5nTja2bQrgqbV43OCgutDqIWg+CzS64fQzZJmkP4EQKcb6C8ywp+xbwKe/g4SAqdDK1hEQ8grgMByre4DyOgSqzYGAoIFAAVoUjB6bJ8KgxSgLUE5o7SiZAXVmZ0wr38xLIMhxbEEh7DwRpG2odK3cIwKCcgMZ2rQHFAK5LVm//8xyRYlAlcwW1ANBlRgICFaPUVYNW/mZywPlD4UIHXYDyfsg/8J3KgTy6eFSJg4IIAoYJRLd09yEN4ig0j9TOeFTxl42UCO780CwuTP0hQg9ApXWV6AWAKu4miSiCOpM5GiNFWg0W9WIhNlc/TvomRqBitabO4ASysB6MUI6liVZPE6DK3+r4HECHCw5AMlcu68jvXJAmUD5uRAk908GCQgQRzfJfeM0usq3isQhh20pdkD9qC+hfK1BqhLo7oUyJAKEW+jsCgEkrk7Gl+IgLw1wG5v5e2XSRD0SOHgIMt6t7V1JtKNOoCyJoFYAOw8aQKJdWOH+5Qxk2gjjhls6cSvJdzGPD9U7yJx3cwJdCJQjkYglgEgJCBqkKmiZsBUke8E7tJJZynmyeMvw3osw0Sg5TyDgdSKUgMjH62prL6eH4x7GdSPQwwQQOhiINYAo2wAipd2K4V7tpW3IOLTKBKIA7nPQ6oIacVzFQPmDvd1WX3cCeYZvz29AL1AUXYsBAqmtJF9x/eVy+fx8je05goU/ifsTogfZKnUEcX/bpSe9vUoNV7WrvBAyB3kf74Hu60lDCERRTlESISwSpa+a33zdUf3YSo/5iMbY1IiTKDqk32DvsyKB7hZbYVeA0J1uEAFZmT0CqsRBksfrF2TuE4awmgf6io8VSBRDpst76XUCU34ZBNRJc1BwaK/RxnnkHAg6qFI5lKulNuY8E+ApSWr1Z/lO7R2hGoCIOY/3PJRE1coEIg+aqrUW5qGQG3pFMTC7GyMaCnmS4w3LJBGGeqNj443HqFDa9gSFhxImCb8hR7BTuEmex1WQeLjlCRS9kZ80Xn4M0cftAS7f9hOHfTEcc2n3kG6XSLVzhEbcRkQmzzMSiOuOOfKrfnsgliu7Qqp5SqIcgSYShx3+H+ZXT+GBjtgusckzXflPB5AscEoR7mHtKCzcSi/aqlmipGIGcTx5uEshPc8D9cCz1sYSRBoN0irts4kjsK8uk917Sg+U0wlWzLuKkj1bP5mkEQ3tC6nx0xAogul2+LoQZlTC4dmUXHo8ye5vifkiO2TzyanyPQqnI1Aq73jswMgkTQNcfcKkYScK0t43rgo4NYGWTD7gVHPe0kqH8kS3CgF2NBiBCir2VIfiZqBRSOkrrZOJEsfhBSCPj+5mwHaFPkRCuc7OeihuFiA7nmIVJw4ycWEEYijd6Uk18BSrOHEQXmc3RWLoj31aC//cb8cFy9HbXigSOy74bgu9EhkySndUiIP0OkYgiuSEv9ltl0nrTncHeKt4+zruze3D8Xi3J/njEW/3n0cRJDdEtfkogzihnxbCcZVygu+dgs2k8FKQqHgbP/N3Nw1d3yUwMwJJSdvqEUFAjTTCxDEPJCJuq0QCgdVIY3MgCalbHWQE1OY00S3IhWitQVoI10LIfmcj0IswI5IfRiC2elgFKQIPh/Eks4hhHjPB7anD5kDhVlKc2pUzJnG3rd1TgINUuPTOy6R1QwnUuEFVImMmPGRfXXcPRDqXU9mXVHsIKV3jmFUAGkK1Ovsh8LwEymF4kss/+qmPtXQuApXknRLLlVHaMWzq9nwIGIFaMs1d/jF4P1iry/Z7PwSMQBJYd3jgWKKbVoc8AkYgCUyBh68kmrI65kLACCQhDyOQBIpL1mEEkhCbEUgCxSXrMAJJiA35IoBEk1bHHAgYgQTkAHlxXKAZq2JCBE5JIFP4CTVx0S4ZgRYVnHV7DgSMQHPIwXqxKAJGoEUFZ92eAwEj0BxysF4MRMDv6Pc3Ef31hu2GEQiLGLF8OPcPEVL2bM12/RT2HdC0u7uHtsKddaHAZPv7yo+CvXyELnOPqDzcxUBYzzMCEQnR+qx4jLmyZgS9XAOTRSQ9ADzgVXLyse9kJz3UuNRwxmDrdMAI1GIC8Pcvi3n7Ub0MsbDxFHzQELhxFUrG5vAcmRSPd4j1Mwwk8y7t1xhv90eoa6dkgfjG5poAChcAK0raLuVEaqXfWCvTggD9iNPBC6G+b4QZ4goZBk8Ib2q4kfSgJQip3xE7S8wDCYCOIoD3+y9vIX7nfHvsehelRChXDlo1ggvIMVaB8EJGIAHgvVLcPn0mB/S3WXM0eVym6PefWZl1IU+MW74MAGi8WyE0TpjKpcsCPa4RSAB4tGKEOB37tGRBqF3JQyQRGiMBubCrAHhbIxAb5XsFr/98uwlVVa4mQ6Ah5CGQqAs+kgIwD1RGUzqJ4AnkFuOgd6ARBZ3r91DFBM4VhpIcizXy5QbzQFiAC+XVCZRR1ikUE5IVxMwPheSBrgZJnOiE0Q0xPyAJXTiNzRxCdiKvTqADBiQck9DL/eNXJvD7q39NDzsnA4Ry5H4WXvGOC66UviZ1pjrA2dFwSg+kQqC/v/1JVsC0Q8crbrew8Bi+kUK3RshFnuhX6iX1Ezj/IJETkBjA6IcRCIPWVjY7F+ESqBJCOEVJt6nQFOf6AdmHR57PZRST1E8geYLYKJ5fcg5sBJqBQEirqGnV7wRCrmu5j4TmaBTlRuOBJGlNRYxAowmEJQ/F0xEUhmLZ0x0WJE9G6CepHWD2EKIaRiAISocy2RCOZLXxK/o9wiKSUrqPjokO7NoYlUAEo0LxdDlVMQKNIhDRCqLDFR9eEYhKMgj7eRa6r1QCEfpqBNoUnxRqEEizS3tm9qOh5w0dCURVFjQBDnv10N8TiE6fs+GNinkgJnHC5yIhHIFApPCN0E7McGFDsIO3Qxs3qgcihHAUr2wEOiOBiEpJngexjmrAU+2pKGmGxTyQxxBt5QRINMwDUfbb9SZQ0h5aNkRviQ4VK8dCsOpxyiQCdU5QA7fHHIiiKMfMGEZBSJY9JRAltEISntRHI9CXGqCtnCB4uzACmwkiWNslCJSMC21UAqBAElHJwzEqRwNkHghjkitl0cpyAgKxQuzCzUDgy1tqciVm+yyJsCFwqhCOoSwkC38wDGjDImTQitUAvRu0G+aBoEg1yqEVBemB0PWH/g4mEMsLCckmrUbaeBqBhISEVvATEWgaEgl7H7/sJaQ/4GpIYYHwgTppK3RXEOQOZiSBfBvMhU2wkLaCJFnVzgZR0vDYTpfKK5DHCCQlnJkJxFAcEoFaR7wpqW2unBgYtJo2D9RCCPj7tB6IoTwaBApwkuoGyiIWI95zgGnGCIRBq1K2C4EoIdCkBIpEooypJbMOxIk5mlZfpH8nWR6bA3kxUBaNOYuGWu2pXe/bkThGIGHLMK0HIiQrWN6hkTYnkTJq6/Xjsr2TFMU3+F0jC+GEiNSHQMhMn08T0XY4U7N+xbu7sVnKVC6MMFRIvMVqjEBCCE9LIOLeP/R4KmQlhe1bff9agHfOvW1C4jUCpQisug5E9QqUw2MkpRe+/F5DTtKEMg8khCjaYhNDK9IcgrCdR4pAaFyS+Q70HjshEZKqMQKRYHv8CK0oZAL1mQdRdj2IXzi57ch2T0zWxDQyxDMCLUYgcjob4YWkvI/va++dB4c3UrXJtQaBqi9b458V0Yite3mgO4F0vZCU9xlCoKNBVH5x3Ai0oAciJxMA6WDSHKu60E0gu5BMdtUoLbIagYSEhfYKxDlQ6C4rNDo8XR+fDHm5/kZ5JKzm0dG4CMmjWA3AiGC6YATCoFUpi1YUJoHIcyGh8cZqAApJ8mrS/UzrA/QZ2rwRCIpUo9wYAg0Oj4CKiMZGSCbVahBJlVo9RiAhYaGVRMADjZ6kY5IxaHyE5FJNf2euaMY2259AlO3rloWrypU1H8JqTChPtOC+r+6P8kQjta+l74AedC4PRCBQfZJ6vjR2TqBdSUQkT7bfLiXv3mdN/1wyo6j0t31ZLqmYY+nvgQjn+o1AMC1RJ5FSKhg2usdS3Ozh3RPy7sg2AlGld/gOHeMLzYG6eSOBcEcI6mw1ZOPBlENXApEG2bqkQjgkpAp5JgL55EIIjThzje3F8BU2dcYx3z5/YWWISYYc634CAn1Hx8Ra+6O+rp2FiVCrH8fWURP3jTTcczhYY8lR4nS8lDUnTtt9CSQ8/4GpqZUqTt6TH6TJjFJkwfAQHQkQDxwG6LoRCGuR7hM8+nFko81YBFAbUgcTiJNI6EIgEnmc/AWBHatO52od7QUEDSVF16YP4VDWKA0rBFaKz6W6c4zWCCQoB1QsnLZr3kdQCn2rQhOIOQ8Jo6O0676d1gORySPo0vuqjrVGTicLGExSpMNsV2UOxL15kmMRTIXnQKCnMrP0bTYCUSZxO5EzBzSH+lgvyNEHInnEIs4mIq6xFvdAPYAz9ZwfAep8JDuyuLjrMrOCm0kFjLU4ge4xMH6HtKWs5ycFtockPcA2wijP9T6uaSUCIU9KMnfEMjC0TxUREPVC0v0U8D5qBAJnYibbHi8tI6tvwL1wENCFyKNKIE+i2qV6goOAYGZlxiHATixJdl1Y71RCuHS8D+CZ15FUh2XqmoJEClMFdQJFT+SP6c79VMUy2rhoRyXSzqShKxrtLgQiDdo+eloEvDciXuKIAkWROKEfRiCURKywJAIip2aPHRI6EAgdpxEIipSVU0cgEsq1lN7Mc1w8TRdWfa+u7+5/pQ8FQgb8fyic0vVnkOebAAAAAElFTkSuQmCC;" vertex="1" parent="qA_CRGKP_DHO0OBm4st0-23">
          <mxGeometry x="209" y="229.00470588235294" width="50" height="48.08" as="geometry" />
        </mxCell>
        <mxCell id="qA_CRGKP_DHO0OBm4st0-42" value="kublet" style="rounded=0;whiteSpace=wrap;html=1;" vertex="1" parent="qA_CRGKP_DHO0OBm4st0-23">
          <mxGeometry x="16" y="190" width="74" height="25.29" as="geometry" />
        </mxCell>
        <mxCell id="qA_CRGKP_DHO0OBm4st0-44" value="docker" style="rounded=0;whiteSpace=wrap;html=1;" vertex="1" parent="qA_CRGKP_DHO0OBm4st0-23">
          <mxGeometry x="200" y="190" width="80" height="25.29" as="geometry" />
        </mxCell>
        <mxCell id="qA_CRGKP_DHO0OBm4st0-43" value="kube-proxy" style="rounded=0;whiteSpace=wrap;html=1;" vertex="1" parent="qA_CRGKP_DHO0OBm4st0-23">
          <mxGeometry x="106" y="190" width="84" height="25.29" as="geometry" />
        </mxCell>
        <mxCell id="qA_CRGKP_DHO0OBm4st0-49" value="" style="shape=image;imageAspect=0;aspect=fixed;verticalLabelPosition=bottom;verticalAlign=top;image=data:image/png,iVBORw0KGgoAAAANSUhEUgAAAMgAAADICAYAAACtWK6eAAAAAXNSR0IArs4c6QAADvRJREFUeF7tnc9vHVcVx+97dkyKURITlIYGQSto7LDqim2R2LKphNhVsGDRHa36B1SIFUIogVW7K4IlCxZIrJDSLTuERGJXiIBoSSsSW6Fuftl+aBy/dPw8M/fX+XXnfiNVqvRm3pt7zv3c+zlz3vNMHP4hAohAbwQmiA0igAj0RwCAYHYgAgMRACCYHogAAMEcQATSIoAdJC1uOKuSCACQShKNYaZFAICkxQ1nVRIBAFJJojHMtAgAkLS44axKIgBAKkk0hpkWAQCSFjecVUkEAEglicYw0yIAQNLihrMqiQAAqSTRGGZaBABIWtxwViURACCVJBrDTIsAAEmLG86qJAIApJJEY5hpEQAgaXHDWZVEAIBUkmgMMy0CACQtbjirkggAkEoSjWGmRQCApMUNZ1USgWIBufO99dcfP5i+9ei+O3f6jHtvaeng9+d/t3mtkryZH+bt717Zbi5yesr9peTcFAvIv75zZdaeJSvPuJ2Lf7ixZn7mVHCBDRzNwtUe6urawRslLmBFAvLxK1euP7jnXl6ca6UmYUzM9OWm1AWsSEAWd4/5BCs1CWMCpGv3mI/vq3+6Udx8K+6C+1aoeRKwi+ji1rd4NVdVYm4AiO58GtWn+xavEnf44gAZWqGa2VZiEsZCyZBelapZRQHiW6FKTcJYAPEtXiVq1igBKdF1S4ckdPEqbYcvCpCQFQqapYNaKCDN1ZV0N6sYQGISUFoSdKY07aeGLl6ladZoAYFm0QIw9G6xi1dJmlUMIDErFDRLDo7mk2IBKWmHLwKQ5ouJu9vTq7FpL8l1Y8dm6fjYxaskzSoCkJQVqqQkWJrssdeSmptSNKsIQFJWKGhW7FRPOx6ApMWN7KxUvULTkCwFg2+UuniVssOb30FSV6h5VnE3iw+U3NyUoFnmAclZoaBZfHCk3r1qXxEAycxPrl5BszIT4Dk9d/EqQbNM7yC5Wzg0iw8QqtxY30VMA0KxQkGzeCABIDxxDX5XKr2CZgWHPOpAqsXLumaZ3UGoVihoVtS8DzqYOjdnvzz79dnf3vxh0IcLH2QWkJBfp8XEyrrrxoxF+1hqQCznxiwglFs4NIsWKY7cWO1XmQSEeoWCZtEBUltuTAJCrVfz6WF5K6ebwrzvxAWI1dyYBIRjC8ftXhpwuHJj9W6WOUC4VihoVj4g1LfeF6/IYh1iDhAuvYJm5QPCvXhZ1CxzgHBu4dCsPEi4c2NRs0wBwr1CQbPSAeHWK6u5MQXI3e9v/OOTO5Pn09MYdqbFrTzsyvWOklq8rOXGFCASWzg0Kw0yqdw0V2fpj22YAURqhbK6ladNW5mzpPTKYm6qBWR5xd167o83XpCZYmV/ivTiZUmzzAAiuYVDs+KA5b713nU1VjTLBCDSK5TFrTxuysoeLb14WbrdC0Dw6OhB2rQWLyuaZQIQjRUKmhW2C2no1fzKLGiWOiBaKxQ0KwwQrcXLimYBkEIfcB82vfOO0l68LGiWOiCaKxQ0axggTb2yolmqgGivUNCsYUC0Fy8LmgVACn3AfZ48+c+2snhpa5YqIBZWKGhWNywW9MqCZqkBYmWFspAE/3ouf4SVxUtbswDI0dyz+HNPeSyefKK1xUtTs9QAsbRCQbOOo2gNkObqtJqGKoBYTIBmErR2ir7PtbZ4aWoWAGnNEmiWPb2ap0dLs1QAsbhCQbNs1h/tXU5Ds8QBkf51Wqy+aCQh9ho5j7e6eGlpljggVuuP+aSrWbOs50ZDs8QBsbxC1a5ZAOTk3iwKiHW9qr1paH3x0tAsUUCsr1A1a1YpuZHWLFFAtn+wMXMPOUtMmvdeXpndvf+/6V9p3q2Md1k9N7v06L77hvWrXbkw+2D1V5tfkbpOMUAe/WL99enp2VV3U2poeZ/z4d+W8t6gsLOf++Z+GVe84dzBg8kbK29uXpO4YDFAHv9y/frki7OX3T3nSoDk052J2/lwKpED9c9Yu3Tgnjk7U78O7wVccs41/+26neXXtta8xxMcIAbI3m8uf5aBD5xzzX+G/+0/nriP3q8DkGdf3HdLpwwno7m0ORzN/48NkEO9ujC7eiwFjWo1u4nhf7Volnm9asNxNF8OPpbRLJEd5KleLcLwZ8N0OOdq0Kwi9OpbJ+fJqADZe/vytlt1504M03g9UoNmmderDefcmY6FVEizRHaQY/XH4liN1yNj1yzTetWhVu3pI7GLsAPSq1ftkRqG5N5HE/fJnXEW6184f+DOPGv07pUHjmb6jAKQXr1a3EmMFu1j1iyzetUoVaNWvn8CmsW+gwzqVTsAhuuRsWqWWb3qKMr7WOHeRVgBCdKrAiAZo2aZ1asAtZKsQ1gBCdYr4/XIGDXLpF5FwnE4bZg1ixeQdvfc55Pt1w3WI2PTLHN6lQKHQNOQDZBovTJetI9Js0zqVUTdsThVOOsQu4AYK9rHpFnm9KqvGRhqHYyaxQZI8N2roSAY64+MRbNM6VWGWrWnzvKrWyxzmeVNs/XKaNE+Bs0ypVdEcHA2De0D0ozeSNH+6NOJ+++tsrvqX3r+wK183kD3PLQZqKxZLICQ6JXB/sjBvnO3N8v+peHF9X03tTCEjKK8jxkOzSIHhFSvDEJy559T93CXPGyh62TWcZ9bnbnzXzvIeg+SkwnVirtpSJ5pNkCaSBgo2kv+jYiJ334wwcHVNCQHhFyvjPVHStYsdb3ihONonlBrFikgrLuHoU57iZplQq8Y6g7upmGZgCg3EUvULHW9ym0GhhY/xE1DUkDY9cpIf6REzVLVKwG14moakgEipldGIClJs1T1ShgO6qZh2YAoNhFL0iw1vaJuBipoFhkgonploD9Skmap6ZVAUc7dNCQBpPMPw4XSTnGcUtFeypcXVb6cqKBWHE1DEkBU6o9FsBSaiCVolopeKcNBWYeQAKK+g8xhEf5SYwm/ERH/7YcBOADIkJYJQ2Jds0T1Sqso75gPVB11kh2kub6kP9BAUX8svodwPWJZs8T1SqoZ6Jk3s7uT9079ePPbFNOLDBAzmiX8pUbLmiWqV0bUilKvmvciA6R5s1ohsapZYno1UjjIAXkKyersrc6/5k6x58W8h1A9YlGzxPTKSt2x63YOdic/oX40G+kO0p67Jm79Nhck8AwSi5olpleKzcD5fKOsORbXXzZAmg8yAYlQ0W5Ns0T0yoBacf5NLBbF6jIgdVAEmoiWNEtEr7ThYFIq0R3ElHIx1yOWNItdr5Th4FQqNUBMKBczJFY0i1WvNItyoV2jDQlrDdJ3w0lNuZjrEQuaxa5XWs1A4l8Kht4MVQFEdTdhhMSCZrHqlZJaSSqVqmItfvhhY1GjZ8JYtGtrFpteacChoFSmAJlfjIpyMdUjmprFplcKcGjuGuo1iJlbwQxNRE3NYtMr4WYgd28jtP4Q64PEXJDobsJUj2hpFoteSRblBpTKpGItXpQoJAz1iMZjElgeayCoVlaUqghAxO9yEUOioVnkeiUFh8Fdw2QNot4zIS7apTWLVK+kmoFKvY0Y5Vfrg8RcpIhyEdcjkppFrlcCdYdVpSpGsVR6JoSQSGoWqV5xq5VxpSoWELGeCWE9IqVZZHrFDEcpu0ZRNYhKz4SoHpHQLDK9YobDUm8jRu+LqEFUCngCSCQ0i0yvuJqBu25ntjp95dSrN6/HTEwrxxYNCOvtYKJ6hFuzSPSKqSgvUamKr0G6Vha2v6ZCUI9wahaJXnGoVWGF+NBuVfwO0h4cy+3gTEg4n62e/cxzJjiWX9tas6JIudcxKkDYlCujHuF8TELWYw0YmoFjUKpRKhZ7zySzHuF4GlX2U6Moi/IRKVUVgLD0TDIg4fiNSNZvPwjVaoy7RvF9kBivJK1LEusRDs1K1itCOErtbcTMn9HVIOw9k8R6hFKzkvWKCo4CvmQYA0E1d7F8QSHbTRIgodSsZL0iqDvGrlRV1SBsPZOEeoRSs5L0KrcZOOJCHDtIRwSyd5OEeoRCs5L0KletKlKq6ncQ0sZiJCQUmhWtV5lw1KZUAGQhAtl/myuiHqH48mLUlxNzmoGVKhUA6RHOZOWKrEdyv7wY9eXExKK89l2jqj6I784WiXJFQJKjWVF6lahWNfQ2YuZENX2QmKAk7SaB9UiOZgXrVQocFRfiuIsVQ8fRsUmQBNYjqZoVpFcJcECp+icIdpABeJJ+ZxIASYpmBetVTN2BQty7dAIQb4gin7UYUI+kaFaQXkU0AycP3a2lH229EDD8qg8BIIHpj1KugHokVrO8ehWhVlCqwKQ75wBIeKxcVM/EA0mMZnn1KhQOKFVEtp8cCkCiQxahXAP1SIxmDepVYDMQu0ZCogFIWtCas4KVa+AZJKGaNahXAUU5ehvpecYOkh67wzO9oAwU7SGaNahXPrVCbyMzu1Cs7AAGQdJTj4RoVq9eeeCAUpGkFjUITRjdkwL+wuxq7/v11CM+zerUqyE4UIhTpRRFOmkkQzrwHZAMaVanXg0U5dg16DOKGoQ+pv11SUc9MqRZnXrV0wwEHAyJxF0snqDO33Xv7cvbbtWdO/YpHfVIn2ad0KsutYJSsSYROwhreHvuci1A0qVZJ/SqAw7sGszJww7CH+Deu1yteqRLs47pVUfdgd6GTO6wg8jEubtn0moiLmrWMb1qNwPR2xDMGPogosE+sZu0ivb2YxKOPdagVZRDqcTThT6IfMgXeiZH9Uhbs57q1bzuQCGukSb0QdSivtgzOYJkrlmHenUEB3YN3SyhBtGN/2c9k5vO3Xv/STrOvDhzbsM5wKGcHNzF0k/A/Ar2f77+n72/u4vOzdzy1ye396fuZytvbl6zc4V1Xgl2EEN53/vp5Xf3/u1eOv3O1kuGLqvqSwEgVacfg/dFAID4IoTXq44AAKk6/Ri8LwIAxBchvF51BABI1enH4H0RACC+COH1qiMAQKpOPwbviwAA8UUIr1cdAQBSdfoxeF8EAIgvQni96ggAkKrTj8H7IgBAfBHC61VHAIBUnX4M3hcBAOKLEF6vOgIApOr0Y/C+CAAQX4TwetURACBVpx+D90UAgPgihNerjgAAqTr9GLwvAgDEFyG8XnUEAEjV6cfgfREAIL4I4fWqIwBAqk4/Bu+LAADxRQivVx2B/wMC4E1Bp41SjAAAAABJRU5ErkJggg==;" vertex="1" parent="qA_CRGKP_DHO0OBm4st0-23">
          <mxGeometry x="26" y="229" width="50" height="50" as="geometry" />
        </mxCell>
        <mxCell id="qA_CRGKP_DHO0OBm4st0-57" value="Node2-Compile Server" style="rounded=0;whiteSpace=wrap;html=1;verticalAlign=top;fillColor=#dae8fc;strokeColor=#6c8ebf;" vertex="1" parent="qA_CRGKP_DHO0OBm4st0-23">
          <mxGeometry x="296" y="160" width="296" height="130" as="geometry" />
        </mxCell>
        <mxCell id="qA_CRGKP_DHO0OBm4st0-58" value="" style="shape=image;imageAspect=0;aspect=fixed;verticalLabelPosition=bottom;verticalAlign=top;image=data:image/png,iVBORw0KGgoAAAANSUhEUgAAAMgAAADICAYAAACtWK6eAAAAAXNSR0IArs4c6QAAIABJREFUeF7tnQuUFsWVx2sYHgPyHkAFNRpF4wuNiKAxBvPwfVbX5CQYIKsm8RUTdXPIanw/dmN0s0ajsmpiTIBIctS4ie+TFUyy6ojPiaIBEtGALxgE5A0zs+dfM7e5X31V3dXvqm++PoczzHR3dXV3/ep/761b1Q2ivuX2BFZ8uHFyUHivXpMbGho+o71YZ+f24/gBDQ3z1eM7OzufCv7W0TF/5LD+VcfkdkM9sOCGHnjPmd+yBKFXL9nIAwhMjT7zq3cX2A1TAFAdnkyedB2QBI8RQDQ0Nl4pTy0ahLj1bWiYT9CMHNLvqrin9/Tj64BEtAAyk7wBwqJFdwpxNQ6rAxP9sOqAaJ5RBRSuK0T0Ow4/olth6rDoH1MdkO7n0qOgMCFTh6XqyfRoQOpQhIhLHRb5cHokIIGTXevmU1rzq/v8nuyz9ChA6mCkI6YngtIjAKmDkQ4M3dmApSc49jUNyIo1m69qEKJrvKK+5fIEah2UmgSkDkYuLIQWWqug1BQgtWRKvfj8c9oGecihhxXf+mNcsdZAqQlAfASDA3DXzJ/IJvjiAj0UuvZ5yIQuUMYfOlH+/Ma558doxvkeKp35GskF8x4Qn8wpQJEEBtvmDGgADH66oDS1oCbeAuILGARFHHWwBSLquG+e+20n1MVnULwDxAdzKgsoJnxyf9m4JxxygBi9Y3PAwjvvt4kFL74qf1/w0mtRjMj9ToCCkfn29qt9m7/iFSCuq0YaMM77+lckCKec+DmrRk8HLX/nPfnfX/7692LOfY+FnksmWJn+im9q4g0gK9dumefq3IukYCSFIoyCNWvWiP+d/7S44oafhsICVSkLFJ8gcR4Ql02qNGCcd+aXYylFkoOfe/5l0bLgJXHH7Ie0p5cJCSrU2dFxtOsml9OAuGpShYEx7qBxYvq0aQI/sc2Y8T3R+kqr/D8UI2swOrZt0Tb+Xr37Bn9v37xe3H73b5wExXU1cRYQV02qn868NQjV8papgoF9AAOAYLvu++fF9i9wHgDobN8qy+ignwYoTCpDsPz3L35bhySmFDsHiDSpevWaF/M+cj/cpBrTp08T06ZPC64PKGbNnh2oBqJRP7/1Guv6ERCAwaQO1oUZDrxzzsNaUOomV/UDcwoQV00qnWqoYCxc+Lp44P77xZ/+9OfgKduqBkGxbfP6tG3f+nxnIXEsS9gZQFyEQ6caOlPqkUceE4uX/E20PPO0aGtrk4307psvF4cdenBog4VvkKdSRNHyQusicda/3VR1WOlK4hAkTgDiKhznnjm9ovHceOMNgfONHYsXLxGPPPq4PGbxokVi8aK/WsEBMIpUizBQ6pCEdyOlA+IDHDrVmDf/KdHa2jWiDdWAekQph0tg8GZhgmTm3bNKzelyIcJVKiAuwqH6G6qvgYZ1/wMPimXLlgdtjEyrMLPKVTjoJnQ+CUbeZ/5sVpSlluv+siEpDRAXw7jwObhZZQMHmVYmOOCAt2/ZkFtEKsvWqYOkbH9E3l9Dw/wRg/seneW92pZVCiAuwoEHNnHcPsFzg1kFn4NvqnKQaWWCw3XVoHvr3W8H0dDYR2C85Ac33VWV01W2qVUmJIUD4iocqmn1+BOViX8qHHhpjzz0ezH1S8eJSy76ZlWH5AMcAKKx7wAJBt8O+NQXK353wdQqC5JCAXHR56CWcO7Xpwcz+rhphYE/OOSIWPFtVdtK6Zy3PnVvVQNLAgd68aJDvv0Gj6q4J5iDTqsI8rcKDgEXBojLcKjmFQDB9kprazAirrNZr/neN8SpJx9f1ci2blhtZeICisZ+O1QcmwQuq4spB/Fr68wqtUxnVKRgSAoBxHU4VOfc1OAoARH7oSzqSDl6YBs4dGCgTGTeYgMk48ftnaTdW5/TZ8BQqRZnnH+F9cQrJ3yR7jssSklyB8R1OEzJh3gPzc3NYr/99hVTp08Te+y+e9D4rrv2OplSgkb8i5k/CP4OOKLyp6hh8paMTNvbf/brisZ91tQTxdnTTrJu8HEPhHmFdPgzL7jW+lQnIlqstkVAkisgvsIBML559lni6Mn6L6YRIHhX//fI3WLIkCGy148aHVeVA1NmAYZp6uwLj860brxxD0RdSLG4WmHQ8IW/LNYmM7pkZtH95g1JboC4mpVLD1anHADjC8ccK77whc+JXXYZU9HmMDC4fPk7Ytny5WLek/OCtBIAMmiH/lamFXeKdarBG+r4A8fmqiBRQLk6uq6rd54Tr3IDZOWazZ1RL6Gs/TqfA3BccOGFYuLECUG1AEXLcwsqRs2xk6eWAJABfTojTSvY+zCvsKlw5G1OJX3OOkhcM7Po3kYM6ZdLW86lUN9MKx0cunEPehkckEfvvUmMGtoU2QbJ9+BwuAoGvxkVEhfNLFnfnEbbMwfEdTjwLPmIOX6/+PuXBP4GVANwhG0ckDt/eJFVxAmA/O7xP4nL/uN2WbQPcNAzQEo8QKGtpbUra9m1LQ9/JFNAXPc78EJV32Ps3vuIW2+9Wb5rGzhwHE9ttwVkU2c/ceGlP5IOuU9w4H5VFXEp3KtCmrU/kikgLvsd9CD5iDn+ds211wZ+x8233GbVKSYBZMlb74uvnHOVVBtA5dvGVcRVPyQPUyszQHwwrVTziqtHS8sC8WyL3eLRfOagbSiWemFbxXENIK4izvoh9NAy9EcyAcQXONToFaJWJ5xwnHystuqBY5GkiA0DeTCXbDesT5Xn4J9tPZIc5xUgGaajpAbEB7+DGoQKCJlXcdSDO+hxAUnSMMs6B0Co6S7czHLVUefPKwt/JDUgrqav6xqWKaU9jnpwQGzNqywaedHqAxhUX8k3QLII/aYCxBfTihooB+TTnz5SXHb5ZSKOeqCcIgHB4GKvxj5yMtNtP71XjD9gT6uQchogkYKC7cwLr6sChM84dDmSVaEiKdPjUwHiQ9TKZF4lBYQiWHlHo9SkxjO+dbno6NgWOwI2/vhzrcPKPFespeV50b51UwWQ3A/xBRC8/zSj7IkB8Uk9dHlXBEjYiLmuJyZA8vQ/dOnwGD9BanrcKJgtIOo1Acjt99xfAaSvgKQZQEwEiE+OuSmd3WVAdCnxBEhc5QIg2KL8Jd01/+XcS8TZU08MVMRXQHD/SR32ZIB48v3xsLkeBEgcBx0PmhQkbk8exy9Qp8LSuTCzFry8MJaKwLmH7xA1es+vSUuhwg/Bxp11Ag5/d3rAUH3gCcdGYgPii2kVBgeeHRIUf3XvnFjjH0UBYppxSCpiowjUPgiQqHMoIMDntJBicLg4IL5BkkRFYgPig2NumkJ7y6jh4jsfrAr6limnfVW8uXSpWNXWJrAIw/DmEcG+4c3NEiJ1oyhWngqCa6orjVA9Zt7zgFQE6tltpuZSow5TEZ6MSNd6vnVR1bVUQLyCJIGKxALEB/UIg+OIpiZx6NvvxLF2BNJRxu69fX54UYCEVZIaqa0/wlVEBzbfb7ouwaUDxCdI4jrssQDxQT3UVHa8PCgH4MAWFxAyxyYefoQ8nwDJM4qF3vyObpXAzEJZ7+5FHPB33ttHOd/U4HnDVs8xzR6kc8NMLA6UL6HfOGFfa0B8UA81U1eFY1V7uzhm+ftVnSR6YkRraMOcbGz8234wtwgSJCvuPqY59piErXTZ9OhBXS3nrfMydaaWek16JqoJZ1KQwAQsecFrm2ccR0WsAXFdPXROOVcOHRymRkAPWV2rliChbN68/JCoHl3Xs9s0DJ4qYvJHSJ1Mvk1g3jX1E+P79RV3rvmo4tLOZ/p219ZWRawAcV09ouDAM7l+1Wpx37oNwcu0td9VSLiK2JZh03jVY0i9SM34fphdMLlsHHR+ngpeVOhXV+/A4R8ySJw1ZJAERIXEh/CvbUTLChDX1UP1O2YMGyy+Mmhgxfs9/b0V4tUtXR/DxGZru+NY3vMWBUgSqGzOUU2puCpIgNwxqlmMb+onL6mDxHl/xDKiFQmIb+rxpYEDxMXDu1YP4Rt3zuM62LznhZmFcDC+JpWngtg09qTHpIFEBwjqcfYHbeKFTZsrquR6SryNingNiM60emLMjmJ4Y2PFi1L9jzSAVJg6nk6fxT2ozraNkvCOgisIPRM1Qui8P2KhIqGAuK4eqmk1d+cRYq8+lUv5b+7sEPM2bBCXta1NZF7RSbroTVzQkvb4eZynCwREQcLPeX630VXV8tHUilIRbwFR1YNHrPibW7Ftq3hh8+bUgNDodQDMgWNjO8l5NPQ0ZerCyWGQUMACvgcURLepkPiuIqGAuOqc60wrXY8GOKAgcM5JQXz1G9KAEHauDhJTAMMGEFxLNbVcj2qFqYgREJfNKxUQnd+xtqNdrG3fJttGHZBwvFRITOFfW0B8M7USAeLqXHMVDl3UCqoB9eDbKe+2yV9rXUEoE9hmtXn+fDgkpmdE4W6Mf+Bf2OaVwx7irBsVxFXzSnXMdeqxbGtluBEvkgDB/+OMgeRl2uRVLp/XYfO9EqpHHEB0ESz1fmpFRbSAuGpe2agH+R3qC5u7bqOY+1HXSHpUtCavxpt3ueo8kjiA8MFQk4KYxkBM9+WTipjMLC0grppXqnqojrnOtKKX15MAsf0UHG/YPIyt60CiQrw2ES0c4+wIu8HM0gPi4Lc9VPW4bPhQccrAARXvxaQePcFRl1+GevVv4rwzvhT5pSv+0Ci1npIU0zroKii+q0gVIL6YV6p68KiVSfK5H1JrZhZMJDIfbU052+iVLHfOwzL9P2wMxHcV0ZlZVYD4YF7pIlc6xzzMD6m1aBb5EFEBCMoS5gOfNlm9cf0P/uy9URGNmVUNiAfmlRq5slEPemEYMKSs3lqChNRAneMC0wlzy0kFeMONAoOvz5sGEJ8iWqqKVADiqnnFnfOk6qFz1vE3G0jIvHDZLLOdhUir0UetMo/yaM4JnxOjy1iIMunqgEQ9oRT7o0bN46iHCRL8XZd4qDqwUeZLitvM5FQdJOgAaF57FBSoBFciWg8rqf9RC2ZWhYK4ODjIAdE5iDa+h6718bCvuh+NSl0Gx4XMXd0nCTIhi4FB5XG15NNsTUmKUfXwRkUUP8R5QLh5NXunkeITffsE7yJs3CPqhWF/GCTq+UWpB18PC+MZfOPrW5Hq2dyn7hids07Hcd+Em1c2I+im+ngDiLLYdQCIi/5HlHkVNu5h23BsIClKPfhIuC6XyrSYA81NJ1OK3zuf0w5ViFoQQvXJ0vofPppZ3FH3BhDVvEqrHvzFIar16pZtQSpKWerBAdm89gMt47bOuO5kqGDY+bqoVhbmVWC2aRZ4cHJaLjOzAkBcHP8Ii15loR42volNlMtWraKOUzNxKUSrc66TgBIGiA4Orh42GbxR9+eNmaUFxLHxD3UJ0d+OHiV27d07eAdJnfOol6jzTYr0P/AZAm5eYQAQppMpAgVQYEbp1tbVKWGc0XOen5XG/wgzs1zNzaJ1s6SCuPi9D9X/4PH3LM0rGxVJOv4RN+oEBx2AqFm4UZDQPRAkNDBY0TC719GKWhguMIe6U0vwe9z0krBOSF39xNUpueSHdAHi4Pc++DKi6gvKy7ziLzaLvC36LoeNatExgESNXuk+QxCnzCTH5qEeqIcvc9ZpeVJnAQkL7+ZpXlFjyiIlBT0/RqPjfEvd1Jij1tZNAoHpHO57ZKkeuB7WzoKK8M1FM6sCENcddD7+kbd5RS9ODf8mMbOo588qTKwuPWSbNhIXnrzUg+qhJi+6CAh9QloqiGuAqA469z+KMK/oRXIzK2k0i7JskwBW5WS3LpLLoOq2sLEQfjwcevX753x/1pErXV1VP8TJVU+6I1ldgDgWwQpz0Iswr3QqkhQQPjCXBSRJwrsVAPzwIuN6XnmaVhV1UMZDXHXUEclyHhBuAxdlXtHL5MsFSQczpHGFmTFBsl+GS5XGASXqMw/SN1DUKWvfw0dAEMlqcDHEa4pgFQ0IXir3RZKqiISLZuRlCAk17DA4bT+RUOXfWCztE9e3oeNVR91VBekCxPEQL597XqT/kbWKoDzyR9KAlrRRhp3HVzThxyWZ+2FbP9VRdzHlxFlATCHeIv0P/qKzCPlSedQYs4ps2TZI03HqB4L4cVmkl5iu6wUgQlztpIJwQCjFpAzzil4uBySNL0LlkTlTNiRhcAR1DVmoOg2caiTL1VBvg2shXjx0lwDRpcOnNZG4Q5y2rKSNVAfHgJFjxIYVy6uKzMNhV0fU64DEeJM6QIr2PwDGq5uRBl+5xi/dRtreX53OmzRCFuOxykPV69L5gGOXo04RH73/D/Hun3+XOyR1QOK+ue7jTYOERQJiM4kqC1OLO+74f1rooh65yaQiOOh8QLLi5T+KbetWVxSZpZLUAYl6W4b9JkCKcNBtweBVz6Ln51EkSmvPIn+L6mlSDexv3u8w0bzvhKq3sWXjerHsjw9qITlr8MDgA54JX3NVTlbdxLJ8kjpA8nbQo8ypHQ87RjQNGyXWvPWGWP3G81V3kkXPr/bu8E3SJDoSFGRWmR4/7m3IrmO1uwHJey89JTa9+2bV/rTzQ9SxEHcBcSzNpGhAwlRD13g+eK3FCIk0maaeaNkVdPkDsgH/ZbGcFIWftJgCL4Rgwd9wnG7wj8q6Y87Dga9hW5HeA4eKkQcfJQbtuKv2FNM9p4HEC0CEEA2u5WEVBUhcMHjLMTUYOgaKYmrI1KObkg5tG3Uex4WpyZp/LBbvP/dEZkpSByThG9QBkqWDHmZOmexx3a28u+AP4qO3/1qxa+KkSaLl2WcrHdtxe8vfYS7RplOJhI8r8WlwuKUi9esrJzHR1rTzHtIn2WHYyKqyTRGuJCPudUASv7rKcRCsw9ve2SE/xpl2M6kGojiD9tjfaIubrgsnlo8bfOfCC8V3LrxAQtLybIu45cc/jqwyb6gvbN4indckGze75JKhBpMN19M52Xzgbugnj5aA2EKSJLpVByTJW+4+h4+DZAFIGnNKdxvrP1wh/wyzY93il4JDoCBz5t4beud77b5HsN+UyoHGA1h4z84LtYmc6UK6YakjKiB0PR0oujBwXH+kDkhGgMzdeYRoEp2JSgszp+CUDtvzwFjlAgyCg07EWAGiPDRmQCpiKpgAsc1z0i2Vg7JNkTNdSFe3ptjmjkpFXry1PZgKO3DsJwUc9zBI8ByWP/mbSNhNz0G9LxeTFVF351NNbhk1XOzWGPo5d+07yEo1CAgVDPWiOlAmTpoooCp8iwsInRsGCh2D1Uz48j86cwqfxsaC3+q2pVOIL7/XNVdcBcQEyt8fnxN0DHHNLDUXy0lAGhrmOwkInw8yY9hg8amm7evxRnX5RYMRBQr2AxIChfwSUhD4Vmvb27U+Vr+GXmJwY6O8BP6PzQSK7rnozB4TIDifphjDUW/aaXfto+YmFw9U2CoiFcoBcXU+COalOw8IvgcybVD/KC5kztTcjzYac6fCQpi8cJ0ZFXlxzQGqoqiHUIOyjdCN7N0ngMQWlLiAUNZyGCBcTdYueSWI5MX1QeqAJGlV3efwOekH9O0jrmseHFmampJOJwzabR/RfMDhom//HULLyAoMnaIQLHwfARInhWaXPl2hWV0vTA1UVRgeJcM1wxTklx9tFA+s2yBsAEEdVr80L6hL3FAvnw/i5KINuDNXFUQdC3lw5+bQxq3OHaeDbVQjLzB0Fd703tIgbYNsdltAYGJBRbAhAnTn2nVBSFg1b3jvrH7PY2yfRq0PgnLjAALoKYIX1/9QI1h1QCL7/8oD4gKi8zui4CgSDLo7XaOyNbEAyNvbOiQYBAmVqzZQ3jtTzx7m61A5cQDhsMc1r3wBBIvHOTmjEC+Mj4VMGTRATBlo9kNUQMJCuGWAwfEns4QatS0gKGNwr0YxuHH7At7cnIKKyFFxpiw4B4DYXiOODwL1oNB2XPPKiwiWEBhcuNrJVU3wYnkkKwoQnYm19xe/VaVbyE5d/e5bMfUs28Op500CCNWEIlpYtemzy/XfEaFj0XhtzTiKYpnCvGGgx3lKPsxHx/14A4iNo85XQcTN6UwslwCJ27vrGiAfuzA1UIBI6vux3o2ib8iQki0g3FSsVfNKAuLqulioXFo/RJ0lRw3og78vjNPZ5XIsmVloXLv17pUoz2x9pxBTuwf2eCWnT58mf32ltVW0vtJqrP+pAweIfbq/97h3n97i9+u7IlgYQYeChG1pzCtf/A/cv7MrK9LLieOH4BxVRXRmFkwsKEmZGzezrhs+ODYgSAuZsXL7dFhAMW7cODHuoHFVtwVIZs2eHQoLPykOIHGjV7iOF6uZdD+Q7YCs3TJPdHZOLrPR6K4dxw/B+aqzrjOzynbSUU8OyI3NQ4xhV/WZwEmf0bamIuMXcEzrVg06fnjzCLFx4waxccOGiiKOPeY4+ftBx58qf+64177i/SWvi/cXvy7eW/J6cGyYD5LGvMIFfPE/nF7dnd5UWjML5agq4gIgqBeZWU+OGWUFCEyq/1q9feyDt/zHn3gs+HX0LruK/gMGiGeeflocfPDB4sNVbQEoAGSnvfYVx3z70qr+CIC0PvpAAApS3nVbluaVsykmuHG+uruLy4+ijiogGFGHwx62qWbWx46dJvoNHBKc4oKjjspQQ5uzU7PYIcRxDgODboqryJ577yNu+tGP5D9sb7/zjgQEoJz/rfPFB+u3agGhsn55QZcPY1IRqncW5pWzA4TdEayRQ/pd5ewXpuiF5WFmueCok5n1r8MGiaOa+lYxrwMDvf+440+VKoAe/4mf/HtwHqkIFOT0r31NKgi2X993nzj8iCPk/089+eRIQFDmyvfe1TrqPca8qgLkw42TG3r12p5YE9pHF7uTA4Irx007QS7WzhM+X1FpFxx1amxqCNukGDCLAAbf0JjJdyAVASAvv/yyePaZZ+ShF333u/InVGTqaaeJhtF7iYOO6/JB1I2gi1IPnFfL4V3cX8VHPPEH1xZvoJenmllRg4Y4Lyqa5ZofInv3gQPEW9vatVNudXDgHJ2KwEEf1lyduwZADtxvf2leqaDRsw5TDxzTU8wr3GvFZ6AlII5GslC3rM2srAEhNbDNgqUGyfOZTLqMiJOpx8c5rzz2gHjl0Qfk6aQi8EPULQoQKsfknKcxr3Qf7nRyghQ9tG4HHb8G7qHLgMSNZqkqMvQTh4pR+08M2kzWjjo1Hphzg/c6qGparqnx4+983gjGIPhyn1Fw8J6fTC34IjoVWblihZg04TCtgpAShQHOo1dxzSsvvknIXhJ94bYCEBe/NMUbVtxBQ3V+iBruzdJR54DA30mjUNQQbeFQTS2uIruNHi0ddDjqbyxcKE464UTxtZtnV/EaZVrhBDXJMgx6dZ869uFy9Ap11wIizSzHVlnkDzqus64OGo757JcrlrHJExDUOwkk3IzRNeSwRskddlKRc84+W0w6/HDpqJsAiXLMSeWymvuB8pw2r5j/UaEgrvshcZ11NcNXHVXPMpKlKkhSQJKoB0HDHXadL/KLu+8Wd/3qvqoxEIx7RPlOPcm8wvMkB90rQFDZuCrCo1mqH5Kkhzf14FkAwh32OOYVr5NORSiidcWll4onW16qAISONznmPVE9uHlVBYjrfkhcFVHNLO6HuAYIn99NjT4uKGEqogJiY1qlBcQ351z1P7wDRKciYeMiKiA7H/lPwQrmWUayslYQrgqUWBgW6rVREQDy2qpNQcjYxjFHuUnNK+9Cu90PkZtXVYC47odQQ+ARLfzNNLoe5Ydk5ahnAYjaGFVzzhYUk4pgwToaJKQxj6iZgzxogPrEmVrro3pQgiJ/9lVpcq6bWag8XxYIv4epSJgf4hogZNLwpUx1oESpCfkW5Kxv3dYuQ7yUxYv9UY65CmxYciKtIWxaSxhluR650plXWgXxARBUXFURU6ZvmB+SVSQrKwXhMEQtPId0kR3H7qsdZVdVBJOpZsz4ngQEKe2mZEQVRu4XqYODNlDw8lwf+0BdVfNKC4gvZpaqIiZTSwVk9xNODxaRy8pRzwMQ3riiUlJ05helrdMU3FmzZsuJUkhLiTKtSMn4yvUwr+JAoftWCsp18lNrkoSG+SMG962aBKOdieCLiqhhX52pFeaH+AIIwRIFCo4jWPgsQUzFpfnpNlNqo/whVWkC33DSJPl9FL5g9y0/vrniOymuTpJSw7t0T14DojO1dJBwP4QPGCaNZEEx+OcB8lYQtUEClG0ffVj1BVpTw+V/t1EPGxB5mQBCBYPvnzrltIovb7lobunMK6OJ5YuZhXqqYyP4mwqJyVFPAgg1HgACR5cSDGGO8LknWamTrtFTQiN+xgUFdaYN56p+jw1kYYphOl+FxCmn3WBehQLii5mFm1BNLfyNO+1hiYtJIll8bIAgSQoIb+wVjbW78fLs3jiNN89joxRDd218lg6Q0OaSL2Iyr2oGEJ2phb/R+EhYJCsJICibQ8LT1Gm0niJkspdft32JHuq1XWz4YVAlgUItj6uIS76IybwKBcQnM8tkatF0VhUQvpBD0lAvB0RtCOq8jjx786zKJsda/Uovyn/o4YfEx/bYQ66Wom44Ho44bXF8ERdUJEw9IgHxyczCzehCv4BkyqD+AmYWbRyQOL4CqUFcu9/UiHm0p/L/2yd30bnqp9x0DbVPn97i9YVd61tdefkVwSFYZXKHMXvK3zu2bJI/N65YXvGFXnx8lF+Devspp00RZ5xxupzGi4lYtBEY+GmrLqqZ5YKzngoQ31QkDBKEe2nb7fNTRNOQrnnbtoDwtAs1gqUDQG38+F6hbWNPqgqYVvvOsn/I09GgDxs/Qf5ft4DepjVt4u0/zA0upQLCw7OYX8IBwWfkSDXU86Lqzr/yW7aZFQVHpILgAN9UxAQJf3G8wdgAgq9TDRi6vffkZXW2bxNb1q8VK17+o/Q1or5yG9WA0u7/26K/BkXQSoo6QDavWyPeenz77EK13ry354CQcoSZUmH34FI0KxNAfFQR1FkX2aIXFxcQnKf7XjhvCAjtawuXAAAJJ0lEQVQZL33kHvmd9ChzKC0EYefbAoIyFt1/W1CUDmzq7eGDDB4yWGBJId3G/Zaoe58za1aF+VemHxLmnNN9Wn1f2UcVCYMkzWAhQMHWp2lAxXcPfQIEdd2weqX44OmHQgGh3v7W226VC2NzQLgPgkIIDCgLbTpY3njtNXHSiScFx5QFiI16WJlYdCcuz1cP61F1SpIGEN216AOhaHAuKcgVV1wlR7Axm3Loxw8QWzdtkP9odXseiUNjRt35Rn7IxZdcLI4+erLgywmhXHLQOSBh74J8JDL9cGxZjrqNesQCxNX1e23MFRUS9RNtScdC1GujwZ33jdNl2kVZGzexCBBTarsaql6y9M2KapMfAniuueaqCkCS3B8Bgsxiyg0rw1G3VY9YgOBgX1UEdechYHU50iwBGX/AJ6p64iSNKek5HJCf//weMffeuca5H2rOlQoI6kB+CBx1Wjk+ad0QYQMkVC+UUwYgtuoRGxCfVUSaAeO6VhysA9LVxFVAdOYhB4SHesnEanm2pYIXCmdDdVQfxAVA4qhHbECkiji8RGlUz0aAYBzj48dODQ7PSkGowel64qi6ZbWfGiHKi6sgOkDIUUcka9ROOwaDhboRd909cEhI3Z5teS6IZBWtIHHUIxEgvka0uILg/3yFk6wBKdNR54AsXrxEfhPE5IOoc851oV4TIHGB5oOYHJAinfS46pEIEJ9VhE/TrQPStS4wnzWoA4QiWb/9nwfFgP5NFflYTf3N367v378yb4t/6aoMQJLAkRgQX1WEA8LzsbJWkDJH0+MoCBoAn3dO9aYvUmE/ok1QIYyFjB27V1zh0B5P0TXsLGochL73EfcGrAYKdYX66LDnDQj1yLoxhbgvJunxHJANGzeJfz75lNAVTDggqPeN/3lDxcc/yUzLChBkBB915FHB7RUxcSqpeiRWELo738K+HBA+WJiVglCPXCYgq9pWig/b2uQr2rp1mxy1DlviR13RkX8QFGUQZBgsPPLII2Nxi+xidSvDvIrrmPM6J1YQFOKbiugASTLtNqyVUIMrK5IVFxB1sFAFZN68+eL6H1wfCwwZEJk0SVx++WWCQ0JqRIW5rh6pFcQ3h50DgjkSIw76tOjVt0lg0lRWW/D12pKSFtMCgnAutrVr14rrr78+GPEOez6AAcsLjdllF9Gnd+8KKOg8FbRColchc81t33cqBZEq4vAHQNWHoC42h/0YNGxsHm37vCKPI0DKctQ5IKgs8p7CTCybFUwwVoFt/KFdc1peeL5FvLjgOfl/TKiaNm2azPaVYK3ZPjFt6dKlYtmyZVUKVNTYR1LHPDMTiwryxdQKS4G3WYozkg42Ol2WH6IDJGwtLBUQggE9PLZDDu2Cg2+6lWRsno0sb8JhYubPZtkenvi4NI555oCgQB9G2KNeLF/KJ+mb4Q2uDD/EBpCwZYNsTR/d9GbTM+PQ6YBL+qxN52UFB8pPbWLxSvoACeobpiTYnwYUPvhWxog6H7HGvVDmLE0TjlpNxRYQXeNEB6RuRQChXjNN1EotK1NAfPJHbHrApKBQJMsFQHjmbFRPXZT5E1WPNPuz8DtyMbGoUF/8EapvHqAQIGX4IaqCqIDwdXrpGUA1AEcZvX0aGNRzszStqOxMFYQK9cXU4g8YoGC7a+ZPQt+ZjapQJMsFQCi8St8KoZubPWu2wIrv2GpCOYS4euSQfldlCVzmPkiFP+LwJ6XDHqItKOSr4Cdf7xYA8cG3oh11VUEIEHUAEDlW8E9qBZAs/Y5cTazA1PJofMQEjI35FdVjleGH8FmFPQGQrP2OQgDBRXzzR8JAsTG/dOeXMWDIAaH0jhtvvEGuTMI3vnhCEWkfUZ1Jkv15+B2FAVJLkNBDi2OC4Zwy/BAOSFvbKvHV074qogApKu08CQSmc/KGI1cfhN9UrSiJ7kUh9k9pF7RfdfSL9kNsAeGri/gGSBFwFAZILSpJWE+oDkQW7YfwOSGU8q5GsVB/HslKM0CYpSrYlFUUHIUC0pMgcQkQPHf4GlGA+BLqLRKOwgHBBX0cI7Hp1fgxas5X0X4IV5AwQLwL9WaQvh73XeYyUBhViZ4ACVeRogHRJSzqFIQDgnfmdCSrBDhKURCCp9YhUc2sIh11HSAI8SKSpW481Ouso14SHKUCUus+iWpmFemoq4DQiHkUIC466kX7HGoHUoqJ1VNCwHwGY5EDhraAqCaWa4CUDUfpCkKg1Oo4SVl+iJqPReFcriCtra1BsiK9B5cAcQEOZwCpVXNLNbOK8kNMCYtRwRNXnHRX4HAKkFqFhJtZRfohuoRFEyAYA5FzQjTzz6Ogynq/S3A4B4iEpAaygHmj4WaWS4AUPU/cBqQ8s3Jtrq87pnQn3VTxWvFLuJlV1HiI6qS/+eZScc7Z58hH7ZKfEbz7EsO4UeA4C0itmFxF+yEqHHiOHBDXUkpcM6mcC/NGEVwLJlcR0SwdGPRsKeUdvzsDSEPD/M729qtHDus/P6oNlLnfaQWplfESdVSdPk+Wxcc+w8Dgz8+pyVEOm1TeKUgtQGJasI5AwXf9dN8UN/WcgAIbreJuOg6mFZb/5ItPl60grptUXgMSRLkaG68UnZ2Ty5TeuNfWrQuslkGQhMHS3DxcvL5wYcWpC9nv9HllU/1Kc9I9Mam8B4RuwLcoVxYLQMSFUj2+LDh8Uw3+3LzxQUyNw0dQcC98hfS0DT/q/LIGAn0Gg56p94CQ2SV69ZrcIMSVUY3Fxf26ee0AiG80750G+HT3QZ8nwD46rpTRcU/NKd0zrQlAfDW7XIQ1VZ1qCIyaUhD1pfpmdqVqlI6cXAvmVM0rSB2U4mmpVTBqWkHqoOQMSg2aUqYnVlM+SFSzgOmFY3x15qPuL/f9PQiMHqUgOkWpgxIDpx4IRo8GhDcN6dA3NHzGt5H5GM072aHdUOBk1xMKk92g3Vk9ysSKeiQ9HpY6FFVNpA6IgZoeA0sditB+sw5IlKx0f+ekZnyWhgY5/wJzMXq6+WTx6rP9DLTNBWvhmCAa5oPvwoDoyb5E0nZXV5CkT46dh1mPyAWTKgNoZBddcDo+gdDZ+ZS8fkfH/DoQ6V9uHZD0zzC0BA5PBUD8LBNM3Y1evUAnIOjoCKaq1kHI7yX+P4Igm624TrfCAAAAAElFTkSuQmCC;" vertex="1" parent="qA_CRGKP_DHO0OBm4st0-23">
          <mxGeometry x="324" y="229.00058823529412" width="50" height="50" as="geometry" />
        </mxCell>
        <mxCell id="qA_CRGKP_DHO0OBm4st0-60" value="kublet" style="rounded=0;whiteSpace=wrap;html=1;" vertex="1" parent="qA_CRGKP_DHO0OBm4st0-23">
          <mxGeometry x="312" y="190" width="74" height="25.29" as="geometry" />
        </mxCell>
        <mxCell id="qA_CRGKP_DHO0OBm4st0-61" value="docker" style="rounded=0;whiteSpace=wrap;html=1;" vertex="1" parent="qA_CRGKP_DHO0OBm4st0-23">
          <mxGeometry x="496" y="190" width="80" height="25.29" as="geometry" />
        </mxCell>
        <mxCell id="qA_CRGKP_DHO0OBm4st0-62" value="kube-proxy" style="rounded=0;whiteSpace=wrap;html=1;" vertex="1" parent="qA_CRGKP_DHO0OBm4st0-23">
          <mxGeometry x="402" y="190" width="84" height="25.29" as="geometry" />
        </mxCell>
        <mxCell id="qA_CRGKP_DHO0OBm4st0-64" value="" style="shape=image;imageAspect=0;aspect=fixed;verticalLabelPosition=bottom;verticalAlign=top;image=data:image/png,iVBORw0KGgoAAAANSUhEUgAAAO4AAADICAYAAADvG90JAAAAAXNSR0IArs4c6QAAHOBJREFUeF7tnXusH8V1x+d3ubavX5en7Rjs2DgUY5niiALBRI0NVERqMEGtK6G2qG0IUqIqVZHSquo/4H/aqkSqVKmiEo0a1P6BKiulNqhKIhKTNnYFLY1BBgMJJhjjEOMHNvhx/fi1Z+9vfsxv7uyeM8+d3T37jx+/2dkz33M+c2Zmd2d7go9GK7B+0+Z+7Ab0emLLzm1bH4l9Ha6frkCPXpRL5qgAg5ujV+LbxODG1zjqFRjcqPJmWzmDm61raIap4E4tXy3OfHI17USk1MIfbRuW4KFyEEmDVsLgBpUzfWUquCc+e4/48LZNQYxY+uiDDG4QJeNUwuDG0TVZrQxuMqmzuhCDm5U77I1hcO01a8MZDG7DvcjgNtyBjuYzuI7C5XIag5uLJ9LaweCm1Tv41Rjc4JI2okIGtxFuKjeSwW24Ax3NZ3AdhcvlNAY3F0+ktYPBTat38KsxuMElbUSFDG4j3MRD5Ya7Kbj5DG5wSdNWyBk3rd65XI3BzcUTjnYwuI7CNfw0BrfhDmRwG+5AR/MZXEfhcjmNwc3FE2ntYHDT6h38agxucEkbUSGD2wg38apyw90U3HwGN7ikaSvkjJtW71yuxuAaPHHbPZsf6ffFhlychNixUf7OL9I3xGMBzGRwDSKu37T5B0KIIRABdG50FW3fumbQUT/c74vb/+vprTua4CwGl8FF47TN4EpopQhNaSuDSwD3+CdWosFNKTD587eGxWBjt1DH7P2vFVWFshPqUm1tSjDb6nnr3Zs39noCRlcjRxPay+Ai4AIMez7/e7YxYSy/9jtPDIE4fN/XRQh4AdrLn/xGcb39n94o3lkXZmq+/oktwzY0IZBdHFQ1Jcq9zQwug2uM+baDqw+Rj/3yBnHJy881JvMyuAxuJ8HVN5I/9IePiXNvvyqWbv/bRsDL4DK4nQNXz7YHN/2RGP/kmkKHpsDL4DK4nQNXzbYqtFKIJsDL4DK4nQK3KtuqQpjgzek+L4PL4HYKXH0lGea2ZUfO8DK4DG7XwB1+T9g0TNbFMMC7Y9f2rbe73H4KeQ6Dy+B2Blx9mPzuHzwqZs1bgPI064dPjtwqyuEeL4PL4HYGXJthsirK2ZMfiiv/8U9GdKp7vsvgMridBBceuDj7ufvQbFux0lzrkJnBZXC7BK7V/FYXRh8y15l1GVwGl8El5l3DkLm2rMvgMridAFd/E4i6MJVr1mVwGdxOgOu6oqyLk0vWZXAZXAaXOFSWxfS57q7tW5NzlPyClhrVUly9bcDv4wqRw31L30DQh8pVT0xh19Kzbh2LVI0HFxyCCW37e68nHpZ7TjG4hXo7+n3x8Zv1toKWlE+5v1NIcKE5i/7uq8NWMbgOAaG/V+lQBXpKqC1hYm9dAw2JYSsqkFuBpCuyoRanSobLSdsCNjQ+46YA1y0u+SxEgaTBHhlcoc5z5ShwbExsrNrmt9cTwy03dm7b+ohNxDC4Nmpx2ZAKNBpc08sHA3F8p247AGgM5FaBC5ulHV+yIkhwwcZucMCGbic+uylInQt/tF3IHRlD2Tr53s/E8h9PbwUMG6JPLb82iK1yAzoYeu8PtAHd8t3PqbtHJgUXRMFeoLcRzvT8ss35lLKwKAjlTBC3DtzQuxwCuLAjY4gDYJDgws6RIeajMG+WnUyMLxnEWpyDBa/Ur8ep4No+q6z73wbc40tWGcNn8r03qWE1IwszuCXSyV0OGdw429PWBO7wCxUxwJWA7l93ZxFVx5dcTQJz8r194uIBxMt2P1t5jrw1x+AyuEYFlj764HTwRdpXum5woW2ujz3CuXKOC7DagorRvPylaXjLIAZ4GVwGtzPghlxZhqHyR0ffFe8vXIRx6Py7zMQ6wAxuhaQ8VG5fxtUXqHyGy0fOnBZHzpxyhpJ6ImRfDdxibYAzLmfczmTcAbgjX2J0GS6ngraw95/+fMQ/PMdFujzOuO3MuPpw2Tbrnjp3Thw4eYKaML3K6dlWfWacMy5n3E5lXN+s+5PjR71gpJ5sGCKPPJ3F4DK4nQPXNetCpoWMG/uARam1333cOESW/8ngMridA9eUdbE9llPNaynQgv0MLoPbSXBNH7Uug7dOaMvudzO4DG4nwTVlXfg/Hd5U0JrmtFUPqTC4DG7nwB1k2+FmCaoAKrgpVpBhaLx897PC8Nxy5bPcDC6D2xlwq4DVs21saCuABVPQFzAYXAa31eACrMoL7cZ3ZeFe7smb7h5+RygmtAiw5P29GFwGt3XgKpkV2lb6YrsOLBSOAa2EFeqveJWv2NeLug8Xg8vgNhpcuU3MYIO/SlBlQ03Ayt+qHrCABaQPSt6tVUWEV/Qmf76v+C/CO7dWwMrr1AYubFBdwozVf/f7xY6MxRFyt4Ym7oARcreOFDtgqHsuYU7X9m5y2h6mCli4ftUDFiWrvpjZVb87AVsruKZ7aD4K8LmsQJkCGKzyPOypKP1hf0fFh9vcUofEZdepJePqn4NwFIFPYwVmKACgnlq5TvSvWE76aDWWaeF3x2xbbAQGo4oLF8QOX1D1hjK4HPyNUgDAlAcACgdACgfl6/J6Y7FMawIX3tIBGE3ChQY064y76/6/qAyeayYvbVRwsbHNUIACrf7scC6fY8ki4zK4zQj0NllJgbYs22J7HqfQicFNoTJfIysFqNCC0fqiVB1f5jOJVwu4I1/DW7JK7LnryzxUziq022kMPFxxZOoU+Z3aqh0o6laoEeBeNW+hmDs+XrdWfP0GK+DyRFSu2RbcwOA2OBjZdJoCLtDmnG29wIWHKFyXvm2HypxxaQHKpWYq4AJtirmtDz9e4A4eothg82C0lJXBnRlg859/Wnx0y93Zsgf2TV11rTh7VZiPiqVoqOtL8LGzLcQ/5Yt8VRo5D5XVp59s723ZgnvZnLnisjkTqK9nHXhdzD7wetYA6I0Am+e/8IyAP+E4du9D2cFxyVN/k7V9psCQ0MqH/Ms+vGU6N9bcVnsfGH3nNgq4+gelbeCNAS5khHkvPJNt8JucALACFPpx8uYvZNH55G5fWWCr0K797j8Uxd654c7hN36qgIiVbU3P5/vcWnLKuFXPGlMA1s/HHsCAFWWY55YFv5qxZJlcgt/GZrUs2A9HHcNnfRRQFug5aizv0cJ2MMsGH8+S9kPWhS/oyY90pci2VbtuUFgp094aXOoLAlVG+YJLDSxodC7BZWNzXQA3wcayQJb3aKENy3d/H30PFjIwHCrEIbNtCE6CDJWx/XoqLzL4srZ8S0IfNuy568HSb4nKOcrVRw+KWe++MZxrVV3P9JvMYCkWWOR8FUYCcMh/29psGkKHzsIS1hh2ptJ66vx5MfH80yisZfrLTKxnaOpQ1uVlfs2WGR+uxmIFzbg+wGIXHw5rL71SHFm+RsAD3fIg7BxArd5YDlZHz175S8VvEGDyoKyaqiDCYlgR9O++ERRSSuNkZ1TVBr3TAHvrsFXVW7XXVm84V3aIITubEr2Hr+bB79rL/PIUp5f6TdeDUSr8P+VZaCO41D17KMHFZVgBVsBeAQziAlwG1V5YPoMVSKhAMZRWszE6VI5lnHo76eDVN4q3lt+IXuqiSybRMlyg3Qr0z50TFz48GayRk6ePibXPbx3W57PSG8woQkV1gjv8wDAsDuxZfQdq7tiCeaLHLxugOrW1QP/0GXHh9JmgzVv/w+n7vPKgLkgFNcKhstrAnXFL6K6vCXH6VGUTAFqAl4/uKQBZFrJtyGPR4X3imj3PNi7bgsG1gavfEnph44Pi3IU+6hceLqMStapA6KGxFKepQ2Rpf23gggEu81weLreKy8rGxBgayws2dYicC7jDeS51gYqHy+0HF7Js//RU8KGxVG7tS8+IyWMHGzlEzg5cMGjX56q3sJFG83C5vfDGGhq3ZYicBbiu89yxiTmiNzGnvdHbwZbFzrIgqT6vLZLF9q21ThddXV270S7zXGgsZ11Xl+d3Xsy5rNpafV7blHu2Jo/lAO5wnlv0gITbQlCOs25+ANpalCLLtmleq+pbO7j6cPmlX/uy+GiKFgJNWWG+adH8okH/fegjWsM6UCpVlgUpm3y/tiwUagcXDJuxIwbhKSo4L/cV5q+uWSy+smbRiPZ//+oh8dirv+gAmuYmpsyybZvXZpVxdXDh39SHMYohc6aPQUpotz31b+L1va+J1/a+Jr7+Z38qVl+3utB/3bf3dA7eGE8/VYloWozq98XtrruT5uSwLDKuPlym3tPNNeuq0G5/atvQ349/65vDv8Ow+YH/eCunWIhmS8phsWyECdomL0bpzskCXO+sm9ntIQD39t4R8Y2/+usRvTfde4+4594vCsjC8Gfbs27qYbEUe8650+LGnf88on2boC0SVrRu1rJiPev+9Fe+IH4xfym5lpxWmXf/xtoCTjXbqg2B4TIMmyHjtnHBqi5gQePxsZ64ecfjrYY2K3BNWZf6JJX0Ui7z3W/+6kqx8PA7MzKutFNm3rZl3DqB7RK02YHrm3VzWaySc1wYKsOilH60Ddy6ge0atNmB6zvXzWmxCobLAG3ZPLcNt4VyABZ8bprTCiG8vhRAnqPVVDCbOa5sv88Ks6wjh/u78NAFDJnhULMuzG+bDm3xQvu588F3o3BhoIvQZplxTVl3zy2bxfGJS6z9mmLO24OX//t9Mbt/XpwZnzXDRhg2w3HTFdM7dzy291BjF6RyybBS5K5Cmy24IYbMwwWrCLeKANYrDr8teh8eFStf/v4Q1pfveECcWnCxdQeT+wm5AQt6tf0+LRYT2Q2VQw6ZfeGFgB0bu0jMmjolLj5xaAaouri7f/1rxqyLOSHX3+HBif6589FeaHdtd9ehzTrjgnH6hnIwZFaPM+MT4vzsuST/9+bNE/2xsY/L9vti7Px5MT74r9nHD4uJ89M7CF7+6s6RHRIoF9i3/jfFoUUrKEWzLpNjdlUF018YKIK4J7ZQdv/PWnhL47LNuLId6gsIlm2LWvyGLz0k1n/qSvG9906KJ9/6IOq1UlSeO7Cggb7lTFehzT7jgoGm74qmCGT1Gp/57S+JUxMXi9+9efobQ5fOnT38+eipKbHx36e/G9S0owmwgqYli1CdzLQyxrLPuGCo6ZOFq675VNGGN3/yUy9eNt55hziyYl1Rx20rF4tVi0ZXr1VIyy70l/97QDy575iXHalObgqsUg/TfBbu0fb7Yksb3vJx9XsjwDXB+5n7fl988ZbrXds9PG/+3Lli3twJr3pyz7oSVmhk6E3FvYSrOBmeOV72s/8RS/e9qJdq9YMVVD0bAy40SJ/vhoIX6gaAZ42Pi1mzxqnajZTLLes2EVYky3Z6aKwHZaPAjQ2vFMcV4jpfGmgyqFL3iiwLz7i04gV4p6xgOKlx4KaCV4UY/k4ZTu8/cVrc/T2/OTfFscPhbnGPNb/7rJQ26GVK5rJQrPPzWZOejQQ3NbyqcJCN4YBhdfGnNrQOPWSWzwUDoE2ao1LhrcqyXbw/S9WtseAO4B35ShisNN/yW/eLGxYtoLY/WDkAePbgWeVb//UVIcYvotU9AHIaymk42wioSYyV+180LT5xliVETqPBLbvHe8MDfyzuW7uM0Pw4RX78/knx0H++HafyFtRqevpp2GHxXJbk4UaDK1tous9bN7xP7H1ffGvv+yQndKVQxTy2yLK7tm+9vSta+LazFeCCCCZ44XbRilWrxKcHr9T5imV7PsM7rRg8+XTNK8+WPf/Ni0+2gZXTZnEOts84xQQvFKoz+3YZXhgSLz7wCgMbIri1OlqTcWW7BvPeh/9/6LVRbSssXN26+XfE9YsnI8hYXWWX4K1aJZYq8Wqxfwi2DtyqeW+d2bft8DKw/jDa1NBacMvmvVKcOobPbYMXYL300JtVw+Fi0anrLwTYAEkt22pwsexbRwZuA7yw2LT04Ctl92Cl7AwslUKHcp0ANzeAm3afFzIrHCVv6+hhx8A6gGh7SqfAxYbP8PuN939FnJs9keQBjpyzrxwGzz95FMusPBy2pS5A+c6BS8m+sgxAfN1Vi6OuROcCL4B60dQpyhB4OBSGv/D8NQCFDlV0FlwV4EEAwi2k0gMWs+BY84nLxLrLp/dIDnmkBtgyo6pN5aFwSMc71tV5cFXdyh7gMGkrh9ShQQ4NsMykkx8cFMRhr97cHb2eeO7CBbGjy1vFOPIV7TQG1yAtAEzJwuqp8DHu65YtESuunf7iPADd7wunxy0BXjgozzrLhSMY5sJq72WH3izONWz5YhNEnFVt1KqhLIOLiO4CsalKABsOgBuO03MWirMTC8T1S2Y+yTU+dboo8y8vvlFkSfWYf/Sg9Z7PSBN3DDqpLfAnZ9UaKHS4JINrKVookC0vG6p4ASkPfUPJWV89DK6H9vBc9NjYx89E9/tig/6MtEf1PqeOAMqZ1EfKPM9lcCP5pQRq/WojL0IYTCkA1A/ImPB/sGCk/sbD3EjOzLBaBjdDp7BJrACmAIOLKcS/swIZKsDgZugUNokVwBRgcDGF+HdWIEMFGNwMncImsQKYAgwuphD/zgpkqACDm6FT2CRWAFOAwcUU4t9ZgQwVyBbcwZs6G+TDBju3bS0e/OejHgX0B0rYH/X4QV41S3DXb9o88k0gMJa39KwvUMped+RPX9bnk+zArXondtf2rdnZW5/r0l3Z1JEOrs6fDUnnhpErZQdCRZDwx41rCpIqn3BnWo9TGNx6dG/MVcu+iCgbwODW40oGtx7dG3NVBjdPVzG4efolG6sY3GxcwXPcPF2Rp1UMbp5+4Yybp1+ysYrBzcYVnHHzdEWeVjG4efqFM26efsnGKgY3G1dwxs3TFXlaxeDm6RfOuHn6JRurGNxsXBE/44KzXXccrPvJKR/b63Qx2K1e31V/vQ1NB1fVRW6l24bPqXhlXPnGyGA/YfB52XajxfdnoAD2VkkqcF1sp9ifAt4BTPIjZaQtXkF/THuT7aHBVWzfCC+OxIBIvllG3OO6iE0XbWL5WnY20NFobA1ttQZXCfjKr9shjSoVKza4auC4Cl/Xm0p12B4S3PWbNv/ABFOIt4xCaVNX52xp/w4yuJYVk5gAAHShYoFr2QuT7U/RU9t8RZBkuMVrkqHALYN2YK/zW0Yx4hJsCtGZUHzhaj8J3BiBozZKzWChwXUVhiK6LBMrA6ewHQvQEOAi0IKMTuCmjEubeKCU9fUtCi5BdIqdlDLFpx17PQHDKeOBBZl+UmzHlnU+lMZiZTBgsPOpv2OaYnZgbwcR48cKXN+gp2ojRwMQl6EW+6DOEHFZCm5icUhaYkGmVhJCHJJRSqFQmTex7ZXQ+IBLhNZqd5PE2gy9m5lvzXNczFm2AR2qPBXcupwL7fR1cGrbMXuxWCjLuG2CVsYvNf7K4p2qCcJL0dEaM67DBYpVYvn1OBhWqEvaYEi/L3xWoYu2UIRzCPwR2+E60n5538/WdgyGMse42A7DOGmzaaqAaY9p6gIuNX5sdMLsMGg69KtpmOt4d8RqSO85Aqz8VOoMcG2Cx/Y+nE3dpuDGgsyy/mJOTZ272K5KY7bq7bMMTCvblXmV+v1eUh2YXXrGjQEt2F+1aKlpSWqXB1TW8MaIyxFwqRew6SlNAFKvo59bBQMWYEpd1o51dLKVg6mBadsh+E5TMF1VcGNBS42XVHFpcx1MP9e4HIJLvYCN0VVBQ3WGWkdV0BKDxgqmKvsp16NqRdTCq8NxBRiLCwkuRQ/XNQBKpxaqQ8PaazvfpdhOjRPVh0NwKcHjcoGqgKGKhIlFsd31XqEvvJSAIjg3WIdjCzDmIwA3JrQU32K3pGzbPBiaG5/ywmLRdnTmytQQXCx4XC+AiYYFBiXj1uVcioOxDoNiOwV+TGfX3wn+gUUU7Hlp59V2LC5jaEPxCYUHzHZKHWV+K8ClGBqjV5NGUa4PZcucFFMgLOAJgS2qtKvTdqxt8DulfVg9rgGKxYVrvb6jKMqQH7Md69BRTQdZY8YnP0bG0z2xJfYzuZThlglcTKAYztVFxWwo63Cw8+A6MTtMLDhCgOujP9KpBZ0+WD5whF4b862PLkXHgfWovhegBAc1QEwAYMCnCnyXIIvtXKr2VeWw+Kg61yd2Umpj20bK8LwqHnx0kXpnAy5lvlgCbuloIYRA1OB36UCw4EzV6cQA11f7VNpg19G0Ia3sYx2BrzZFxsUMTxk8mC05g4s5y3a0EMK51E4nNLghbI/1GqDaVizedGjhUUOKpli9IZjCwEXH8pSGUMvYBj9WPoRAVNuxtQLbTocyHLOxzbUsprGh3iAxE3uoicHls8aD1B1En8p7cCF6TpuAwYJED2ZM/BrALb33Z9Iy9LvHNlpTy2I+cc1KPlneNy6xaY0PtHBuVVz62j6c41Y1ItRFqEFim7VS9GyWtpPBxYBI3emUtROzUzkvSCaB+rBrusal5cqxz71nchzYxNdIh8Lguko38zwbLbHgbBq4Ie3FtHGZRmB16t50uYaswyYOXKMvq6FylzKubVtdHex7nkXAB8u4obWxaANcmrRyXKVr7eD6Pt1hGzSYwHqvblve1h7b8rYLKjzHLVfYVsuymrB1kBhz9CTg5jRPxERuMrgduh0UJPOGuB2ExZPvIlRZZ5EE3JyylksnkkvWwoLEFtzUo50Ai1NqFd7w+oIbe+W49qEyBq7PJD3kULMskF0eNbS1i1IeCxTT4o0L7BRbQpbB4qPiWl7wYtcN8G52YbrrCnX24Kbq+bEgLhMYAyZFx4PZDk42gYsFZyrtq4KQYGPV6V7w2nbKtrbGio0kQ+XBCp73S8O+vbzr620EZ3kFD6VdGLhVvTrW7pC3WSht0csQ9MWqddbfplO2tNN75bj2jAsGUBodM4CwwMcyD+bgGMMh6TiC7dj7uJWdZkzbMeKosUGoxwleQlwW9VJ8oNjoZAuhjcMiyTIuJeti8Ng0TC1LER0LXkodMYZFhMBC51Ah6nDVnnIewT7SDhiu8YN1ylAvZQeOWPNZk4ZJwSU4CA1CSiDYQls2P1TrodgO5UPCS70m1ukQO83g2lN9hbXTZs8pF3ix61PbQfEDtS6sXFJwqQEU4skSuBYlS9r0kqHrq3KORTCRhmXU+lIGn2w/ZluiXR4rpxMYSKl1Sw4u5iRVIB8xCMOf4lK214hVr8sowTbDUzseF100CB+mfmQczsNiIsW+ypgNVeBSR1mDaxRf25Bf5aBulq9fPzm4NplwYCz5a96KMOiOgFII2wUxWwfbdAwDsNQvAVR29DZ1y4qoHY+qPeWL7hXaoyMCTNNUXzLA7DA5A4MWi0ns/LIAqAVcB3il/QXE8A/5DSH49k6/LyDY4SADa5utXDOict7Qdmm/j+0u0FKyGzIkHGkDVXcsODFgXB4ske2w1clmVKJpVWijaEKNR7RjM/mkNnDBGMveH4kpu59tHarX7uFgO0MNpRtoe5TPbFJ9YKtX6ri0HfVh7Ni2tywgKz9sTRXfO9qVCrAMQL1WHbaHckpK2zGbXTKu9BG1HbY+p9ZLjZWqco0E12PY7KKZ07Ck6kIpHWwbfJhAGDDY+dTfY4JrET/Wvk/hW0ybMo1rHSoHmDdSY8d69Zhc8cerorBaaDXHtriGddBZ1E2+bWZTp1IWtR3rQCgZiQAZaocLJI6ayNOi2OTaGehtqRwqJ5g7Rn1mNHLn02TbrTrLsuepbYIw5gZqUDf42vYD5CVge/u1KuOGGplZgavNXci3RjSBvIXx6UkDOLk2+0PYPghw8ge9oXxZ1rUNwjJ4KVmb6nNCdi+rKphfy/Sy6eiw9jqBKysFA+G2ify34RYEPEc6vKENf3e9qY01xOV3CcIgmPXbVoXtqv2Z265PBYJqL30NPvZ5QEG5H15o2+8Lq06E6mc1NgdxKfVJ5le1raHb+X9e2rKXCMkRlgAAAABJRU5ErkJggg==;" vertex="1" parent="qA_CRGKP_DHO0OBm4st0-23">
          <mxGeometry x="420" y="238.1952941176471" width="37.625" height="31.61764705882353" as="geometry" />
        </mxCell>
        <mxCell id="qA_CRGKP_DHO0OBm4st0-65" value="" style="shape=image;imageAspect=0;verticalLabelPosition=bottom;verticalAlign=top;image=data:image/png,iVBORw0KGgoAAAANSUhEUgAAAMgAAADICAYAAACtWK6eAAAAAXNSR0IArs4c6QAADlhJREFUeF7tnUuPXEcVx6sdEgcI4ySGEGRsTBwrjsQEECgsUOQRUoRg56VXsEmExAq+gO3Ad0BhAfKKZRAbhCKUGVksSAzEGAlLE4fY1vAQcjxjkwcJ9qBqT83c7rmPqrrnVJ1T9e9N4um6dav+5/z6PO7t2xODFxSAAp0KTKANFIAC3QoAEHgHFOhRAIDAPaAAAIEPQIE4BRBB4nTDUZUoAEAqMTS2GacAAInTDUdVogAAqcTQ2GacAgAkTjccVYkCAKQSQ2ObcQoAkDjdcFQlCgAQIYZ+6eK1JWP2LJ1YPHBayJKwDGMMAMnsBlMwJvecMmZzabqUTXPG/gegZDbM1ukBSCY77AJjfh0AJZNlZk8LQBKbYRAMgJLYIv2nAyCJzBEMBkBJZBkAklXo0WAAlKz2QwRhkv+li2unzcScYpoexTybsKhBWKVlB6MloqDjxWdSRBACbcnTqJg1bZozACVGONQg9KptzSgCDEQUNvvaiRFBIuQVCQZAibDk8CEAZFij7REqwAAoARYdHgpAhjUyKsEAKB6WHR4CQHo0KgIMgDJMQc8IANIiTpFgAJQoUABIQ7YqwAAoQaAAEGPKqDGCzN4yGNdRWhWsGpDkV73HOnGK4wHKjMpVAgIwPEgDKFORqgHEfaWV9QZCD79TN6RyUIoHpMrCm4PCSkEpFhAtYLy98cG2O1/f+K95++bOv5vvtfn8w/vuMw8v3Lf91tFDn+BAY3bOykApDhDpYFindyAMARDr7Q6c/fv2Gvv/LK9KQCkGEKlgOAhWr90yXEAMAfD4wQemQ1giTOGgqAdEIhgWBAuEfeWCogsaCwtAGfpI2XlfLSCSwZAGRZs7sEWVwiKKOkAkgrF69ZZ549p//D+WBI109Qp5VCkEFDWAAAxeqhBR2vUVD8jdq96T49uP5uT1E6/ZNUeMoQ2iRplVSCwgEm8HccW3hhpjCISh9wHKXYXEAQIwhlw37fu1gyICEIn1hXPDlOlU86Keu0JuL/bZl7242Hy5K+4pohknJHZPkh9XlBUQyWCkSKcsEEcP3r09ZMwV71RX5+1ax6yzM/YJfpJ9FkAkg2GNyBk1HBQsjrblgXb99sXRemaLJnbBAkFJCoh0MLjgSAFF16czB+yskAgDJQkgGsDggoPdmTxrdmpQkuxLQERhBUQLGBxw5IwaqaKJ3ePXvrDfE9ERwzKCwgKIJjA44Ejy6Rrpb7ag//1frkce3X6YhYSzpto+awZQSAHRBoYT/te/+weZw0iGw21SNSTbNcqd5ROLB5fJDNcxEQkgWsGgjh4a4CgGki1QuK+hkADy/Z/98U/HDj1w4bOPfvw73ERTz08VPTTBURQkzKCQAPL8i+c37To/dv9H3jr+lU8dpnZirvmoOjsa4XCa2nqE8mp8ssK9zSkYbrEnBcSt+dFPfnTly088eJzLsanmpYoe3/r6Z6iWlGUeKh3s4kV8WBCCwgKIFeree/e8LjntoipURTjESKwoIqm0tvbfrt5a+eG3jy2NlIbmbl6XYrUtRmraReEUdr/aowdFJ0/Sh8S1v7/31r+vvzdN8390cnF0ABg9gV1IHyBS0y6K3FuSY4z9pIxJsyTtvwmG00IVINLSLgpAkl0gG+v9HseHAJK1EJ/biwXjnXc+WHn3/du7OqjqAHF7k5B2AZBZT/PRQ1adMVm+tLp+pQ0MtRFk/oMsZ7fLxyGGPnhLiiB9esgCwxhbgN/Y+HCwS6o2gjQdL1e3C4DM4t+WYmkFo5gI0jRR6mhC0eaVlIsPRbu+9+c7etLAaCvAffZbRASZ3+jikYWzKW5ZASA7yjtASgGjyAjSBMUW8U8eXlh/ZP/eL/l8UsSOCencdJ2jhDrEAsL6JPhAA63f/PD1f/7r3Qt9BbjPlEVGkJRpF8XFwlLSLB+H4x8z3JkKWUPxgDgxONMuiigi6YJZiANJGuvbmQpZczWAWFG40i6KKGLXB0hCXHdnLAcYxdcgfVJzdLsoWr52zdKK3DiXTXNUbGcqZHVVRRDubhdFquXWiGjS7cZ9t4aEOL/P2KoBoU67KNq+80YDKE1FaAtwAOKjwNYYqrSLqh5pA8X+jfxHagI0yjc0PRhV1yB9hqbodnFB4moU91DqGmDhLMB9gK8+xWoTiaLbxQlJV3Rxf3dPc+9zAPekd/eEdwudJOBSFOAAxEeBnjFj0y6OmmTklloPl9Q5kwIGUqwATxubdlG1gAOW7DXUNgCk3B6SsjPlJc7WIKRYnmqNTbtSplxDW5LVGZss/+KXf3joiSOHvzi07hzvA5BA1cekXZy/uTG0DUlplFvrb89d/s35i6vftP9+9pmnh7aQ5X0AEin7mLQrZTSRCIbrTF2+smbevLo2tQAAGXBEn6eaRPoy22GS0y6JYMwX4AAkwDU1AuK2NybtsnNQpl4awHC63di4ac7/+RIiiA8nmgFx+xuTdrk5YmGRCkbX43TsfgGIDxlbY0oAxG5lbNrVlMz98qz9W9ePaUoEwxi/W0MASIWAUKVdAdKJGhpya0gTkK8+dcw8tG9B1F7sYtDFYjYJRdrFvESS6UPAaKtBAEiBXSxfz6JMu3zPmWrcmFtDEEECrFRKDdK35bHdrgA52YdaMG6sv7/+v9ub0U+NASABZqoBEMpuV4C0xEP9CnCfkwIQH5UK62L5bllf2kUHBmoQXy9pjKspgjTl0ZB2xRTgPi6ACOKjUqURZF4aid0uLjAQQQLAcENrjSBNqaSkXWM6UyGmRwQJUAuA7IiVK+1K/aUlAAJAAhTYPTRd2kVfgPtu/OVzr06H4kLhgGKIIO0Ccaddl1Y3zo59ArovDG3jAIinegCkXyjqtIu7APc0uwEgnkoBED+hxqZdqQpwv90YAOIrFADxVSrulnppYLjdIoJ42h2AeArVGOaTdqXuTIXuAoB4KgZAPIWaG7Y5MctPPbZwZfdvMubrTIXsBIB4qgVAPIXqGGa7XYuP7ztsv2EopQD32ZED5LFDB8yRzx3wOSTpGHxhKqnc/Cf79MJe/pMQngGAeIqJCOIp1MAwAEKjo5sFEYRWz+yzARBaEwAQWj2zzwZAaE0AQGj1zD4bAKE1AQCh1TP7bACE1gQAhFbP7LMBEFoTABBaPbPPpg0Q+2xe+70QXAcZcB20eWnYAiA0OqLNS6ujmNkACK0pkGLR6pl9NgBCawIAQqtn9tkACK0JAAitntlnAyC0JgAgtHpmnw2A0JoAgNDqmX02AEJrAgBCq2f22QAIrQkACK2e2WcDILQmACC0emafTSsg9ufX7MPjpL0AiDSLjFwPABkp4NzhAIRWz+yzARBaEwAQWj2zzwZAaE0AQGj1zD6bNkAuX1kzb15dm/4ENGqQHvfB3bw0bAEQGh3dLIggtHpmnw2A0JoAgNDqmX02AEJrAgBCq2f22QAIrQkACK2e2WcDILQmACC0emafDYDQmkAMIM/99Pwrk02zRLu9+mYDILQ2FwOI3dbzL7522pjJKdot1jUbAKG1tyhA7Na+95PXlm7fMzmFaBJnaAASp1vXUeIAcQtFNIkzNACJ000dIIgmcYYGIHG6qQQE0STc2FoBsTt99pmnwzfMeMTEmDMvnFw8PfYUk7ET+Bxva5M7eyav+IyteQwAobE+FRx2NUkAcdtGO7jfAQDIOEAowXArSQoI2sFlAWIfXG0fYC0gxVreNObMj08uLo9DbPfRyQFBAd9tQm0RRAIgHFGjaaEsgKCAb4cEgPh//nODkS3FmpcABfyOIgDED5BUcCQv0vu2jwLeGADSD0hKMMREkKYktV+BByDdgOSAQ1QEcdLUfD8XAGntIpFc8PNL3oR0sXwWW2M0ASA7nmEjxh1jljlatz7+JzLFaivga7o7GIDc9YBc6VQbOFnbvL4k11LA1w6IJDBURJDaCviaAZEIh8givS+qlF7A1wiIVDDURZAaokllgCxPjFmhuCXdN1WPGaeiBmnbWInRpBZApEeNpr+pBcRtoqR2sDZArA1ePvfq1BQ+X5jSBIbqFKutHVzCF7I0A2Kf7m6f8t710giHuiK99AK+REC0glFUBCmlgC8NEO1wFBVBmpBoLeBLAaQEMIqNIJqjSQGAsH31NaZFS3GM+i7WkAiavpClGZAnj37+7M9/8I3vDtlD2/vFA+IMouF+Lo2AXPjrGyu/euFEsQ8urwYQC4r0aybaACmp1uhpT2sLeuPWK7mA1wJIDWBUUaT3oSQxmmgApCY4im3z+sYYaQW8ZEBqA6P6CNKESEoBLxSQ4lq3vh+g1UcQaddMpAFSa9Ro+kVVXayhT47cBbwUQADGjqcAkBZqchXwEgABHLMOAUA6wkqOaJITEIDR7ggAZCDvSlnA5wIEcHQ7AQAZKky2fr03xReyUgMCMIaND0CGNZqOSJFypQJEylMLPaXPOgyABMrPWcCnAARRI8zgACRML9ZowgkIwIgwdOof8YxbotyjqKMJFyCAI96HEEHitduOJlQFPDUgAGOkcRFBxgvoZqBoBxMCouKphXTq882ECEKo7diUiwIQRA1CgyKC0Io5th08BhCAQW9LOyMiCI+uUV/vjQUEcDAZEYDwCeuiSUgBHwoIwOC1HyIIv77TM/gW8CGAAI40xkOKlUZnr5TLBxCAkchgW6cBIAn1HrqfawCQqr/6mtBMM6cCIBmU72oHdwGCqJHBSIgg+UTvagfPAwIw8toIRXp+/WcK+CYggEOAcdDmlWEEl3JZQACGDJu4VaAGEWIPW8A/8uD9S9J/9VWIXMmWAUCSSY0TaVQAgGi0GtacTAEAkkxqnEijAgBEo9Ww5mQKAJBkUuNEGhUAIBqthjUnUwCAJJMaJ9KoAADRaDWsOZkCACSZ1DiRRgUAiEarYc3JFAAgyaTGiTQqAEA0Wg1rTqbA/wH9qrJBWrcVOAAAAABJRU5ErkJggg==;" vertex="1" parent="qA_CRGKP_DHO0OBm4st0-23">
          <mxGeometry x="511" y="238.1952941176471" width="50" height="31.61764705882353" as="geometry" />
        </mxCell>
        <mxCell id="qA_CRGKP_DHO0OBm4st0-67" value="Master2" style="rounded=0;whiteSpace=wrap;html=1;verticalAlign=top;fillColor=#fff2cc;strokeColor=#d6b656;" vertex="1" parent="qA_CRGKP_DHO0OBm4st0-23">
          <mxGeometry x="296" width="296" height="120" as="geometry" />
        </mxCell>
        <mxCell id="qA_CRGKP_DHO0OBm4st0-68" value="scheduler" style="rounded=0;whiteSpace=wrap;html=1;" vertex="1" parent="qA_CRGKP_DHO0OBm4st0-23">
          <mxGeometry x="312" y="31.61058823529413" width="120" height="25.294117647058822" as="geometry" />
        </mxCell>
        <mxCell id="qA_CRGKP_DHO0OBm4st0-69" value="etcd" style="rounded=0;whiteSpace=wrap;html=1;" vertex="1" parent="qA_CRGKP_DHO0OBm4st0-23">
          <mxGeometry x="452" y="31.61058823529413" width="120" height="25.294117647058822" as="geometry" />
        </mxCell>
        <mxCell id="qA_CRGKP_DHO0OBm4st0-70" value="apiserver" style="rounded=0;whiteSpace=wrap;html=1;" vertex="1" parent="qA_CRGKP_DHO0OBm4st0-23">
          <mxGeometry x="312" y="75.87823529411764" width="120" height="25.294117647058822" as="geometry" />
        </mxCell>
        <mxCell id="qA_CRGKP_DHO0OBm4st0-71" value="controller-manager" style="rounded=0;whiteSpace=wrap;html=1;" vertex="1" parent="qA_CRGKP_DHO0OBm4st0-23">
          <mxGeometry x="452" y="75.87823529411764" width="120" height="25.294117647058822" as="geometry" />
        </mxCell>
        <mxCell id="qA_CRGKP_DHO0OBm4st0-72" value="Node3-Compile Server" style="rounded=0;whiteSpace=wrap;html=1;verticalAlign=top;fillColor=#dae8fc;strokeColor=#6c8ebf;" vertex="1" parent="qA_CRGKP_DHO0OBm4st0-23">
          <mxGeometry y="290" width="296" height="130" as="geometry" />
        </mxCell>
        <mxCell id="qA_CRGKP_DHO0OBm4st0-73" value="" style="shape=image;imageAspect=0;aspect=fixed;verticalLabelPosition=bottom;verticalAlign=top;image=data:image/png,iVBORw0KGgoAAAANSUhEUgAAAMgAAADICAYAAACtWK6eAAAAAXNSR0IArs4c6QAAIABJREFUeF7tnQuUFsWVx2sYHgPyHkAFNRpF4wuNiKAxBvPwfVbX5CQYIKsm8RUTdXPIanw/dmN0s0ajsmpiTIBIctS4ie+TFUyy6ojPiaIBEtGALxgE5A0zs+dfM7e5X31V3dXvqm++PoczzHR3dXV3/ep/761b1Q2ivuX2BFZ8uHFyUHivXpMbGho+o71YZ+f24/gBDQ3z1eM7OzufCv7W0TF/5LD+VcfkdkM9sOCGHnjPmd+yBKFXL9nIAwhMjT7zq3cX2A1TAFAdnkyedB2QBI8RQDQ0Nl4pTy0ahLj1bWiYT9CMHNLvqrin9/Tj64BEtAAyk7wBwqJFdwpxNQ6rAxP9sOqAaJ5RBRSuK0T0Ow4/olth6rDoH1MdkO7n0qOgMCFTh6XqyfRoQOpQhIhLHRb5cHokIIGTXevmU1rzq/v8nuyz9ChA6mCkI6YngtIjAKmDkQ4M3dmApSc49jUNyIo1m69qEKJrvKK+5fIEah2UmgSkDkYuLIQWWqug1BQgtWRKvfj8c9oGecihhxXf+mNcsdZAqQlAfASDA3DXzJ/IJvjiAj0UuvZ5yIQuUMYfOlH+/Ma558doxvkeKp35GskF8x4Qn8wpQJEEBtvmDGgADH66oDS1oCbeAuILGARFHHWwBSLquG+e+20n1MVnULwDxAdzKgsoJnxyf9m4JxxygBi9Y3PAwjvvt4kFL74qf1/w0mtRjMj9ToCCkfn29qt9m7/iFSCuq0YaMM77+lckCKec+DmrRk8HLX/nPfnfX/7692LOfY+FnksmWJn+im9q4g0gK9dumefq3IukYCSFIoyCNWvWiP+d/7S44oafhsICVSkLFJ8gcR4Ql02qNGCcd+aXYylFkoOfe/5l0bLgJXHH7Ie0p5cJCSrU2dFxtOsml9OAuGpShYEx7qBxYvq0aQI/sc2Y8T3R+kqr/D8UI2swOrZt0Tb+Xr37Bn9v37xe3H73b5wExXU1cRYQV02qn868NQjV8papgoF9AAOAYLvu++fF9i9wHgDobN8qy+ignwYoTCpDsPz3L35bhySmFDsHiDSpevWaF/M+cj/cpBrTp08T06ZPC64PKGbNnh2oBqJRP7/1Guv6ERCAwaQO1oUZDrxzzsNaUOomV/UDcwoQV00qnWqoYCxc+Lp44P77xZ/+9OfgKduqBkGxbfP6tG3f+nxnIXEsS9gZQFyEQ6caOlPqkUceE4uX/E20PPO0aGtrk4307psvF4cdenBog4VvkKdSRNHyQusicda/3VR1WOlK4hAkTgDiKhznnjm9ovHceOMNgfONHYsXLxGPPPq4PGbxokVi8aK/WsEBMIpUizBQ6pCEdyOlA+IDHDrVmDf/KdHa2jWiDdWAekQph0tg8GZhgmTm3bNKzelyIcJVKiAuwqH6G6qvgYZ1/wMPimXLlgdtjEyrMLPKVTjoJnQ+CUbeZ/5sVpSlluv+siEpDRAXw7jwObhZZQMHmVYmOOCAt2/ZkFtEKsvWqYOkbH9E3l9Dw/wRg/seneW92pZVCiAuwoEHNnHcPsFzg1kFn4NvqnKQaWWCw3XVoHvr3W8H0dDYR2C85Ac33VWV01W2qVUmJIUD4iocqmn1+BOViX8qHHhpjzz0ezH1S8eJSy76ZlWH5AMcAKKx7wAJBt8O+NQXK353wdQqC5JCAXHR56CWcO7Xpwcz+rhphYE/OOSIWPFtVdtK6Zy3PnVvVQNLAgd68aJDvv0Gj6q4J5iDTqsI8rcKDgEXBojLcKjmFQDB9kprazAirrNZr/neN8SpJx9f1ci2blhtZeICisZ+O1QcmwQuq4spB/Fr68wqtUxnVKRgSAoBxHU4VOfc1OAoARH7oSzqSDl6YBs4dGCgTGTeYgMk48ftnaTdW5/TZ8BQqRZnnH+F9cQrJ3yR7jssSklyB8R1OEzJh3gPzc3NYr/99hVTp08Te+y+e9D4rrv2OplSgkb8i5k/CP4OOKLyp6hh8paMTNvbf/brisZ91tQTxdnTTrJu8HEPhHmFdPgzL7jW+lQnIlqstkVAkisgvsIBML559lni6Mn6L6YRIHhX//fI3WLIkCGy148aHVeVA1NmAYZp6uwLj860brxxD0RdSLG4WmHQ8IW/LNYmM7pkZtH95g1JboC4mpVLD1anHADjC8ccK77whc+JXXYZU9HmMDC4fPk7Ytny5WLek/OCtBIAMmiH/lamFXeKdarBG+r4A8fmqiBRQLk6uq6rd54Tr3IDZOWazZ1RL6Gs/TqfA3BccOGFYuLECUG1AEXLcwsqRs2xk6eWAJABfTojTSvY+zCvsKlw5G1OJX3OOkhcM7Po3kYM6ZdLW86lUN9MKx0cunEPehkckEfvvUmMGtoU2QbJ9+BwuAoGvxkVEhfNLFnfnEbbMwfEdTjwLPmIOX6/+PuXBP4GVANwhG0ckDt/eJFVxAmA/O7xP4nL/uN2WbQPcNAzQEo8QKGtpbUra9m1LQ9/JFNAXPc78EJV32Ps3vuIW2+9Wb5rGzhwHE9ttwVkU2c/ceGlP5IOuU9w4H5VFXEp3KtCmrU/kikgLvsd9CD5iDn+ds211wZ+x8233GbVKSYBZMlb74uvnHOVVBtA5dvGVcRVPyQPUyszQHwwrVTziqtHS8sC8WyL3eLRfOagbSiWemFbxXENIK4izvoh9NAy9EcyAcQXONToFaJWJ5xwnHystuqBY5GkiA0DeTCXbDesT5Xn4J9tPZIc5xUgGaajpAbEB7+DGoQKCJlXcdSDO+hxAUnSMMs6B0Co6S7czHLVUefPKwt/JDUgrqav6xqWKaU9jnpwQGzNqywaedHqAxhUX8k3QLII/aYCxBfTihooB+TTnz5SXHb5ZSKOeqCcIgHB4GKvxj5yMtNtP71XjD9gT6uQchogkYKC7cwLr6sChM84dDmSVaEiKdPjUwHiQ9TKZF4lBYQiWHlHo9SkxjO+dbno6NgWOwI2/vhzrcPKPFespeV50b51UwWQ3A/xBRC8/zSj7IkB8Uk9dHlXBEjYiLmuJyZA8vQ/dOnwGD9BanrcKJgtIOo1Acjt99xfAaSvgKQZQEwEiE+OuSmd3WVAdCnxBEhc5QIg2KL8Jd01/+XcS8TZU08MVMRXQHD/SR32ZIB48v3xsLkeBEgcBx0PmhQkbk8exy9Qp8LSuTCzFry8MJaKwLmH7xA1es+vSUuhwg/Bxp11Ag5/d3rAUH3gCcdGYgPii2kVBgeeHRIUf3XvnFjjH0UBYppxSCpiowjUPgiQqHMoIMDntJBicLg4IL5BkkRFYgPig2NumkJ7y6jh4jsfrAr6limnfVW8uXSpWNXWJrAIw/DmEcG+4c3NEiJ1oyhWngqCa6orjVA9Zt7zgFQE6tltpuZSow5TEZ6MSNd6vnVR1bVUQLyCJIGKxALEB/UIg+OIpiZx6NvvxLF2BNJRxu69fX54UYCEVZIaqa0/wlVEBzbfb7ouwaUDxCdI4jrssQDxQT3UVHa8PCgH4MAWFxAyxyYefoQ8nwDJM4qF3vyObpXAzEJZ7+5FHPB33ttHOd/U4HnDVs8xzR6kc8NMLA6UL6HfOGFfa0B8UA81U1eFY1V7uzhm+ftVnSR6YkRraMOcbGz8234wtwgSJCvuPqY59piErXTZ9OhBXS3nrfMydaaWek16JqoJZ1KQwAQsecFrm2ccR0WsAXFdPXROOVcOHRymRkAPWV2rliChbN68/JCoHl3Xs9s0DJ4qYvJHSJ1Mvk1g3jX1E+P79RV3rvmo4tLOZ/p219ZWRawAcV09ouDAM7l+1Wpx37oNwcu0td9VSLiK2JZh03jVY0i9SM34fphdMLlsHHR+ngpeVOhXV+/A4R8ySJw1ZJAERIXEh/CvbUTLChDX1UP1O2YMGyy+Mmhgxfs9/b0V4tUtXR/DxGZru+NY3vMWBUgSqGzOUU2puCpIgNwxqlmMb+onL6mDxHl/xDKiFQmIb+rxpYEDxMXDu1YP4Rt3zuM62LznhZmFcDC+JpWngtg09qTHpIFEBwjqcfYHbeKFTZsrquR6SryNingNiM60emLMjmJ4Y2PFi1L9jzSAVJg6nk6fxT2ozraNkvCOgisIPRM1Qui8P2KhIqGAuK4eqmk1d+cRYq8+lUv5b+7sEPM2bBCXta1NZF7RSbroTVzQkvb4eZynCwREQcLPeX630VXV8tHUilIRbwFR1YNHrPibW7Ftq3hh8+bUgNDodQDMgWNjO8l5NPQ0ZerCyWGQUMACvgcURLepkPiuIqGAuOqc60wrXY8GOKAgcM5JQXz1G9KAEHauDhJTAMMGEFxLNbVcj2qFqYgREJfNKxUQnd+xtqNdrG3fJttGHZBwvFRITOFfW0B8M7USAeLqXHMVDl3UCqoB9eDbKe+2yV9rXUEoE9hmtXn+fDgkpmdE4W6Mf+Bf2OaVwx7irBsVxFXzSnXMdeqxbGtluBEvkgDB/+OMgeRl2uRVLp/XYfO9EqpHHEB0ESz1fmpFRbSAuGpe2agH+R3qC5u7bqOY+1HXSHpUtCavxpt3ueo8kjiA8MFQk4KYxkBM9+WTipjMLC0grppXqnqojrnOtKKX15MAsf0UHG/YPIyt60CiQrw2ES0c4+wIu8HM0gPi4Lc9VPW4bPhQccrAARXvxaQePcFRl1+GevVv4rwzvhT5pSv+0Ci1npIU0zroKii+q0gVIL6YV6p68KiVSfK5H1JrZhZMJDIfbU052+iVLHfOwzL9P2wMxHcV0ZlZVYD4YF7pIlc6xzzMD6m1aBb5EFEBCMoS5gOfNlm9cf0P/uy9URGNmVUNiAfmlRq5slEPemEYMKSs3lqChNRAneMC0wlzy0kFeMONAoOvz5sGEJ8iWqqKVADiqnnFnfOk6qFz1vE3G0jIvHDZLLOdhUir0UetMo/yaM4JnxOjy1iIMunqgEQ9oRT7o0bN46iHCRL8XZd4qDqwUeZLitvM5FQdJOgAaF57FBSoBFciWg8rqf9RC2ZWhYK4ODjIAdE5iDa+h6718bCvuh+NSl0Gx4XMXd0nCTIhi4FB5XG15NNsTUmKUfXwRkUUP8R5QLh5NXunkeITffsE7yJs3CPqhWF/GCTq+UWpB18PC+MZfOPrW5Hq2dyn7hids07Hcd+Em1c2I+im+ngDiLLYdQCIi/5HlHkVNu5h23BsIClKPfhIuC6XyrSYA81NJ1OK3zuf0w5ViFoQQvXJ0vofPppZ3FH3BhDVvEqrHvzFIar16pZtQSpKWerBAdm89gMt47bOuO5kqGDY+bqoVhbmVWC2aRZ4cHJaLjOzAkBcHP8Ii15loR42volNlMtWraKOUzNxKUSrc66TgBIGiA4Orh42GbxR9+eNmaUFxLHxD3UJ0d+OHiV27d07eAdJnfOol6jzTYr0P/AZAm5eYQAQppMpAgVQYEbp1tbVKWGc0XOen5XG/wgzs1zNzaJ1s6SCuPi9D9X/4PH3LM0rGxVJOv4RN+oEBx2AqFm4UZDQPRAkNDBY0TC719GKWhguMIe6U0vwe9z0krBOSF39xNUpueSHdAHi4Pc++DKi6gvKy7ziLzaLvC36LoeNatExgESNXuk+QxCnzCTH5qEeqIcvc9ZpeVJnAQkL7+ZpXlFjyiIlBT0/RqPjfEvd1Jij1tZNAoHpHO57ZKkeuB7WzoKK8M1FM6sCENcddD7+kbd5RS9ODf8mMbOo588qTKwuPWSbNhIXnrzUg+qhJi+6CAh9QloqiGuAqA469z+KMK/oRXIzK2k0i7JskwBW5WS3LpLLoOq2sLEQfjwcevX753x/1pErXV1VP8TJVU+6I1ldgDgWwQpz0Iswr3QqkhQQPjCXBSRJwrsVAPzwIuN6XnmaVhV1UMZDXHXUEclyHhBuAxdlXtHL5MsFSQczpHGFmTFBsl+GS5XGASXqMw/SN1DUKWvfw0dAEMlqcDHEa4pgFQ0IXir3RZKqiISLZuRlCAk17DA4bT+RUOXfWCztE9e3oeNVR91VBekCxPEQL597XqT/kbWKoDzyR9KAlrRRhp3HVzThxyWZ+2FbP9VRdzHlxFlATCHeIv0P/qKzCPlSedQYs4ps2TZI03HqB4L4cVmkl5iu6wUgQlztpIJwQCjFpAzzil4uBySNL0LlkTlTNiRhcAR1DVmoOg2caiTL1VBvg2shXjx0lwDRpcOnNZG4Q5y2rKSNVAfHgJFjxIYVy6uKzMNhV0fU64DEeJM6QIr2PwDGq5uRBl+5xi/dRtreX53OmzRCFuOxykPV69L5gGOXo04RH73/D/Hun3+XOyR1QOK+ue7jTYOERQJiM4kqC1OLO+74f1rooh65yaQiOOh8QLLi5T+KbetWVxSZpZLUAYl6W4b9JkCKcNBtweBVz6Ln51EkSmvPIn+L6mlSDexv3u8w0bzvhKq3sWXjerHsjw9qITlr8MDgA54JX3NVTlbdxLJ8kjpA8nbQo8ypHQ87RjQNGyXWvPWGWP3G81V3kkXPr/bu8E3SJDoSFGRWmR4/7m3IrmO1uwHJey89JTa9+2bV/rTzQ9SxEHcBcSzNpGhAwlRD13g+eK3FCIk0maaeaNkVdPkDsgH/ZbGcFIWftJgCL4Rgwd9wnG7wj8q6Y87Dga9hW5HeA4eKkQcfJQbtuKv2FNM9p4HEC0CEEA2u5WEVBUhcMHjLMTUYOgaKYmrI1KObkg5tG3Uex4WpyZp/LBbvP/dEZkpSByThG9QBkqWDHmZOmexx3a28u+AP4qO3/1qxa+KkSaLl2WcrHdtxe8vfYS7RplOJhI8r8WlwuKUi9esrJzHR1rTzHtIn2WHYyKqyTRGuJCPudUASv7rKcRCsw9ve2SE/xpl2M6kGojiD9tjfaIubrgsnlo8bfOfCC8V3LrxAQtLybIu45cc/jqwyb6gvbN4indckGze75JKhBpMN19M52Xzgbugnj5aA2EKSJLpVByTJW+4+h4+DZAFIGnNKdxvrP1wh/wyzY93il4JDoCBz5t4beud77b5HsN+UyoHGA1h4z84LtYmc6UK6YakjKiB0PR0oujBwXH+kDkhGgMzdeYRoEp2JSgszp+CUDtvzwFjlAgyCg07EWAGiPDRmQCpiKpgAsc1z0i2Vg7JNkTNdSFe3ptjmjkpFXry1PZgKO3DsJwUc9zBI8ByWP/mbSNhNz0G9LxeTFVF351NNbhk1XOzWGPo5d+07yEo1CAgVDPWiOlAmTpoooCp8iwsInRsGCh2D1Uz48j86cwqfxsaC3+q2pVOIL7/XNVdcBcQEyt8fnxN0DHHNLDUXy0lAGhrmOwkInw8yY9hg8amm7evxRnX5RYMRBQr2AxIChfwSUhD4Vmvb27U+Vr+GXmJwY6O8BP6PzQSK7rnozB4TIDifphjDUW/aaXfto+YmFw9U2CoiFcoBcXU+COalOw8IvgcybVD/KC5kztTcjzYac6fCQpi8cJ0ZFXlxzQGqoqiHUIOyjdCN7N0ngMQWlLiAUNZyGCBcTdYueSWI5MX1QeqAJGlV3efwOekH9O0jrmseHFmampJOJwzabR/RfMDhom//HULLyAoMnaIQLHwfARInhWaXPl2hWV0vTA1UVRgeJcM1wxTklx9tFA+s2yBsAEEdVr80L6hL3FAvnw/i5KINuDNXFUQdC3lw5+bQxq3OHaeDbVQjLzB0Fd703tIgbYNsdltAYGJBRbAhAnTn2nVBSFg1b3jvrH7PY2yfRq0PgnLjAALoKYIX1/9QI1h1QCL7/8oD4gKi8zui4CgSDLo7XaOyNbEAyNvbOiQYBAmVqzZQ3jtTzx7m61A5cQDhsMc1r3wBBIvHOTmjEC+Mj4VMGTRATBlo9kNUQMJCuGWAwfEns4QatS0gKGNwr0YxuHH7At7cnIKKyFFxpiw4B4DYXiOODwL1oNB2XPPKiwiWEBhcuNrJVU3wYnkkKwoQnYm19xe/VaVbyE5d/e5bMfUs28Op500CCNWEIlpYtemzy/XfEaFj0XhtzTiKYpnCvGGgx3lKPsxHx/14A4iNo85XQcTN6UwslwCJ27vrGiAfuzA1UIBI6vux3o2ib8iQki0g3FSsVfNKAuLqulioXFo/RJ0lRw3og78vjNPZ5XIsmVloXLv17pUoz2x9pxBTuwf2eCWnT58mf32ltVW0vtJqrP+pAweIfbq/97h3n97i9+u7IlgYQYeChG1pzCtf/A/cv7MrK9LLieOH4BxVRXRmFkwsKEmZGzezrhs+ODYgSAuZsXL7dFhAMW7cODHuoHFVtwVIZs2eHQoLPykOIHGjV7iOF6uZdD+Q7YCs3TJPdHZOLrPR6K4dxw/B+aqzrjOzynbSUU8OyI3NQ4xhV/WZwEmf0bamIuMXcEzrVg06fnjzCLFx4waxccOGiiKOPeY4+ftBx58qf+64177i/SWvi/cXvy7eW/J6cGyYD5LGvMIFfPE/nF7dnd5UWjML5agq4gIgqBeZWU+OGWUFCEyq/1q9feyDt/zHn3gs+HX0LruK/gMGiGeeflocfPDB4sNVbQEoAGSnvfYVx3z70qr+CIC0PvpAAApS3nVbluaVsykmuHG+uruLy4+ijiogGFGHwx62qWbWx46dJvoNHBKc4oKjjspQQ5uzU7PYIcRxDgODboqryJ577yNu+tGP5D9sb7/zjgQEoJz/rfPFB+u3agGhsn55QZcPY1IRqncW5pWzA4TdEayRQ/pd5ewXpuiF5WFmueCok5n1r8MGiaOa+lYxrwMDvf+440+VKoAe/4mf/HtwHqkIFOT0r31NKgi2X993nzj8iCPk/089+eRIQFDmyvfe1TrqPca8qgLkw42TG3r12p5YE9pHF7uTA4Irx007QS7WzhM+X1FpFxx1amxqCNukGDCLAAbf0JjJdyAVASAvv/yyePaZZ+ShF333u/InVGTqaaeJhtF7iYOO6/JB1I2gi1IPnFfL4V3cX8VHPPEH1xZvoJenmllRg4Y4Lyqa5ZofInv3gQPEW9vatVNudXDgHJ2KwEEf1lyduwZADtxvf2leqaDRsw5TDxzTU8wr3GvFZ6AlII5GslC3rM2srAEhNbDNgqUGyfOZTLqMiJOpx8c5rzz2gHjl0Qfk6aQi8EPULQoQKsfknKcxr3Qf7nRyghQ9tG4HHb8G7qHLgMSNZqkqMvQTh4pR+08M2kzWjjo1Hphzg/c6qGparqnx4+983gjGIPhyn1Fw8J6fTC34IjoVWblihZg04TCtgpAShQHOo1dxzSsvvknIXhJ94bYCEBe/NMUbVtxBQ3V+iBruzdJR54DA30mjUNQQbeFQTS2uIruNHi0ddDjqbyxcKE464UTxtZtnV/EaZVrhBDXJMgx6dZ869uFy9Ap11wIizSzHVlnkDzqus64OGo757JcrlrHJExDUOwkk3IzRNeSwRskddlKRc84+W0w6/HDpqJsAiXLMSeWymvuB8pw2r5j/UaEgrvshcZ11NcNXHVXPMpKlKkhSQJKoB0HDHXadL/KLu+8Wd/3qvqoxEIx7RPlOPcm8wvMkB90rQFDZuCrCo1mqH5Kkhzf14FkAwh32OOYVr5NORSiidcWll4onW16qAISONznmPVE9uHlVBYjrfkhcFVHNLO6HuAYIn99NjT4uKGEqogJiY1qlBcQ351z1P7wDRKciYeMiKiA7H/lPwQrmWUayslYQrgqUWBgW6rVREQDy2qpNQcjYxjFHuUnNK+9Cu90PkZtXVYC47odQQ+ARLfzNNLoe5Ydk5ahnAYjaGFVzzhYUk4pgwToaJKQxj6iZgzxogPrEmVrro3pQgiJ/9lVpcq6bWag8XxYIv4epSJgf4hogZNLwpUx1oESpCfkW5Kxv3dYuQ7yUxYv9UY65CmxYciKtIWxaSxhluR650plXWgXxARBUXFURU6ZvmB+SVSQrKwXhMEQtPId0kR3H7qsdZVdVBJOpZsz4ngQEKe2mZEQVRu4XqYODNlDw8lwf+0BdVfNKC4gvZpaqIiZTSwVk9xNODxaRy8pRzwMQ3riiUlJ05helrdMU3FmzZsuJUkhLiTKtSMn4yvUwr+JAoftWCsp18lNrkoSG+SMG962aBKOdieCLiqhhX52pFeaH+AIIwRIFCo4jWPgsQUzFpfnpNlNqo/whVWkC33DSJPl9FL5g9y0/vrniOymuTpJSw7t0T14DojO1dJBwP4QPGCaNZEEx+OcB8lYQtUEClG0ffVj1BVpTw+V/t1EPGxB5mQBCBYPvnzrltIovb7lobunMK6OJ5YuZhXqqYyP4mwqJyVFPAgg1HgACR5cSDGGO8LknWamTrtFTQiN+xgUFdaYN56p+jw1kYYphOl+FxCmn3WBehQLii5mFm1BNLfyNO+1hiYtJIll8bIAgSQoIb+wVjbW78fLs3jiNN89joxRDd218lg6Q0OaSL2Iyr2oGEJ2phb/R+EhYJCsJICibQ8LT1Gm0niJkspdft32JHuq1XWz4YVAlgUItj6uIS76IybwKBcQnM8tkatF0VhUQvpBD0lAvB0RtCOq8jjx786zKJsda/Uovyn/o4YfEx/bYQ66Wom44Ho44bXF8ERdUJEw9IgHxyczCzehCv4BkyqD+AmYWbRyQOL4CqUFcu9/UiHm0p/L/2yd30bnqp9x0DbVPn97i9YVd61tdefkVwSFYZXKHMXvK3zu2bJI/N65YXvGFXnx8lF+Devspp00RZ5xxupzGi4lYtBEY+GmrLqqZ5YKzngoQ31QkDBKEe2nb7fNTRNOQrnnbtoDwtAs1gqUDQG38+F6hbWNPqgqYVvvOsn/I09GgDxs/Qf5ft4DepjVt4u0/zA0upQLCw7OYX8IBwWfkSDXU86Lqzr/yW7aZFQVHpILgAN9UxAQJf3G8wdgAgq9TDRi6vffkZXW2bxNb1q8VK17+o/Q1or5yG9WA0u7/26K/BkXQSoo6QDavWyPeenz77EK13ry354CQcoSZUmH34FI0KxNAfFQR1FkX2aIXFxcQnKf7XjhvCAjtawuXAAAJJ0lEQVQZL33kHvmd9ChzKC0EYefbAoIyFt1/W1CUDmzq7eGDDB4yWGBJId3G/Zaoe58za1aF+VemHxLmnNN9Wn1f2UcVCYMkzWAhQMHWp2lAxXcPfQIEdd2weqX44OmHQgGh3v7W226VC2NzQLgPgkIIDCgLbTpY3njtNXHSiScFx5QFiI16WJlYdCcuz1cP61F1SpIGEN216AOhaHAuKcgVV1wlR7Axm3Loxw8QWzdtkP9odXseiUNjRt35Rn7IxZdcLI4+erLgywmhXHLQOSBh74J8JDL9cGxZjrqNesQCxNX1e23MFRUS9RNtScdC1GujwZ33jdNl2kVZGzexCBBTarsaql6y9M2KapMfAniuueaqCkCS3B8Bgsxiyg0rw1G3VY9YgOBgX1UEdechYHU50iwBGX/AJ6p64iSNKek5HJCf//weMffeuca5H2rOlQoI6kB+CBx1Wjk+ad0QYQMkVC+UUwYgtuoRGxCfVUSaAeO6VhysA9LVxFVAdOYhB4SHesnEanm2pYIXCmdDdVQfxAVA4qhHbECkiji8RGlUz0aAYBzj48dODQ7PSkGowel64qi6ZbWfGiHKi6sgOkDIUUcka9ROOwaDhboRd909cEhI3Z5teS6IZBWtIHHUIxEgvka0uILg/3yFk6wBKdNR54AsXrxEfhPE5IOoc851oV4TIHGB5oOYHJAinfS46pEIEJ9VhE/TrQPStS4wnzWoA4QiWb/9nwfFgP5NFflYTf3N367v378yb4t/6aoMQJLAkRgQX1WEA8LzsbJWkDJH0+MoCBoAn3dO9aYvUmE/ok1QIYyFjB27V1zh0B5P0TXsLGochL73EfcGrAYKdYX66LDnDQj1yLoxhbgvJunxHJANGzeJfz75lNAVTDggqPeN/3lDxcc/yUzLChBkBB915FHB7RUxcSqpeiRWELo738K+HBA+WJiVglCPXCYgq9pWig/b2uQr2rp1mxy1DlviR13RkX8QFGUQZBgsPPLII2Nxi+xidSvDvIrrmPM6J1YQFOKbiugASTLtNqyVUIMrK5IVFxB1sFAFZN68+eL6H1wfCwwZEJk0SVx++WWCQ0JqRIW5rh6pFcQ3h50DgjkSIw76tOjVt0lg0lRWW/D12pKSFtMCgnAutrVr14rrr78+GPEOez6AAcsLjdllF9Gnd+8KKOg8FbRColchc81t33cqBZEq4vAHQNWHoC42h/0YNGxsHm37vCKPI0DKctQ5IKgs8p7CTCybFUwwVoFt/KFdc1peeL5FvLjgOfl/TKiaNm2azPaVYK3ZPjFt6dKlYtmyZVUKVNTYR1LHPDMTiwryxdQKS4G3WYozkg42Ol2WH6IDJGwtLBUQggE9PLZDDu2Cg2+6lWRsno0sb8JhYubPZtkenvi4NI555oCgQB9G2KNeLF/KJ+mb4Q2uDD/EBpCwZYNsTR/d9GbTM+PQ6YBL+qxN52UFB8pPbWLxSvoACeobpiTYnwYUPvhWxog6H7HGvVDmLE0TjlpNxRYQXeNEB6RuRQChXjNN1EotK1NAfPJHbHrApKBQJMsFQHjmbFRPXZT5E1WPNPuz8DtyMbGoUF/8EapvHqAQIGX4IaqCqIDwdXrpGUA1AEcZvX0aGNRzszStqOxMFYQK9cXU4g8YoGC7a+ZPQt+ZjapQJMsFQCi8St8KoZubPWu2wIrv2GpCOYS4euSQfldlCVzmPkiFP+LwJ6XDHqItKOSr4Cdf7xYA8cG3oh11VUEIEHUAEDlW8E9qBZAs/Y5cTazA1PJofMQEjI35FdVjleGH8FmFPQGQrP2OQgDBRXzzR8JAsTG/dOeXMWDIAaH0jhtvvEGuTMI3vnhCEWkfUZ1Jkv15+B2FAVJLkNBDi2OC4Zwy/BAOSFvbKvHV074qogApKu08CQSmc/KGI1cfhN9UrSiJ7kUh9k9pF7RfdfSL9kNsAeGri/gGSBFwFAZILSpJWE+oDkQW7YfwOSGU8q5GsVB/HslKM0CYpSrYlFUUHIUC0pMgcQkQPHf4GlGA+BLqLRKOwgHBBX0cI7Hp1fgxas5X0X4IV5AwQLwL9WaQvh73XeYyUBhViZ4ACVeRogHRJSzqFIQDgnfmdCSrBDhKURCCp9YhUc2sIh11HSAI8SKSpW481Ouso14SHKUCUus+iWpmFemoq4DQiHkUIC466kX7HGoHUoqJ1VNCwHwGY5EDhraAqCaWa4CUDUfpCkKg1Oo4SVl+iJqPReFcriCtra1BsiK9B5cAcQEOZwCpVXNLNbOK8kNMCYtRwRNXnHRX4HAKkFqFhJtZRfohuoRFEyAYA5FzQjTzz6Ogynq/S3A4B4iEpAaygHmj4WaWS4AUPU/cBqQ8s3Jtrq87pnQn3VTxWvFLuJlV1HiI6qS/+eZScc7Z58hH7ZKfEbz7EsO4UeA4C0itmFxF+yEqHHiOHBDXUkpcM6mcC/NGEVwLJlcR0SwdGPRsKeUdvzsDSEPD/M729qtHDus/P6oNlLnfaQWplfESdVSdPk+Wxcc+w8Dgz8+pyVEOm1TeKUgtQGJasI5AwXf9dN8UN/WcgAIbreJuOg6mFZb/5ItPl60grptUXgMSRLkaG68UnZ2Ty5TeuNfWrQuslkGQhMHS3DxcvL5wYcWpC9nv9HllU/1Kc9I9Mam8B4RuwLcoVxYLQMSFUj2+LDh8Uw3+3LzxQUyNw0dQcC98hfS0DT/q/LIGAn0Gg56p94CQ2SV69ZrcIMSVUY3Fxf26ee0AiG80750G+HT3QZ8nwD46rpTRcU/NKd0zrQlAfDW7XIQ1VZ1qCIyaUhD1pfpmdqVqlI6cXAvmVM0rSB2U4mmpVTBqWkHqoOQMSg2aUqYnVlM+SFSzgOmFY3x15qPuL/f9PQiMHqUgOkWpgxIDpx4IRo8GhDcN6dA3NHzGt5H5GM072aHdUOBk1xMKk92g3Vk9ysSKeiQ9HpY6FFVNpA6IgZoeA0sditB+sw5IlKx0f+ekZnyWhgY5/wJzMXq6+WTx6rP9DLTNBWvhmCAa5oPvwoDoyb5E0nZXV5CkT46dh1mPyAWTKgNoZBddcDo+gdDZ+ZS8fkfH/DoQ6V9uHZD0zzC0BA5PBUD8LBNM3Y1evUAnIOjoCKaq1kHI7yX+P4Igm624TrfCAAAAAElFTkSuQmCC;" vertex="1" parent="qA_CRGKP_DHO0OBm4st0-23">
          <mxGeometry x="28" y="359.0005882352941" width="50" height="50" as="geometry" />
        </mxCell>
        <mxCell id="qA_CRGKP_DHO0OBm4st0-74" value="kublet" style="rounded=0;whiteSpace=wrap;html=1;" vertex="1" parent="qA_CRGKP_DHO0OBm4st0-23">
          <mxGeometry x="16" y="320" width="74" height="25.29" as="geometry" />
        </mxCell>
        <mxCell id="qA_CRGKP_DHO0OBm4st0-75" value="docker" style="rounded=0;whiteSpace=wrap;html=1;" vertex="1" parent="qA_CRGKP_DHO0OBm4st0-23">
          <mxGeometry x="200" y="320" width="80" height="25.29" as="geometry" />
        </mxCell>
        <mxCell id="qA_CRGKP_DHO0OBm4st0-76" value="kube-proxy" style="rounded=0;whiteSpace=wrap;html=1;" vertex="1" parent="qA_CRGKP_DHO0OBm4st0-23">
          <mxGeometry x="106" y="320" width="84" height="25.29" as="geometry" />
        </mxCell>
        <mxCell id="qA_CRGKP_DHO0OBm4st0-77" value="" style="shape=image;imageAspect=0;aspect=fixed;verticalLabelPosition=bottom;verticalAlign=top;image=data:image/png,iVBORw0KGgoAAAANSUhEUgAAAO4AAADICAYAAADvG90JAAAAAXNSR0IArs4c6QAAHOBJREFUeF7tnXusH8V1x+d3ubavX5en7Rjs2DgUY5niiALBRI0NVERqMEGtK6G2qG0IUqIqVZHSquo/4H/aqkSqVKmiEo0a1P6BKiulNqhKIhKTNnYFLY1BBgMJJhjjEOMHNvhx/fi1Z+9vfsxv7uyeM8+d3T37jx+/2dkz33M+c2Zmd2d7go9GK7B+0+Z+7Ab0emLLzm1bH4l9Ha6frkCPXpRL5qgAg5ujV+LbxODG1zjqFRjcqPJmWzmDm61raIap4E4tXy3OfHI17USk1MIfbRuW4KFyEEmDVsLgBpUzfWUquCc+e4/48LZNQYxY+uiDDG4QJeNUwuDG0TVZrQxuMqmzuhCDm5U77I1hcO01a8MZDG7DvcjgNtyBjuYzuI7C5XIag5uLJ9LaweCm1Tv41Rjc4JI2okIGtxFuKjeSwW24Ax3NZ3AdhcvlNAY3F0+ktYPBTat38KsxuMElbUSFDG4j3MRD5Ya7Kbj5DG5wSdNWyBk3rd65XI3BzcUTjnYwuI7CNfw0BrfhDmRwG+5AR/MZXEfhcjmNwc3FE2ntYHDT6h38agxucEkbUSGD2wg38apyw90U3HwGN7ikaSvkjJtW71yuxuAaPHHbPZsf6ffFhlychNixUf7OL9I3xGMBzGRwDSKu37T5B0KIIRABdG50FW3fumbQUT/c74vb/+vprTua4CwGl8FF47TN4EpopQhNaSuDSwD3+CdWosFNKTD587eGxWBjt1DH7P2vFVWFshPqUm1tSjDb6nnr3Zs39noCRlcjRxPay+Ai4AIMez7/e7YxYSy/9jtPDIE4fN/XRQh4AdrLn/xGcb39n94o3lkXZmq+/oktwzY0IZBdHFQ1Jcq9zQwug2uM+baDqw+Rj/3yBnHJy881JvMyuAxuJ8HVN5I/9IePiXNvvyqWbv/bRsDL4DK4nQNXz7YHN/2RGP/kmkKHpsDL4DK4nQNXzbYqtFKIJsDL4DK4nQK3KtuqQpjgzek+L4PL4HYKXH0lGea2ZUfO8DK4DG7XwB1+T9g0TNbFMMC7Y9f2rbe73H4KeQ6Dy+B2Blx9mPzuHzwqZs1bgPI064dPjtwqyuEeL4PL4HYGXJthsirK2ZMfiiv/8U9GdKp7vsvgMridBBceuDj7ufvQbFux0lzrkJnBZXC7BK7V/FYXRh8y15l1GVwGl8El5l3DkLm2rMvgMridAFd/E4i6MJVr1mVwGdxOgOu6oqyLk0vWZXAZXAaXOFSWxfS57q7tW5NzlPyClhrVUly9bcDv4wqRw31L30DQh8pVT0xh19Kzbh2LVI0HFxyCCW37e68nHpZ7TjG4hXo7+n3x8Zv1toKWlE+5v1NIcKE5i/7uq8NWMbgOAaG/V+lQBXpKqC1hYm9dAw2JYSsqkFuBpCuyoRanSobLSdsCNjQ+46YA1y0u+SxEgaTBHhlcoc5z5ShwbExsrNrmt9cTwy03dm7b+ohNxDC4Nmpx2ZAKNBpc08sHA3F8p247AGgM5FaBC5ulHV+yIkhwwcZucMCGbic+uylInQt/tF3IHRlD2Tr53s/E8h9PbwUMG6JPLb82iK1yAzoYeu8PtAHd8t3PqbtHJgUXRMFeoLcRzvT8ss35lLKwKAjlTBC3DtzQuxwCuLAjY4gDYJDgws6RIeajMG+WnUyMLxnEWpyDBa/Ur8ep4No+q6z73wbc40tWGcNn8r03qWE1IwszuCXSyV0OGdw429PWBO7wCxUxwJWA7l93ZxFVx5dcTQJz8r194uIBxMt2P1t5jrw1x+AyuEYFlj764HTwRdpXum5woW2ujz3CuXKOC7DagorRvPylaXjLIAZ4GVwGtzPghlxZhqHyR0ffFe8vXIRx6Py7zMQ6wAxuhaQ8VG5fxtUXqHyGy0fOnBZHzpxyhpJ6ImRfDdxibYAzLmfczmTcAbgjX2J0GS6ngraw95/+fMQ/PMdFujzOuO3MuPpw2Tbrnjp3Thw4eYKaML3K6dlWfWacMy5n3E5lXN+s+5PjR71gpJ5sGCKPPJ3F4DK4nQPXNetCpoWMG/uARam1333cOESW/8ngMridA9eUdbE9llPNaynQgv0MLoPbSXBNH7Uug7dOaMvudzO4DG4nwTVlXfg/Hd5U0JrmtFUPqTC4DG7nwB1k2+FmCaoAKrgpVpBhaLx897PC8Nxy5bPcDC6D2xlwq4DVs21saCuABVPQFzAYXAa31eACrMoL7cZ3ZeFe7smb7h5+RygmtAiw5P29GFwGt3XgKpkV2lb6YrsOLBSOAa2EFeqveJWv2NeLug8Xg8vgNhpcuU3MYIO/SlBlQ03Ayt+qHrCABaQPSt6tVUWEV/Qmf76v+C/CO7dWwMrr1AYubFBdwozVf/f7xY6MxRFyt4Ym7oARcreOFDtgqHsuYU7X9m5y2h6mCli4ftUDFiWrvpjZVb87AVsruKZ7aD4K8LmsQJkCGKzyPOypKP1hf0fFh9vcUofEZdepJePqn4NwFIFPYwVmKACgnlq5TvSvWE76aDWWaeF3x2xbbAQGo4oLF8QOX1D1hjK4HPyNUgDAlAcACgdACgfl6/J6Y7FMawIX3tIBGE3ChQY064y76/6/qAyeayYvbVRwsbHNUIACrf7scC6fY8ki4zK4zQj0NllJgbYs22J7HqfQicFNoTJfIysFqNCC0fqiVB1f5jOJVwu4I1/DW7JK7LnryzxUziq022kMPFxxZOoU+Z3aqh0o6laoEeBeNW+hmDs+XrdWfP0GK+DyRFSu2RbcwOA2OBjZdJoCLtDmnG29wIWHKFyXvm2HypxxaQHKpWYq4AJtirmtDz9e4A4eothg82C0lJXBnRlg859/Wnx0y93Zsgf2TV11rTh7VZiPiqVoqOtL8LGzLcQ/5Yt8VRo5D5XVp59s723ZgnvZnLnisjkTqK9nHXhdzD7wetYA6I0Am+e/8IyAP+E4du9D2cFxyVN/k7V9psCQ0MqH/Ms+vGU6N9bcVnsfGH3nNgq4+gelbeCNAS5khHkvPJNt8JucALACFPpx8uYvZNH55G5fWWCr0K797j8Uxd654c7hN36qgIiVbU3P5/vcWnLKuFXPGlMA1s/HHsCAFWWY55YFv5qxZJlcgt/GZrUs2A9HHcNnfRRQFug5aizv0cJ2MMsGH8+S9kPWhS/oyY90pci2VbtuUFgp094aXOoLAlVG+YJLDSxodC7BZWNzXQA3wcayQJb3aKENy3d/H30PFjIwHCrEIbNtCE6CDJWx/XoqLzL4srZ8S0IfNuy568HSb4nKOcrVRw+KWe++MZxrVV3P9JvMYCkWWOR8FUYCcMh/29psGkKHzsIS1hh2ptJ66vx5MfH80yisZfrLTKxnaOpQ1uVlfs2WGR+uxmIFzbg+wGIXHw5rL71SHFm+RsAD3fIg7BxArd5YDlZHz175S8VvEGDyoKyaqiDCYlgR9O++ERRSSuNkZ1TVBr3TAHvrsFXVW7XXVm84V3aIITubEr2Hr+bB79rL/PIUp5f6TdeDUSr8P+VZaCO41D17KMHFZVgBVsBeAQziAlwG1V5YPoMVSKhAMZRWszE6VI5lnHo76eDVN4q3lt+IXuqiSybRMlyg3Qr0z50TFz48GayRk6ePibXPbx3W57PSG8woQkV1gjv8wDAsDuxZfQdq7tiCeaLHLxugOrW1QP/0GXHh9JmgzVv/w+n7vPKgLkgFNcKhstrAnXFL6K6vCXH6VGUTAFqAl4/uKQBZFrJtyGPR4X3imj3PNi7bgsG1gavfEnph44Pi3IU+6hceLqMStapA6KGxFKepQ2Rpf23gggEu81weLreKy8rGxBgayws2dYicC7jDeS51gYqHy+0HF7Js//RU8KGxVG7tS8+IyWMHGzlEzg5cMGjX56q3sJFG83C5vfDGGhq3ZYicBbiu89yxiTmiNzGnvdHbwZbFzrIgqT6vLZLF9q21ThddXV270S7zXGgsZ11Xl+d3Xsy5rNpafV7blHu2Jo/lAO5wnlv0gITbQlCOs25+ANpalCLLtmleq+pbO7j6cPmlX/uy+GiKFgJNWWG+adH8okH/fegjWsM6UCpVlgUpm3y/tiwUagcXDJuxIwbhKSo4L/cV5q+uWSy+smbRiPZ//+oh8dirv+gAmuYmpsyybZvXZpVxdXDh39SHMYohc6aPQUpotz31b+L1va+J1/a+Jr7+Z38qVl+3utB/3bf3dA7eGE8/VYloWozq98XtrruT5uSwLDKuPlym3tPNNeuq0G5/atvQ349/65vDv8Ow+YH/eCunWIhmS8phsWyECdomL0bpzskCXO+sm9ntIQD39t4R8Y2/+usRvTfde4+4594vCsjC8Gfbs27qYbEUe8650+LGnf88on2boC0SVrRu1rJiPev+9Fe+IH4xfym5lpxWmXf/xtoCTjXbqg2B4TIMmyHjtnHBqi5gQePxsZ64ecfjrYY2K3BNWZf6JJX0Ui7z3W/+6kqx8PA7MzKutFNm3rZl3DqB7RK02YHrm3VzWaySc1wYKsOilH60Ddy6ge0atNmB6zvXzWmxCobLAG3ZPLcNt4VyABZ8bprTCiG8vhRAnqPVVDCbOa5sv88Ks6wjh/u78NAFDJnhULMuzG+bDm3xQvu588F3o3BhoIvQZplxTVl3zy2bxfGJS6z9mmLO24OX//t9Mbt/XpwZnzXDRhg2w3HTFdM7dzy291BjF6RyybBS5K5Cmy24IYbMwwWrCLeKANYrDr8teh8eFStf/v4Q1pfveECcWnCxdQeT+wm5AQt6tf0+LRYT2Q2VQw6ZfeGFgB0bu0jMmjolLj5xaAaouri7f/1rxqyLOSHX3+HBif6589FeaHdtd9ehzTrjgnH6hnIwZFaPM+MT4vzsuST/9+bNE/2xsY/L9vti7Px5MT74r9nHD4uJ89M7CF7+6s6RHRIoF9i3/jfFoUUrKEWzLpNjdlUF018YKIK4J7ZQdv/PWnhL47LNuLId6gsIlm2LWvyGLz0k1n/qSvG9906KJ9/6IOq1UlSeO7Cggb7lTFehzT7jgoGm74qmCGT1Gp/57S+JUxMXi9+9efobQ5fOnT38+eipKbHx36e/G9S0owmwgqYli1CdzLQyxrLPuGCo6ZOFq675VNGGN3/yUy9eNt55hziyYl1Rx20rF4tVi0ZXr1VIyy70l/97QDy575iXHalObgqsUg/TfBbu0fb7Yksb3vJx9XsjwDXB+5n7fl988ZbrXds9PG/+3Lli3twJr3pyz7oSVmhk6E3FvYSrOBmeOV72s/8RS/e9qJdq9YMVVD0bAy40SJ/vhoIX6gaAZ42Pi1mzxqnajZTLLes2EVYky3Z6aKwHZaPAjQ2vFMcV4jpfGmgyqFL3iiwLz7i04gV4p6xgOKlx4KaCV4UY/k4ZTu8/cVrc/T2/OTfFscPhbnGPNb/7rJQ26GVK5rJQrPPzWZOejQQ3NbyqcJCN4YBhdfGnNrQOPWSWzwUDoE2ao1LhrcqyXbw/S9WtseAO4B35ShisNN/yW/eLGxYtoLY/WDkAePbgWeVb//UVIcYvotU9AHIaymk42wioSYyV+180LT5xliVETqPBLbvHe8MDfyzuW7uM0Pw4RX78/knx0H++HafyFtRqevpp2GHxXJbk4UaDK1tous9bN7xP7H1ffGvv+yQndKVQxTy2yLK7tm+9vSta+LazFeCCCCZ44XbRilWrxKcHr9T5imV7PsM7rRg8+XTNK8+WPf/Ni0+2gZXTZnEOts84xQQvFKoz+3YZXhgSLz7wCgMbIri1OlqTcWW7BvPeh/9/6LVRbSssXN26+XfE9YsnI8hYXWWX4K1aJZYq8Wqxfwi2DtyqeW+d2bft8DKw/jDa1NBacMvmvVKcOobPbYMXYL300JtVw+Fi0anrLwTYAEkt22pwsexbRwZuA7yw2LT04Ctl92Cl7AwslUKHcp0ANzeAm3afFzIrHCVv6+hhx8A6gGh7SqfAxYbP8PuN939FnJs9keQBjpyzrxwGzz95FMusPBy2pS5A+c6BS8m+sgxAfN1Vi6OuROcCL4B60dQpyhB4OBSGv/D8NQCFDlV0FlwV4EEAwi2k0gMWs+BY84nLxLrLp/dIDnmkBtgyo6pN5aFwSMc71tV5cFXdyh7gMGkrh9ShQQ4NsMykkx8cFMRhr97cHb2eeO7CBbGjy1vFOPIV7TQG1yAtAEzJwuqp8DHu65YtESuunf7iPADd7wunxy0BXjgozzrLhSMY5sJq72WH3izONWz5YhNEnFVt1KqhLIOLiO4CsalKABsOgBuO03MWirMTC8T1S2Y+yTU+dboo8y8vvlFkSfWYf/Sg9Z7PSBN3DDqpLfAnZ9UaKHS4JINrKVookC0vG6p4ASkPfUPJWV89DK6H9vBc9NjYx89E9/tig/6MtEf1PqeOAMqZ1EfKPM9lcCP5pQRq/WojL0IYTCkA1A/ImPB/sGCk/sbD3EjOzLBaBjdDp7BJrACmAIOLKcS/swIZKsDgZugUNokVwBRgcDGF+HdWIEMFGNwMncImsQKYAgwuphD/zgpkqACDm6FT2CRWAFOAwcUU4t9ZgQwVyBbcwZs6G+TDBju3bS0e/OejHgX0B0rYH/X4QV41S3DXb9o88k0gMJa39KwvUMped+RPX9bnk+zArXondtf2rdnZW5/r0l3Z1JEOrs6fDUnnhpErZQdCRZDwx41rCpIqn3BnWo9TGNx6dG/MVcu+iCgbwODW40oGtx7dG3NVBjdPVzG4efolG6sY3GxcwXPcPF2Rp1UMbp5+4Yybp1+ysYrBzcYVnHHzdEWeVjG4efqFM26efsnGKgY3G1dwxs3TFXlaxeDm6RfOuHn6JRurGNxsXBE/44KzXXccrPvJKR/b63Qx2K1e31V/vQ1NB1fVRW6l24bPqXhlXPnGyGA/YfB52XajxfdnoAD2VkkqcF1sp9ifAt4BTPIjZaQtXkF/THuT7aHBVWzfCC+OxIBIvllG3OO6iE0XbWL5WnY20NFobA1ttQZXCfjKr9shjSoVKza4auC4Cl/Xm0p12B4S3PWbNv/ABFOIt4xCaVNX52xp/w4yuJYVk5gAAHShYoFr2QuT7U/RU9t8RZBkuMVrkqHALYN2YK/zW0Yx4hJsCtGZUHzhaj8J3BiBozZKzWChwXUVhiK6LBMrA6ewHQvQEOAi0IKMTuCmjEubeKCU9fUtCi5BdIqdlDLFpx17PQHDKeOBBZl+UmzHlnU+lMZiZTBgsPOpv2OaYnZgbwcR48cKXN+gp2ojRwMQl6EW+6DOEHFZCm5icUhaYkGmVhJCHJJRSqFQmTex7ZXQ+IBLhNZqd5PE2gy9m5lvzXNczFm2AR2qPBXcupwL7fR1cGrbMXuxWCjLuG2CVsYvNf7K4p2qCcJL0dEaM67DBYpVYvn1OBhWqEvaYEi/L3xWoYu2UIRzCPwR2+E60n5538/WdgyGMse42A7DOGmzaaqAaY9p6gIuNX5sdMLsMGg69KtpmOt4d8RqSO85Aqz8VOoMcG2Cx/Y+nE3dpuDGgsyy/mJOTZ272K5KY7bq7bMMTCvblXmV+v1eUh2YXXrGjQEt2F+1aKlpSWqXB1TW8MaIyxFwqRew6SlNAFKvo59bBQMWYEpd1o51dLKVg6mBadsh+E5TMF1VcGNBS42XVHFpcx1MP9e4HIJLvYCN0VVBQ3WGWkdV0BKDxgqmKvsp16NqRdTCq8NxBRiLCwkuRQ/XNQBKpxaqQ8PaazvfpdhOjRPVh0NwKcHjcoGqgKGKhIlFsd31XqEvvJSAIjg3WIdjCzDmIwA3JrQU32K3pGzbPBiaG5/ywmLRdnTmytQQXCx4XC+AiYYFBiXj1uVcioOxDoNiOwV+TGfX3wn+gUUU7Hlp59V2LC5jaEPxCYUHzHZKHWV+K8ClGBqjV5NGUa4PZcucFFMgLOAJgS2qtKvTdqxt8DulfVg9rgGKxYVrvb6jKMqQH7Md69BRTQdZY8YnP0bG0z2xJfYzuZThlglcTKAYztVFxWwo63Cw8+A6MTtMLDhCgOujP9KpBZ0+WD5whF4b862PLkXHgfWovhegBAc1QEwAYMCnCnyXIIvtXKr2VeWw+Kg61yd2Umpj20bK8LwqHnx0kXpnAy5lvlgCbuloIYRA1OB36UCw4EzV6cQA11f7VNpg19G0Ia3sYx2BrzZFxsUMTxk8mC05g4s5y3a0EMK51E4nNLghbI/1GqDaVizedGjhUUOKpli9IZjCwEXH8pSGUMvYBj9WPoRAVNuxtQLbTocyHLOxzbUsprGh3iAxE3uoicHls8aD1B1En8p7cCF6TpuAwYJED2ZM/BrALb33Z9Iy9LvHNlpTy2I+cc1KPlneNy6xaY0PtHBuVVz62j6c41Y1ItRFqEFim7VS9GyWtpPBxYBI3emUtROzUzkvSCaB+rBrusal5cqxz71nchzYxNdIh8Lguko38zwbLbHgbBq4Ie3FtHGZRmB16t50uYaswyYOXKMvq6FylzKubVtdHex7nkXAB8u4obWxaANcmrRyXKVr7eD6Pt1hGzSYwHqvblve1h7b8rYLKjzHLVfYVsuymrB1kBhz9CTg5jRPxERuMrgduh0UJPOGuB2ExZPvIlRZZ5EE3JyylksnkkvWwoLEFtzUo50Ai1NqFd7w+oIbe+W49qEyBq7PJD3kULMskF0eNbS1i1IeCxTT4o0L7BRbQpbB4qPiWl7wYtcN8G52YbrrCnX24Kbq+bEgLhMYAyZFx4PZDk42gYsFZyrtq4KQYGPV6V7w2nbKtrbGio0kQ+XBCp73S8O+vbzr620EZ3kFD6VdGLhVvTrW7pC3WSht0csQ9MWqddbfplO2tNN75bj2jAsGUBodM4CwwMcyD+bgGMMh6TiC7dj7uJWdZkzbMeKosUGoxwleQlwW9VJ8oNjoZAuhjcMiyTIuJeti8Ng0TC1LER0LXkodMYZFhMBC51Ah6nDVnnIewT7SDhiu8YN1ylAvZQeOWPNZk4ZJwSU4CA1CSiDYQls2P1TrodgO5UPCS70m1ukQO83g2lN9hbXTZs8pF3ix61PbQfEDtS6sXFJwqQEU4skSuBYlS9r0kqHrq3KORTCRhmXU+lIGn2w/ZluiXR4rpxMYSKl1Sw4u5iRVIB8xCMOf4lK214hVr8sowTbDUzseF100CB+mfmQczsNiIsW+ypgNVeBSR1mDaxRf25Bf5aBulq9fPzm4NplwYCz5a96KMOiOgFII2wUxWwfbdAwDsNQvAVR29DZ1y4qoHY+qPeWL7hXaoyMCTNNUXzLA7DA5A4MWi0ns/LIAqAVcB3il/QXE8A/5DSH49k6/LyDY4SADa5utXDOict7Qdmm/j+0u0FKyGzIkHGkDVXcsODFgXB4ske2w1clmVKJpVWijaEKNR7RjM/mkNnDBGMveH4kpu59tHarX7uFgO0MNpRtoe5TPbFJ9YKtX6ri0HfVh7Ni2tywgKz9sTRXfO9qVCrAMQL1WHbaHckpK2zGbXTKu9BG1HbY+p9ZLjZWqco0E12PY7KKZ07Ck6kIpHWwbfJhAGDDY+dTfY4JrET/Wvk/hW0ybMo1rHSoHmDdSY8d69Zhc8cerorBaaDXHtriGddBZ1E2+bWZTp1IWtR3rQCgZiQAZaocLJI6ayNOi2OTaGehtqRwqJ5g7Rn1mNHLn02TbrTrLsuepbYIw5gZqUDf42vYD5CVge/u1KuOGGplZgavNXci3RjSBvIXx6UkDOLk2+0PYPghw8ge9oXxZ1rUNwjJ4KVmb6nNCdi+rKphfy/Sy6eiw9jqBKysFA+G2ify34RYEPEc6vKENf3e9qY01xOV3CcIgmPXbVoXtqv2Z265PBYJqL30NPvZ5QEG5H15o2+8Lq06E6mc1NgdxKfVJ5le1raHb+X9e2rKXCMkRlgAAAABJRU5ErkJggg==;" vertex="1" parent="qA_CRGKP_DHO0OBm4st0-23">
          <mxGeometry x="124" y="368.1952941176471" width="37.625" height="31.61764705882353" as="geometry" />
        </mxCell>
        <mxCell id="qA_CRGKP_DHO0OBm4st0-78" value="" style="shape=image;imageAspect=0;verticalLabelPosition=bottom;verticalAlign=top;image=data:image/png,iVBORw0KGgoAAAANSUhEUgAAAMgAAADICAYAAACtWK6eAAAAAXNSR0IArs4c6QAADlhJREFUeF7tnUuPXEcVx6sdEgcI4ySGEGRsTBwrjsQEECgsUOQRUoRg56VXsEmExAq+gO3Ad0BhAfKKZRAbhCKUGVksSAzEGAlLE4fY1vAQcjxjkwcJ9qBqT83c7rmPqrrnVJ1T9e9N4um6dav+5/z6PO7t2xODFxSAAp0KTKANFIAC3QoAEHgHFOhRAIDAPaAAAIEPQIE4BRBB4nTDUZUoAEAqMTS2GacAAInTDUdVogAAqcTQ2GacAgAkTjccVYkCAKQSQ2ObcQoAkDjdcFQlCgAQIYZ+6eK1JWP2LJ1YPHBayJKwDGMMAMnsBlMwJvecMmZzabqUTXPG/gegZDbM1ukBSCY77AJjfh0AJZNlZk8LQBKbYRAMgJLYIv2nAyCJzBEMBkBJZBkAklXo0WAAlKz2QwRhkv+li2unzcScYpoexTybsKhBWKVlB6MloqDjxWdSRBACbcnTqJg1bZozACVGONQg9KptzSgCDEQUNvvaiRFBIuQVCQZAibDk8CEAZFij7REqwAAoARYdHgpAhjUyKsEAKB6WHR4CQHo0KgIMgDJMQc8IANIiTpFgAJQoUABIQ7YqwAAoQaAAEGPKqDGCzN4yGNdRWhWsGpDkV73HOnGK4wHKjMpVAgIwPEgDKFORqgHEfaWV9QZCD79TN6RyUIoHpMrCm4PCSkEpFhAtYLy98cG2O1/f+K95++bOv5vvtfn8w/vuMw8v3Lf91tFDn+BAY3bOykApDhDpYFindyAMARDr7Q6c/fv2Gvv/LK9KQCkGEKlgOAhWr90yXEAMAfD4wQemQ1giTOGgqAdEIhgWBAuEfeWCogsaCwtAGfpI2XlfLSCSwZAGRZs7sEWVwiKKOkAkgrF69ZZ549p//D+WBI109Qp5VCkEFDWAAAxeqhBR2vUVD8jdq96T49uP5uT1E6/ZNUeMoQ2iRplVSCwgEm8HccW3hhpjCISh9wHKXYXEAQIwhlw37fu1gyICEIn1hXPDlOlU86Keu0JuL/bZl7242Hy5K+4pohknJHZPkh9XlBUQyWCkSKcsEEcP3r09ZMwV71RX5+1ax6yzM/YJfpJ9FkAkg2GNyBk1HBQsjrblgXb99sXRemaLJnbBAkFJCoh0MLjgSAFF16czB+yskAgDJQkgGsDggoPdmTxrdmpQkuxLQERhBUQLGBxw5IwaqaKJ3ePXvrDfE9ERwzKCwgKIJjA44Ejy6Rrpb7ag//1frkce3X6YhYSzpto+awZQSAHRBoYT/te/+weZw0iGw21SNSTbNcqd5ROLB5fJDNcxEQkgWsGgjh4a4CgGki1QuK+hkADy/Z/98U/HDj1w4bOPfvw73ERTz08VPTTBURQkzKCQAPL8i+c37To/dv9H3jr+lU8dpnZirvmoOjsa4XCa2nqE8mp8ssK9zSkYbrEnBcSt+dFPfnTly088eJzLsanmpYoe3/r6Z6iWlGUeKh3s4kV8WBCCwgKIFeree/e8LjntoipURTjESKwoIqm0tvbfrt5a+eG3jy2NlIbmbl6XYrUtRmraReEUdr/aowdFJ0/Sh8S1v7/31r+vvzdN8390cnF0ABg9gV1IHyBS0y6K3FuSY4z9pIxJsyTtvwmG00IVINLSLgpAkl0gG+v9HseHAJK1EJ/biwXjnXc+WHn3/du7OqjqAHF7k5B2AZBZT/PRQ1adMVm+tLp+pQ0MtRFk/oMsZ7fLxyGGPnhLiiB9esgCwxhbgN/Y+HCwS6o2gjQdL1e3C4DM4t+WYmkFo5gI0jRR6mhC0eaVlIsPRbu+9+c7etLAaCvAffZbRASZ3+jikYWzKW5ZASA7yjtASgGjyAjSBMUW8U8eXlh/ZP/eL/l8UsSOCencdJ2jhDrEAsL6JPhAA63f/PD1f/7r3Qt9BbjPlEVGkJRpF8XFwlLSLB+H4x8z3JkKWUPxgDgxONMuiigi6YJZiANJGuvbmQpZczWAWFG40i6KKGLXB0hCXHdnLAcYxdcgfVJzdLsoWr52zdKK3DiXTXNUbGcqZHVVRRDubhdFquXWiGjS7cZ9t4aEOL/P2KoBoU67KNq+80YDKE1FaAtwAOKjwNYYqrSLqh5pA8X+jfxHagI0yjc0PRhV1yB9hqbodnFB4moU91DqGmDhLMB9gK8+xWoTiaLbxQlJV3Rxf3dPc+9zAPekd/eEdwudJOBSFOAAxEeBnjFj0y6OmmTklloPl9Q5kwIGUqwATxubdlG1gAOW7DXUNgCk3B6SsjPlJc7WIKRYnmqNTbtSplxDW5LVGZss/+KXf3joiSOHvzi07hzvA5BA1cekXZy/uTG0DUlplFvrb89d/s35i6vftP9+9pmnh7aQ5X0AEin7mLQrZTSRCIbrTF2+smbevLo2tQAAGXBEn6eaRPoy22GS0y6JYMwX4AAkwDU1AuK2NybtsnNQpl4awHC63di4ac7/+RIiiA8nmgFx+xuTdrk5YmGRCkbX43TsfgGIDxlbY0oAxG5lbNrVlMz98qz9W9ePaUoEwxi/W0MASIWAUKVdAdKJGhpya0gTkK8+dcw8tG9B1F7sYtDFYjYJRdrFvESS6UPAaKtBAEiBXSxfz6JMu3zPmWrcmFtDEEECrFRKDdK35bHdrgA52YdaMG6sv7/+v9ub0U+NASABZqoBEMpuV4C0xEP9CnCfkwIQH5UK62L5bllf2kUHBmoQXy9pjKspgjTl0ZB2xRTgPi6ACOKjUqURZF4aid0uLjAQQQLAcENrjSBNqaSkXWM6UyGmRwQJUAuA7IiVK+1K/aUlAAJAAhTYPTRd2kVfgPtu/OVzr06H4kLhgGKIIO0Ccaddl1Y3zo59ArovDG3jAIinegCkXyjqtIu7APc0uwEgnkoBED+hxqZdqQpwv90YAOIrFADxVSrulnppYLjdIoJ42h2AeArVGOaTdqXuTIXuAoB4KgZAPIWaG7Y5MctPPbZwZfdvMubrTIXsBIB4qgVAPIXqGGa7XYuP7ztsv2EopQD32ZED5LFDB8yRzx3wOSTpGHxhKqnc/Cf79MJe/pMQngGAeIqJCOIp1MAwAEKjo5sFEYRWz+yzARBaEwAQWj2zzwZAaE0AQGj1zD4bAKE1AQCh1TP7bACE1gQAhFbP7LMBEFoTABBaPbPPpg0Q+2xe+70QXAcZcB20eWnYAiA0OqLNS6ujmNkACK0pkGLR6pl9NgBCawIAQqtn9tkACK0JAAitntlnAyC0JgAgtHpmnw2A0JoAgNDqmX02AEJrAgBCq2f22QAIrQkACK2e2WcDILQmACC0emafTSsg9ufX7MPjpL0AiDSLjFwPABkp4NzhAIRWz+yzARBaEwAQWj2zzwZAaE0AQGj1zD6bNkAuX1kzb15dm/4ENGqQHvfB3bw0bAEQGh3dLIggtHpmnw2A0JoAgNDqmX02AEJrAgBCq2f22QAIrQkACK2e2WcDILQmACC0emafDYDQmkAMIM/99Pwrk02zRLu9+mYDILQ2FwOI3dbzL7522pjJKdot1jUbAKG1tyhA7Na+95PXlm7fMzmFaBJnaAASp1vXUeIAcQtFNIkzNACJ000dIIgmcYYGIHG6qQQE0STc2FoBsTt99pmnwzfMeMTEmDMvnFw8PfYUk7ET+Bxva5M7eyav+IyteQwAobE+FRx2NUkAcdtGO7jfAQDIOEAowXArSQoI2sFlAWIfXG0fYC0gxVreNObMj08uLo9DbPfRyQFBAd9tQm0RRAIgHFGjaaEsgKCAb4cEgPh//nODkS3FmpcABfyOIgDED5BUcCQv0vu2jwLeGADSD0hKMMREkKYktV+BByDdgOSAQ1QEcdLUfD8XAGntIpFc8PNL3oR0sXwWW2M0ASA7nmEjxh1jljlatz7+JzLFaivga7o7GIDc9YBc6VQbOFnbvL4k11LA1w6IJDBURJDaCviaAZEIh8givS+qlF7A1wiIVDDURZAaokllgCxPjFmhuCXdN1WPGaeiBmnbWInRpBZApEeNpr+pBcRtoqR2sDZArA1ePvfq1BQ+X5jSBIbqFKutHVzCF7I0A2Kf7m6f8t710giHuiK99AK+REC0glFUBCmlgC8NEO1wFBVBmpBoLeBLAaQEMIqNIJqjSQGAsH31NaZFS3GM+i7WkAiavpClGZAnj37+7M9/8I3vDtlD2/vFA+IMouF+Lo2AXPjrGyu/euFEsQ8urwYQC4r0aybaACmp1uhpT2sLeuPWK7mA1wJIDWBUUaT3oSQxmmgApCY4im3z+sYYaQW8ZEBqA6P6CNKESEoBLxSQ4lq3vh+g1UcQaddMpAFSa9Ro+kVVXayhT47cBbwUQADGjqcAkBZqchXwEgABHLMOAUA6wkqOaJITEIDR7ggAZCDvSlnA5wIEcHQ7AQAZKky2fr03xReyUgMCMIaND0CGNZqOSJFypQJEylMLPaXPOgyABMrPWcCnAARRI8zgACRML9ZowgkIwIgwdOof8YxbotyjqKMJFyCAI96HEEHitduOJlQFPDUgAGOkcRFBxgvoZqBoBxMCouKphXTq882ECEKo7diUiwIQRA1CgyKC0Io5th08BhCAQW9LOyMiCI+uUV/vjQUEcDAZEYDwCeuiSUgBHwoIwOC1HyIIv77TM/gW8CGAAI40xkOKlUZnr5TLBxCAkchgW6cBIAn1HrqfawCQqr/6mtBMM6cCIBmU72oHdwGCqJHBSIgg+UTvagfPAwIw8toIRXp+/WcK+CYggEOAcdDmlWEEl3JZQACGDJu4VaAGEWIPW8A/8uD9S9J/9VWIXMmWAUCSSY0TaVQAgGi0GtacTAEAkkxqnEijAgBEo9Ww5mQKAJBkUuNEGhUAIBqthjUnUwCAJJMaJ9KoAADRaDWsOZkCACSZ1DiRRgUAiEarYc3JFAAgyaTGiTQqAEA0Wg1rTqbA/wH9qrJBWrcVOAAAAABJRU5ErkJggg==;" vertex="1" parent="qA_CRGKP_DHO0OBm4st0-23">
          <mxGeometry x="215" y="368.1952941176471" width="50" height="31.61764705882353" as="geometry" />
        </mxCell>
        <mxCell id="qA_CRGKP_DHO0OBm4st0-79" value="Node4-Compile Server" style="rounded=0;whiteSpace=wrap;html=1;verticalAlign=top;fillColor=#dae8fc;strokeColor=#6c8ebf;" vertex="1" parent="qA_CRGKP_DHO0OBm4st0-23">
          <mxGeometry x="296" y="290" width="296" height="130" as="geometry" />
        </mxCell>
        <mxCell id="qA_CRGKP_DHO0OBm4st0-80" value="" style="shape=image;imageAspect=0;aspect=fixed;verticalLabelPosition=bottom;verticalAlign=top;image=data:image/png,iVBORw0KGgoAAAANSUhEUgAAAMgAAADICAYAAACtWK6eAAAAAXNSR0IArs4c6QAAIABJREFUeF7tnQuUFsWVx2sYHgPyHkAFNRpF4wuNiKAxBvPwfVbX5CQYIKsm8RUTdXPIanw/dmN0s0ajsmpiTIBIctS4ie+TFUyy6ojPiaIBEtGALxgE5A0zs+dfM7e5X31V3dXvqm++PoczzHR3dXV3/ep/761b1Q2ivuX2BFZ8uHFyUHivXpMbGho+o71YZ+f24/gBDQ3z1eM7OzufCv7W0TF/5LD+VcfkdkM9sOCGHnjPmd+yBKFXL9nIAwhMjT7zq3cX2A1TAFAdnkyedB2QBI8RQDQ0Nl4pTy0ahLj1bWiYT9CMHNLvqrin9/Tj64BEtAAyk7wBwqJFdwpxNQ6rAxP9sOqAaJ5RBRSuK0T0Ow4/olth6rDoH1MdkO7n0qOgMCFTh6XqyfRoQOpQhIhLHRb5cHokIIGTXevmU1rzq/v8nuyz9ChA6mCkI6YngtIjAKmDkQ4M3dmApSc49jUNyIo1m69qEKJrvKK+5fIEah2UmgSkDkYuLIQWWqug1BQgtWRKvfj8c9oGecihhxXf+mNcsdZAqQlAfASDA3DXzJ/IJvjiAj0UuvZ5yIQuUMYfOlH+/Ma558doxvkeKp35GskF8x4Qn8wpQJEEBtvmDGgADH66oDS1oCbeAuILGARFHHWwBSLquG+e+20n1MVnULwDxAdzKgsoJnxyf9m4JxxygBi9Y3PAwjvvt4kFL74qf1/w0mtRjMj9ToCCkfn29qt9m7/iFSCuq0YaMM77+lckCKec+DmrRk8HLX/nPfnfX/7692LOfY+FnksmWJn+im9q4g0gK9dumefq3IukYCSFIoyCNWvWiP+d/7S44oafhsICVSkLFJ8gcR4Ql02qNGCcd+aXYylFkoOfe/5l0bLgJXHH7Ie0p5cJCSrU2dFxtOsml9OAuGpShYEx7qBxYvq0aQI/sc2Y8T3R+kqr/D8UI2swOrZt0Tb+Xr37Bn9v37xe3H73b5wExXU1cRYQV02qn868NQjV8papgoF9AAOAYLvu++fF9i9wHgDobN8qy+ignwYoTCpDsPz3L35bhySmFDsHiDSpevWaF/M+cj/cpBrTp08T06ZPC64PKGbNnh2oBqJRP7/1Guv6ERCAwaQO1oUZDrxzzsNaUOomV/UDcwoQV00qnWqoYCxc+Lp44P77xZ/+9OfgKduqBkGxbfP6tG3f+nxnIXEsS9gZQFyEQ6caOlPqkUceE4uX/E20PPO0aGtrk4307psvF4cdenBog4VvkKdSRNHyQusicda/3VR1WOlK4hAkTgDiKhznnjm9ovHceOMNgfONHYsXLxGPPPq4PGbxokVi8aK/WsEBMIpUizBQ6pCEdyOlA+IDHDrVmDf/KdHa2jWiDdWAekQph0tg8GZhgmTm3bNKzelyIcJVKiAuwqH6G6qvgYZ1/wMPimXLlgdtjEyrMLPKVTjoJnQ+CUbeZ/5sVpSlluv+siEpDRAXw7jwObhZZQMHmVYmOOCAt2/ZkFtEKsvWqYOkbH9E3l9Dw/wRg/seneW92pZVCiAuwoEHNnHcPsFzg1kFn4NvqnKQaWWCw3XVoHvr3W8H0dDYR2C85Ac33VWV01W2qVUmJIUD4iocqmn1+BOViX8qHHhpjzz0ezH1S8eJSy76ZlWH5AMcAKKx7wAJBt8O+NQXK353wdQqC5JCAXHR56CWcO7Xpwcz+rhphYE/OOSIWPFtVdtK6Zy3PnVvVQNLAgd68aJDvv0Gj6q4J5iDTqsI8rcKDgEXBojLcKjmFQDB9kprazAirrNZr/neN8SpJx9f1ci2blhtZeICisZ+O1QcmwQuq4spB/Fr68wqtUxnVKRgSAoBxHU4VOfc1OAoARH7oSzqSDl6YBs4dGCgTGTeYgMk48ftnaTdW5/TZ8BQqRZnnH+F9cQrJ3yR7jssSklyB8R1OEzJh3gPzc3NYr/99hVTp08Te+y+e9D4rrv2OplSgkb8i5k/CP4OOKLyp6hh8paMTNvbf/brisZ91tQTxdnTTrJu8HEPhHmFdPgzL7jW+lQnIlqstkVAkisgvsIBML559lni6Mn6L6YRIHhX//fI3WLIkCGy148aHVeVA1NmAYZp6uwLj860brxxD0RdSLG4WmHQ8IW/LNYmM7pkZtH95g1JboC4mpVLD1anHADjC8ccK77whc+JXXYZU9HmMDC4fPk7Ytny5WLek/OCtBIAMmiH/lamFXeKdarBG+r4A8fmqiBRQLk6uq6rd54Tr3IDZOWazZ1RL6Gs/TqfA3BccOGFYuLECUG1AEXLcwsqRs2xk6eWAJABfTojTSvY+zCvsKlw5G1OJX3OOkhcM7Po3kYM6ZdLW86lUN9MKx0cunEPehkckEfvvUmMGtoU2QbJ9+BwuAoGvxkVEhfNLFnfnEbbMwfEdTjwLPmIOX6/+PuXBP4GVANwhG0ckDt/eJFVxAmA/O7xP4nL/uN2WbQPcNAzQEo8QKGtpbUra9m1LQ9/JFNAXPc78EJV32Ps3vuIW2+9Wb5rGzhwHE9ttwVkU2c/ceGlP5IOuU9w4H5VFXEp3KtCmrU/kikgLvsd9CD5iDn+ds211wZ+x8233GbVKSYBZMlb74uvnHOVVBtA5dvGVcRVPyQPUyszQHwwrVTziqtHS8sC8WyL3eLRfOagbSiWemFbxXENIK4izvoh9NAy9EcyAcQXONToFaJWJ5xwnHystuqBY5GkiA0DeTCXbDesT5Xn4J9tPZIc5xUgGaajpAbEB7+DGoQKCJlXcdSDO+hxAUnSMMs6B0Co6S7czHLVUefPKwt/JDUgrqav6xqWKaU9jnpwQGzNqywaedHqAxhUX8k3QLII/aYCxBfTihooB+TTnz5SXHb5ZSKOeqCcIgHB4GKvxj5yMtNtP71XjD9gT6uQchogkYKC7cwLr6sChM84dDmSVaEiKdPjUwHiQ9TKZF4lBYQiWHlHo9SkxjO+dbno6NgWOwI2/vhzrcPKPFespeV50b51UwWQ3A/xBRC8/zSj7IkB8Uk9dHlXBEjYiLmuJyZA8vQ/dOnwGD9BanrcKJgtIOo1Acjt99xfAaSvgKQZQEwEiE+OuSmd3WVAdCnxBEhc5QIg2KL8Jd01/+XcS8TZU08MVMRXQHD/SR32ZIB48v3xsLkeBEgcBx0PmhQkbk8exy9Qp8LSuTCzFry8MJaKwLmH7xA1es+vSUuhwg/Bxp11Ag5/d3rAUH3gCcdGYgPii2kVBgeeHRIUf3XvnFjjH0UBYppxSCpiowjUPgiQqHMoIMDntJBicLg4IL5BkkRFYgPig2NumkJ7y6jh4jsfrAr6limnfVW8uXSpWNXWJrAIw/DmEcG+4c3NEiJ1oyhWngqCa6orjVA9Zt7zgFQE6tltpuZSow5TEZ6MSNd6vnVR1bVUQLyCJIGKxALEB/UIg+OIpiZx6NvvxLF2BNJRxu69fX54UYCEVZIaqa0/wlVEBzbfb7ouwaUDxCdI4jrssQDxQT3UVHa8PCgH4MAWFxAyxyYefoQ8nwDJM4qF3vyObpXAzEJZ7+5FHPB33ttHOd/U4HnDVs8xzR6kc8NMLA6UL6HfOGFfa0B8UA81U1eFY1V7uzhm+ftVnSR6YkRraMOcbGz8234wtwgSJCvuPqY59piErXTZ9OhBXS3nrfMydaaWek16JqoJZ1KQwAQsecFrm2ccR0WsAXFdPXROOVcOHRymRkAPWV2rliChbN68/JCoHl3Xs9s0DJ4qYvJHSJ1Mvk1g3jX1E+P79RV3rvmo4tLOZ/p219ZWRawAcV09ouDAM7l+1Wpx37oNwcu0td9VSLiK2JZh03jVY0i9SM34fphdMLlsHHR+ngpeVOhXV+/A4R8ySJw1ZJAERIXEh/CvbUTLChDX1UP1O2YMGyy+Mmhgxfs9/b0V4tUtXR/DxGZru+NY3vMWBUgSqGzOUU2puCpIgNwxqlmMb+onL6mDxHl/xDKiFQmIb+rxpYEDxMXDu1YP4Rt3zuM62LznhZmFcDC+JpWngtg09qTHpIFEBwjqcfYHbeKFTZsrquR6SryNingNiM60emLMjmJ4Y2PFi1L9jzSAVJg6nk6fxT2ozraNkvCOgisIPRM1Qui8P2KhIqGAuK4eqmk1d+cRYq8+lUv5b+7sEPM2bBCXta1NZF7RSbroTVzQkvb4eZynCwREQcLPeX630VXV8tHUilIRbwFR1YNHrPibW7Ftq3hh8+bUgNDodQDMgWNjO8l5NPQ0ZerCyWGQUMACvgcURLepkPiuIqGAuOqc60wrXY8GOKAgcM5JQXz1G9KAEHauDhJTAMMGEFxLNbVcj2qFqYgREJfNKxUQnd+xtqNdrG3fJttGHZBwvFRITOFfW0B8M7USAeLqXHMVDl3UCqoB9eDbKe+2yV9rXUEoE9hmtXn+fDgkpmdE4W6Mf+Bf2OaVwx7irBsVxFXzSnXMdeqxbGtluBEvkgDB/+OMgeRl2uRVLp/XYfO9EqpHHEB0ESz1fmpFRbSAuGpe2agH+R3qC5u7bqOY+1HXSHpUtCavxpt3ueo8kjiA8MFQk4KYxkBM9+WTipjMLC0grppXqnqojrnOtKKX15MAsf0UHG/YPIyt60CiQrw2ES0c4+wIu8HM0gPi4Lc9VPW4bPhQccrAARXvxaQePcFRl1+GevVv4rwzvhT5pSv+0Ci1npIU0zroKii+q0gVIL6YV6p68KiVSfK5H1JrZhZMJDIfbU052+iVLHfOwzL9P2wMxHcV0ZlZVYD4YF7pIlc6xzzMD6m1aBb5EFEBCMoS5gOfNlm9cf0P/uy9URGNmVUNiAfmlRq5slEPemEYMKSs3lqChNRAneMC0wlzy0kFeMONAoOvz5sGEJ8iWqqKVADiqnnFnfOk6qFz1vE3G0jIvHDZLLOdhUir0UetMo/yaM4JnxOjy1iIMunqgEQ9oRT7o0bN46iHCRL8XZd4qDqwUeZLitvM5FQdJOgAaF57FBSoBFciWg8rqf9RC2ZWhYK4ODjIAdE5iDa+h6718bCvuh+NSl0Gx4XMXd0nCTIhi4FB5XG15NNsTUmKUfXwRkUUP8R5QLh5NXunkeITffsE7yJs3CPqhWF/GCTq+UWpB18PC+MZfOPrW5Hq2dyn7hids07Hcd+Em1c2I+im+ngDiLLYdQCIi/5HlHkVNu5h23BsIClKPfhIuC6XyrSYA81NJ1OK3zuf0w5ViFoQQvXJ0vofPppZ3FH3BhDVvEqrHvzFIar16pZtQSpKWerBAdm89gMt47bOuO5kqGDY+bqoVhbmVWC2aRZ4cHJaLjOzAkBcHP8Ii15loR42volNlMtWraKOUzNxKUSrc66TgBIGiA4Orh42GbxR9+eNmaUFxLHxD3UJ0d+OHiV27d07eAdJnfOol6jzTYr0P/AZAm5eYQAQppMpAgVQYEbp1tbVKWGc0XOen5XG/wgzs1zNzaJ1s6SCuPi9D9X/4PH3LM0rGxVJOv4RN+oEBx2AqFm4UZDQPRAkNDBY0TC719GKWhguMIe6U0vwe9z0krBOSF39xNUpueSHdAHi4Pc++DKi6gvKy7ziLzaLvC36LoeNatExgESNXuk+QxCnzCTH5qEeqIcvc9ZpeVJnAQkL7+ZpXlFjyiIlBT0/RqPjfEvd1Jij1tZNAoHpHO57ZKkeuB7WzoKK8M1FM6sCENcddD7+kbd5RS9ODf8mMbOo588qTKwuPWSbNhIXnrzUg+qhJi+6CAh9QloqiGuAqA469z+KMK/oRXIzK2k0i7JskwBW5WS3LpLLoOq2sLEQfjwcevX753x/1pErXV1VP8TJVU+6I1ldgDgWwQpz0Iswr3QqkhQQPjCXBSRJwrsVAPzwIuN6XnmaVhV1UMZDXHXUEclyHhBuAxdlXtHL5MsFSQczpHGFmTFBsl+GS5XGASXqMw/SN1DUKWvfw0dAEMlqcDHEa4pgFQ0IXir3RZKqiISLZuRlCAk17DA4bT+RUOXfWCztE9e3oeNVR91VBekCxPEQL597XqT/kbWKoDzyR9KAlrRRhp3HVzThxyWZ+2FbP9VRdzHlxFlATCHeIv0P/qKzCPlSedQYs4ps2TZI03HqB4L4cVmkl5iu6wUgQlztpIJwQCjFpAzzil4uBySNL0LlkTlTNiRhcAR1DVmoOg2caiTL1VBvg2shXjx0lwDRpcOnNZG4Q5y2rKSNVAfHgJFjxIYVy6uKzMNhV0fU64DEeJM6QIr2PwDGq5uRBl+5xi/dRtreX53OmzRCFuOxykPV69L5gGOXo04RH73/D/Hun3+XOyR1QOK+ue7jTYOERQJiM4kqC1OLO+74f1rooh65yaQiOOh8QLLi5T+KbetWVxSZpZLUAYl6W4b9JkCKcNBtweBVz6Ln51EkSmvPIn+L6mlSDexv3u8w0bzvhKq3sWXjerHsjw9qITlr8MDgA54JX3NVTlbdxLJ8kjpA8nbQo8ypHQ87RjQNGyXWvPWGWP3G81V3kkXPr/bu8E3SJDoSFGRWmR4/7m3IrmO1uwHJey89JTa9+2bV/rTzQ9SxEHcBcSzNpGhAwlRD13g+eK3FCIk0maaeaNkVdPkDsgH/ZbGcFIWftJgCL4Rgwd9wnG7wj8q6Y87Dga9hW5HeA4eKkQcfJQbtuKv2FNM9p4HEC0CEEA2u5WEVBUhcMHjLMTUYOgaKYmrI1KObkg5tG3Uex4WpyZp/LBbvP/dEZkpSByThG9QBkqWDHmZOmexx3a28u+AP4qO3/1qxa+KkSaLl2WcrHdtxe8vfYS7RplOJhI8r8WlwuKUi9esrJzHR1rTzHtIn2WHYyKqyTRGuJCPudUASv7rKcRCsw9ve2SE/xpl2M6kGojiD9tjfaIubrgsnlo8bfOfCC8V3LrxAQtLybIu45cc/jqwyb6gvbN4indckGze75JKhBpMN19M52Xzgbugnj5aA2EKSJLpVByTJW+4+h4+DZAFIGnNKdxvrP1wh/wyzY93il4JDoCBz5t4beud77b5HsN+UyoHGA1h4z84LtYmc6UK6YakjKiB0PR0oujBwXH+kDkhGgMzdeYRoEp2JSgszp+CUDtvzwFjlAgyCg07EWAGiPDRmQCpiKpgAsc1z0i2Vg7JNkTNdSFe3ptjmjkpFXry1PZgKO3DsJwUc9zBI8ByWP/mbSNhNz0G9LxeTFVF351NNbhk1XOzWGPo5d+07yEo1CAgVDPWiOlAmTpoooCp8iwsInRsGCh2D1Uz48j86cwqfxsaC3+q2pVOIL7/XNVdcBcQEyt8fnxN0DHHNLDUXy0lAGhrmOwkInw8yY9hg8amm7evxRnX5RYMRBQr2AxIChfwSUhD4Vmvb27U+Vr+GXmJwY6O8BP6PzQSK7rnozB4TIDifphjDUW/aaXfto+YmFw9U2CoiFcoBcXU+COalOw8IvgcybVD/KC5kztTcjzYac6fCQpi8cJ0ZFXlxzQGqoqiHUIOyjdCN7N0ngMQWlLiAUNZyGCBcTdYueSWI5MX1QeqAJGlV3efwOekH9O0jrmseHFmampJOJwzabR/RfMDhom//HULLyAoMnaIQLHwfARInhWaXPl2hWV0vTA1UVRgeJcM1wxTklx9tFA+s2yBsAEEdVr80L6hL3FAvnw/i5KINuDNXFUQdC3lw5+bQxq3OHaeDbVQjLzB0Fd703tIgbYNsdltAYGJBRbAhAnTn2nVBSFg1b3jvrH7PY2yfRq0PgnLjAALoKYIX1/9QI1h1QCL7/8oD4gKi8zui4CgSDLo7XaOyNbEAyNvbOiQYBAmVqzZQ3jtTzx7m61A5cQDhsMc1r3wBBIvHOTmjEC+Mj4VMGTRATBlo9kNUQMJCuGWAwfEns4QatS0gKGNwr0YxuHH7At7cnIKKyFFxpiw4B4DYXiOODwL1oNB2XPPKiwiWEBhcuNrJVU3wYnkkKwoQnYm19xe/VaVbyE5d/e5bMfUs28Op500CCNWEIlpYtemzy/XfEaFj0XhtzTiKYpnCvGGgx3lKPsxHx/14A4iNo85XQcTN6UwslwCJ27vrGiAfuzA1UIBI6vux3o2ib8iQki0g3FSsVfNKAuLqulioXFo/RJ0lRw3og78vjNPZ5XIsmVloXLv17pUoz2x9pxBTuwf2eCWnT58mf32ltVW0vtJqrP+pAweIfbq/97h3n97i9+u7IlgYQYeChG1pzCtf/A/cv7MrK9LLieOH4BxVRXRmFkwsKEmZGzezrhs+ODYgSAuZsXL7dFhAMW7cODHuoHFVtwVIZs2eHQoLPykOIHGjV7iOF6uZdD+Q7YCs3TJPdHZOLrPR6K4dxw/B+aqzrjOzynbSUU8OyI3NQ4xhV/WZwEmf0bamIuMXcEzrVg06fnjzCLFx4waxccOGiiKOPeY4+ftBx58qf+64177i/SWvi/cXvy7eW/J6cGyYD5LGvMIFfPE/nF7dnd5UWjML5agq4gIgqBeZWU+OGWUFCEyq/1q9feyDt/zHn3gs+HX0LruK/gMGiGeeflocfPDB4sNVbQEoAGSnvfYVx3z70qr+CIC0PvpAAApS3nVbluaVsykmuHG+uruLy4+ijiogGFGHwx62qWbWx46dJvoNHBKc4oKjjspQQ5uzU7PYIcRxDgODboqryJ577yNu+tGP5D9sb7/zjgQEoJz/rfPFB+u3agGhsn55QZcPY1IRqncW5pWzA4TdEayRQ/pd5ewXpuiF5WFmueCok5n1r8MGiaOa+lYxrwMDvf+440+VKoAe/4mf/HtwHqkIFOT0r31NKgi2X993nzj8iCPk/089+eRIQFDmyvfe1TrqPca8qgLkw42TG3r12p5YE9pHF7uTA4Irx007QS7WzhM+X1FpFxx1amxqCNukGDCLAAbf0JjJdyAVASAvv/yyePaZZ+ShF333u/InVGTqaaeJhtF7iYOO6/JB1I2gi1IPnFfL4V3cX8VHPPEH1xZvoJenmllRg4Y4Lyqa5ZofInv3gQPEW9vatVNudXDgHJ2KwEEf1lyduwZADtxvf2leqaDRsw5TDxzTU8wr3GvFZ6AlII5GslC3rM2srAEhNbDNgqUGyfOZTLqMiJOpx8c5rzz2gHjl0Qfk6aQi8EPULQoQKsfknKcxr3Qf7nRyghQ9tG4HHb8G7qHLgMSNZqkqMvQTh4pR+08M2kzWjjo1Hphzg/c6qGparqnx4+983gjGIPhyn1Fw8J6fTC34IjoVWblihZg04TCtgpAShQHOo1dxzSsvvknIXhJ94bYCEBe/NMUbVtxBQ3V+iBruzdJR54DA30mjUNQQbeFQTS2uIruNHi0ddDjqbyxcKE464UTxtZtnV/EaZVrhBDXJMgx6dZ869uFy9Ap11wIizSzHVlnkDzqus64OGo757JcrlrHJExDUOwkk3IzRNeSwRskddlKRc84+W0w6/HDpqJsAiXLMSeWymvuB8pw2r5j/UaEgrvshcZ11NcNXHVXPMpKlKkhSQJKoB0HDHXadL/KLu+8Wd/3qvqoxEIx7RPlOPcm8wvMkB90rQFDZuCrCo1mqH5Kkhzf14FkAwh32OOYVr5NORSiidcWll4onW16qAISONznmPVE9uHlVBYjrfkhcFVHNLO6HuAYIn99NjT4uKGEqogJiY1qlBcQ351z1P7wDRKciYeMiKiA7H/lPwQrmWUayslYQrgqUWBgW6rVREQDy2qpNQcjYxjFHuUnNK+9Cu90PkZtXVYC47odQQ+ARLfzNNLoe5Ydk5ahnAYjaGFVzzhYUk4pgwToaJKQxj6iZgzxogPrEmVrro3pQgiJ/9lVpcq6bWag8XxYIv4epSJgf4hogZNLwpUx1oESpCfkW5Kxv3dYuQ7yUxYv9UY65CmxYciKtIWxaSxhluR650plXWgXxARBUXFURU6ZvmB+SVSQrKwXhMEQtPId0kR3H7qsdZVdVBJOpZsz4ngQEKe2mZEQVRu4XqYODNlDw8lwf+0BdVfNKC4gvZpaqIiZTSwVk9xNODxaRy8pRzwMQ3riiUlJ05helrdMU3FmzZsuJUkhLiTKtSMn4yvUwr+JAoftWCsp18lNrkoSG+SMG962aBKOdieCLiqhhX52pFeaH+AIIwRIFCo4jWPgsQUzFpfnpNlNqo/whVWkC33DSJPl9FL5g9y0/vrniOymuTpJSw7t0T14DojO1dJBwP4QPGCaNZEEx+OcB8lYQtUEClG0ffVj1BVpTw+V/t1EPGxB5mQBCBYPvnzrltIovb7lobunMK6OJ5YuZhXqqYyP4mwqJyVFPAgg1HgACR5cSDGGO8LknWamTrtFTQiN+xgUFdaYN56p+jw1kYYphOl+FxCmn3WBehQLii5mFm1BNLfyNO+1hiYtJIll8bIAgSQoIb+wVjbW78fLs3jiNN89joxRDd218lg6Q0OaSL2Iyr2oGEJ2phb/R+EhYJCsJICibQ8LT1Gm0niJkspdft32JHuq1XWz4YVAlgUItj6uIS76IybwKBcQnM8tkatF0VhUQvpBD0lAvB0RtCOq8jjx786zKJsda/Uovyn/o4YfEx/bYQ66Wom44Ho44bXF8ERdUJEw9IgHxyczCzehCv4BkyqD+AmYWbRyQOL4CqUFcu9/UiHm0p/L/2yd30bnqp9x0DbVPn97i9YVd61tdefkVwSFYZXKHMXvK3zu2bJI/N65YXvGFXnx8lF+Devspp00RZ5xxupzGi4lYtBEY+GmrLqqZ5YKzngoQ31QkDBKEe2nb7fNTRNOQrnnbtoDwtAs1gqUDQG38+F6hbWNPqgqYVvvOsn/I09GgDxs/Qf5ft4DepjVt4u0/zA0upQLCw7OYX8IBwWfkSDXU86Lqzr/yW7aZFQVHpILgAN9UxAQJf3G8wdgAgq9TDRi6vffkZXW2bxNb1q8VK17+o/Q1or5yG9WA0u7/26K/BkXQSoo6QDavWyPeenz77EK13ry354CQcoSZUmH34FI0KxNAfFQR1FkX2aIXFxcQnKf7XjhvCAjtawuXAAAJJ0lEQVQZL33kHvmd9ChzKC0EYefbAoIyFt1/W1CUDmzq7eGDDB4yWGBJId3G/Zaoe58za1aF+VemHxLmnNN9Wn1f2UcVCYMkzWAhQMHWp2lAxXcPfQIEdd2weqX44OmHQgGh3v7W226VC2NzQLgPgkIIDCgLbTpY3njtNXHSiScFx5QFiI16WJlYdCcuz1cP61F1SpIGEN216AOhaHAuKcgVV1wlR7Axm3Loxw8QWzdtkP9odXseiUNjRt35Rn7IxZdcLI4+erLgywmhXHLQOSBh74J8JDL9cGxZjrqNesQCxNX1e23MFRUS9RNtScdC1GujwZ33jdNl2kVZGzexCBBTarsaql6y9M2KapMfAniuueaqCkCS3B8Bgsxiyg0rw1G3VY9YgOBgX1UEdechYHU50iwBGX/AJ6p64iSNKek5HJCf//weMffeuca5H2rOlQoI6kB+CBx1Wjk+ad0QYQMkVC+UUwYgtuoRGxCfVUSaAeO6VhysA9LVxFVAdOYhB4SHesnEanm2pYIXCmdDdVQfxAVA4qhHbECkiji8RGlUz0aAYBzj48dODQ7PSkGowel64qi6ZbWfGiHKi6sgOkDIUUcka9ROOwaDhboRd909cEhI3Z5teS6IZBWtIHHUIxEgvka0uILg/3yFk6wBKdNR54AsXrxEfhPE5IOoc851oV4TIHGB5oOYHJAinfS46pEIEJ9VhE/TrQPStS4wnzWoA4QiWb/9nwfFgP5NFflYTf3N367v378yb4t/6aoMQJLAkRgQX1WEA8LzsbJWkDJH0+MoCBoAn3dO9aYvUmE/ok1QIYyFjB27V1zh0B5P0TXsLGochL73EfcGrAYKdYX66LDnDQj1yLoxhbgvJunxHJANGzeJfz75lNAVTDggqPeN/3lDxcc/yUzLChBkBB915FHB7RUxcSqpeiRWELo738K+HBA+WJiVglCPXCYgq9pWig/b2uQr2rp1mxy1DlviR13RkX8QFGUQZBgsPPLII2Nxi+xidSvDvIrrmPM6J1YQFOKbiugASTLtNqyVUIMrK5IVFxB1sFAFZN68+eL6H1wfCwwZEJk0SVx++WWCQ0JqRIW5rh6pFcQ3h50DgjkSIw76tOjVt0lg0lRWW/D12pKSFtMCgnAutrVr14rrr78+GPEOez6AAcsLjdllF9Gnd+8KKOg8FbRColchc81t33cqBZEq4vAHQNWHoC42h/0YNGxsHm37vCKPI0DKctQ5IKgs8p7CTCybFUwwVoFt/KFdc1peeL5FvLjgOfl/TKiaNm2azPaVYK3ZPjFt6dKlYtmyZVUKVNTYR1LHPDMTiwryxdQKS4G3WYozkg42Ol2WH6IDJGwtLBUQggE9PLZDDu2Cg2+6lWRsno0sb8JhYubPZtkenvi4NI555oCgQB9G2KNeLF/KJ+mb4Q2uDD/EBpCwZYNsTR/d9GbTM+PQ6YBL+qxN52UFB8pPbWLxSvoACeobpiTYnwYUPvhWxog6H7HGvVDmLE0TjlpNxRYQXeNEB6RuRQChXjNN1EotK1NAfPJHbHrApKBQJMsFQHjmbFRPXZT5E1WPNPuz8DtyMbGoUF/8EapvHqAQIGX4IaqCqIDwdXrpGUA1AEcZvX0aGNRzszStqOxMFYQK9cXU4g8YoGC7a+ZPQt+ZjapQJMsFQCi8St8KoZubPWu2wIrv2GpCOYS4euSQfldlCVzmPkiFP+LwJ6XDHqItKOSr4Cdf7xYA8cG3oh11VUEIEHUAEDlW8E9qBZAs/Y5cTazA1PJofMQEjI35FdVjleGH8FmFPQGQrP2OQgDBRXzzR8JAsTG/dOeXMWDIAaH0jhtvvEGuTMI3vnhCEWkfUZ1Jkv15+B2FAVJLkNBDi2OC4Zwy/BAOSFvbKvHV074qogApKu08CQSmc/KGI1cfhN9UrSiJ7kUh9k9pF7RfdfSL9kNsAeGri/gGSBFwFAZILSpJWE+oDkQW7YfwOSGU8q5GsVB/HslKM0CYpSrYlFUUHIUC0pMgcQkQPHf4GlGA+BLqLRKOwgHBBX0cI7Hp1fgxas5X0X4IV5AwQLwL9WaQvh73XeYyUBhViZ4ACVeRogHRJSzqFIQDgnfmdCSrBDhKURCCp9YhUc2sIh11HSAI8SKSpW481Ouso14SHKUCUus+iWpmFemoq4DQiHkUIC466kX7HGoHUoqJ1VNCwHwGY5EDhraAqCaWa4CUDUfpCkKg1Oo4SVl+iJqPReFcriCtra1BsiK9B5cAcQEOZwCpVXNLNbOK8kNMCYtRwRNXnHRX4HAKkFqFhJtZRfohuoRFEyAYA5FzQjTzz6Ogynq/S3A4B4iEpAaygHmj4WaWS4AUPU/cBqQ8s3Jtrq87pnQn3VTxWvFLuJlV1HiI6qS/+eZScc7Z58hH7ZKfEbz7EsO4UeA4C0itmFxF+yEqHHiOHBDXUkpcM6mcC/NGEVwLJlcR0SwdGPRsKeUdvzsDSEPD/M729qtHDus/P6oNlLnfaQWplfESdVSdPk+Wxcc+w8Dgz8+pyVEOm1TeKUgtQGJasI5AwXf9dN8UN/WcgAIbreJuOg6mFZb/5ItPl60grptUXgMSRLkaG68UnZ2Ty5TeuNfWrQuslkGQhMHS3DxcvL5wYcWpC9nv9HllU/1Kc9I9Mam8B4RuwLcoVxYLQMSFUj2+LDh8Uw3+3LzxQUyNw0dQcC98hfS0DT/q/LIGAn0Gg56p94CQ2SV69ZrcIMSVUY3Fxf26ee0AiG80750G+HT3QZ8nwD46rpTRcU/NKd0zrQlAfDW7XIQ1VZ1qCIyaUhD1pfpmdqVqlI6cXAvmVM0rSB2U4mmpVTBqWkHqoOQMSg2aUqYnVlM+SFSzgOmFY3x15qPuL/f9PQiMHqUgOkWpgxIDpx4IRo8GhDcN6dA3NHzGt5H5GM072aHdUOBk1xMKk92g3Vk9ysSKeiQ9HpY6FFVNpA6IgZoeA0sditB+sw5IlKx0f+ekZnyWhgY5/wJzMXq6+WTx6rP9DLTNBWvhmCAa5oPvwoDoyb5E0nZXV5CkT46dh1mPyAWTKgNoZBddcDo+gdDZ+ZS8fkfH/DoQ6V9uHZD0zzC0BA5PBUD8LBNM3Y1evUAnIOjoCKaq1kHI7yX+P4Igm624TrfCAAAAAElFTkSuQmCC;" vertex="1" parent="qA_CRGKP_DHO0OBm4st0-23">
          <mxGeometry x="324" y="359.0005882352941" width="50" height="50" as="geometry" />
        </mxCell>
        <mxCell id="qA_CRGKP_DHO0OBm4st0-81" value="kublet" style="rounded=0;whiteSpace=wrap;html=1;" vertex="1" parent="qA_CRGKP_DHO0OBm4st0-23">
          <mxGeometry x="312" y="320" width="74" height="25.29" as="geometry" />
        </mxCell>
        <mxCell id="qA_CRGKP_DHO0OBm4st0-82" value="docker" style="rounded=0;whiteSpace=wrap;html=1;" vertex="1" parent="qA_CRGKP_DHO0OBm4st0-23">
          <mxGeometry x="496" y="320" width="80" height="25.29" as="geometry" />
        </mxCell>
        <mxCell id="qA_CRGKP_DHO0OBm4st0-83" value="kube-proxy" style="rounded=0;whiteSpace=wrap;html=1;" vertex="1" parent="qA_CRGKP_DHO0OBm4st0-23">
          <mxGeometry x="402" y="320" width="84" height="25.29" as="geometry" />
        </mxCell>
        <mxCell id="qA_CRGKP_DHO0OBm4st0-84" value="" style="shape=image;imageAspect=0;aspect=fixed;verticalLabelPosition=bottom;verticalAlign=top;image=data:image/png,iVBORw0KGgoAAAANSUhEUgAAAO4AAADICAYAAADvG90JAAAAAXNSR0IArs4c6QAAHOBJREFUeF7tnXusH8V1x+d3ubavX5en7Rjs2DgUY5niiALBRI0NVERqMEGtK6G2qG0IUqIqVZHSquo/4H/aqkSqVKmiEo0a1P6BKiulNqhKIhKTNnYFLY1BBgMJJhjjEOMHNvhx/fi1Z+9vfsxv7uyeM8+d3T37jx+/2dkz33M+c2Zmd2d7go9GK7B+0+Z+7Ab0emLLzm1bH4l9Ha6frkCPXpRL5qgAg5ujV+LbxODG1zjqFRjcqPJmWzmDm61raIap4E4tXy3OfHI17USk1MIfbRuW4KFyEEmDVsLgBpUzfWUquCc+e4/48LZNQYxY+uiDDG4QJeNUwuDG0TVZrQxuMqmzuhCDm5U77I1hcO01a8MZDG7DvcjgNtyBjuYzuI7C5XIag5uLJ9LaweCm1Tv41Rjc4JI2okIGtxFuKjeSwW24Ax3NZ3AdhcvlNAY3F0+ktYPBTat38KsxuMElbUSFDG4j3MRD5Ya7Kbj5DG5wSdNWyBk3rd65XI3BzcUTjnYwuI7CNfw0BrfhDmRwG+5AR/MZXEfhcjmNwc3FE2ntYHDT6h38agxucEkbUSGD2wg38apyw90U3HwGN7ikaSvkjJtW71yuxuAaPHHbPZsf6ffFhlychNixUf7OL9I3xGMBzGRwDSKu37T5B0KIIRABdG50FW3fumbQUT/c74vb/+vprTua4CwGl8FF47TN4EpopQhNaSuDSwD3+CdWosFNKTD587eGxWBjt1DH7P2vFVWFshPqUm1tSjDb6nnr3Zs39noCRlcjRxPay+Ai4AIMez7/e7YxYSy/9jtPDIE4fN/XRQh4AdrLn/xGcb39n94o3lkXZmq+/oktwzY0IZBdHFQ1Jcq9zQwug2uM+baDqw+Rj/3yBnHJy881JvMyuAxuJ8HVN5I/9IePiXNvvyqWbv/bRsDL4DK4nQNXz7YHN/2RGP/kmkKHpsDL4DK4nQNXzbYqtFKIJsDL4DK4nQK3KtuqQpjgzek+L4PL4HYKXH0lGea2ZUfO8DK4DG7XwB1+T9g0TNbFMMC7Y9f2rbe73H4KeQ6Dy+B2Blx9mPzuHzwqZs1bgPI064dPjtwqyuEeL4PL4HYGXJthsirK2ZMfiiv/8U9GdKp7vsvgMridBBceuDj7ufvQbFux0lzrkJnBZXC7BK7V/FYXRh8y15l1GVwGl8El5l3DkLm2rMvgMridAFd/E4i6MJVr1mVwGdxOgOu6oqyLk0vWZXAZXAaXOFSWxfS57q7tW5NzlPyClhrVUly9bcDv4wqRw31L30DQh8pVT0xh19Kzbh2LVI0HFxyCCW37e68nHpZ7TjG4hXo7+n3x8Zv1toKWlE+5v1NIcKE5i/7uq8NWMbgOAaG/V+lQBXpKqC1hYm9dAw2JYSsqkFuBpCuyoRanSobLSdsCNjQ+46YA1y0u+SxEgaTBHhlcoc5z5ShwbExsrNrmt9cTwy03dm7b+ohNxDC4Nmpx2ZAKNBpc08sHA3F8p247AGgM5FaBC5ulHV+yIkhwwcZucMCGbic+uylInQt/tF3IHRlD2Tr53s/E8h9PbwUMG6JPLb82iK1yAzoYeu8PtAHd8t3PqbtHJgUXRMFeoLcRzvT8ss35lLKwKAjlTBC3DtzQuxwCuLAjY4gDYJDgws6RIeajMG+WnUyMLxnEWpyDBa/Ur8ep4No+q6z73wbc40tWGcNn8r03qWE1IwszuCXSyV0OGdw429PWBO7wCxUxwJWA7l93ZxFVx5dcTQJz8r194uIBxMt2P1t5jrw1x+AyuEYFlj764HTwRdpXum5woW2ujz3CuXKOC7DagorRvPylaXjLIAZ4GVwGtzPghlxZhqHyR0ffFe8vXIRx6Py7zMQ6wAxuhaQ8VG5fxtUXqHyGy0fOnBZHzpxyhpJ6ImRfDdxibYAzLmfczmTcAbgjX2J0GS6ngraw95/+fMQ/PMdFujzOuO3MuPpw2Tbrnjp3Thw4eYKaML3K6dlWfWacMy5n3E5lXN+s+5PjR71gpJ5sGCKPPJ3F4DK4nQPXNetCpoWMG/uARam1333cOESW/8ngMridA9eUdbE9llPNaynQgv0MLoPbSXBNH7Uug7dOaMvudzO4DG4nwTVlXfg/Hd5U0JrmtFUPqTC4DG7nwB1k2+FmCaoAKrgpVpBhaLx897PC8Nxy5bPcDC6D2xlwq4DVs21saCuABVPQFzAYXAa31eACrMoL7cZ3ZeFe7smb7h5+RygmtAiw5P29GFwGt3XgKpkV2lb6YrsOLBSOAa2EFeqveJWv2NeLug8Xg8vgNhpcuU3MYIO/SlBlQ03Ayt+qHrCABaQPSt6tVUWEV/Qmf76v+C/CO7dWwMrr1AYubFBdwozVf/f7xY6MxRFyt4Ym7oARcreOFDtgqHsuYU7X9m5y2h6mCli4ftUDFiWrvpjZVb87AVsruKZ7aD4K8LmsQJkCGKzyPOypKP1hf0fFh9vcUofEZdepJePqn4NwFIFPYwVmKACgnlq5TvSvWE76aDWWaeF3x2xbbAQGo4oLF8QOX1D1hjK4HPyNUgDAlAcACgdACgfl6/J6Y7FMawIX3tIBGE3ChQY064y76/6/qAyeayYvbVRwsbHNUIACrf7scC6fY8ki4zK4zQj0NllJgbYs22J7HqfQicFNoTJfIysFqNCC0fqiVB1f5jOJVwu4I1/DW7JK7LnryzxUziq022kMPFxxZOoU+Z3aqh0o6laoEeBeNW+hmDs+XrdWfP0GK+DyRFSu2RbcwOA2OBjZdJoCLtDmnG29wIWHKFyXvm2HypxxaQHKpWYq4AJtirmtDz9e4A4eothg82C0lJXBnRlg859/Wnx0y93Zsgf2TV11rTh7VZiPiqVoqOtL8LGzLcQ/5Yt8VRo5D5XVp59s723ZgnvZnLnisjkTqK9nHXhdzD7wetYA6I0Am+e/8IyAP+E4du9D2cFxyVN/k7V9psCQ0MqH/Ms+vGU6N9bcVnsfGH3nNgq4+gelbeCNAS5khHkvPJNt8JucALACFPpx8uYvZNH55G5fWWCr0K797j8Uxd654c7hN36qgIiVbU3P5/vcWnLKuFXPGlMA1s/HHsCAFWWY55YFv5qxZJlcgt/GZrUs2A9HHcNnfRRQFug5aizv0cJ2MMsGH8+S9kPWhS/oyY90pci2VbtuUFgp094aXOoLAlVG+YJLDSxodC7BZWNzXQA3wcayQJb3aKENy3d/H30PFjIwHCrEIbNtCE6CDJWx/XoqLzL4srZ8S0IfNuy568HSb4nKOcrVRw+KWe++MZxrVV3P9JvMYCkWWOR8FUYCcMh/29psGkKHzsIS1hh2ptJ66vx5MfH80yisZfrLTKxnaOpQ1uVlfs2WGR+uxmIFzbg+wGIXHw5rL71SHFm+RsAD3fIg7BxArd5YDlZHz175S8VvEGDyoKyaqiDCYlgR9O++ERRSSuNkZ1TVBr3TAHvrsFXVW7XXVm84V3aIITubEr2Hr+bB79rL/PIUp5f6TdeDUSr8P+VZaCO41D17KMHFZVgBVsBeAQziAlwG1V5YPoMVSKhAMZRWszE6VI5lnHo76eDVN4q3lt+IXuqiSybRMlyg3Qr0z50TFz48GayRk6ePibXPbx3W57PSG8woQkV1gjv8wDAsDuxZfQdq7tiCeaLHLxugOrW1QP/0GXHh9JmgzVv/w+n7vPKgLkgFNcKhstrAnXFL6K6vCXH6VGUTAFqAl4/uKQBZFrJtyGPR4X3imj3PNi7bgsG1gavfEnph44Pi3IU+6hceLqMStapA6KGxFKepQ2Rpf23gggEu81weLreKy8rGxBgayws2dYicC7jDeS51gYqHy+0HF7Js//RU8KGxVG7tS8+IyWMHGzlEzg5cMGjX56q3sJFG83C5vfDGGhq3ZYicBbiu89yxiTmiNzGnvdHbwZbFzrIgqT6vLZLF9q21ThddXV270S7zXGgsZ11Xl+d3Xsy5rNpafV7blHu2Jo/lAO5wnlv0gITbQlCOs25+ANpalCLLtmleq+pbO7j6cPmlX/uy+GiKFgJNWWG+adH8okH/fegjWsM6UCpVlgUpm3y/tiwUagcXDJuxIwbhKSo4L/cV5q+uWSy+smbRiPZ//+oh8dirv+gAmuYmpsyybZvXZpVxdXDh39SHMYohc6aPQUpotz31b+L1va+J1/a+Jr7+Z38qVl+3utB/3bf3dA7eGE8/VYloWozq98XtrruT5uSwLDKuPlym3tPNNeuq0G5/atvQ349/65vDv8Ow+YH/eCunWIhmS8phsWyECdomL0bpzskCXO+sm9ntIQD39t4R8Y2/+usRvTfde4+4594vCsjC8Gfbs27qYbEUe8650+LGnf88on2boC0SVrRu1rJiPev+9Fe+IH4xfym5lpxWmXf/xtoCTjXbqg2B4TIMmyHjtnHBqi5gQePxsZ64ecfjrYY2K3BNWZf6JJX0Ui7z3W/+6kqx8PA7MzKutFNm3rZl3DqB7RK02YHrm3VzWaySc1wYKsOilH60Ddy6ge0atNmB6zvXzWmxCobLAG3ZPLcNt4VyABZ8bprTCiG8vhRAnqPVVDCbOa5sv88Ks6wjh/u78NAFDJnhULMuzG+bDm3xQvu588F3o3BhoIvQZplxTVl3zy2bxfGJS6z9mmLO24OX//t9Mbt/XpwZnzXDRhg2w3HTFdM7dzy291BjF6RyybBS5K5Cmy24IYbMwwWrCLeKANYrDr8teh8eFStf/v4Q1pfveECcWnCxdQeT+wm5AQt6tf0+LRYT2Q2VQw6ZfeGFgB0bu0jMmjolLj5xaAaouri7f/1rxqyLOSHX3+HBif6589FeaHdtd9ehzTrjgnH6hnIwZFaPM+MT4vzsuST/9+bNE/2xsY/L9vti7Px5MT74r9nHD4uJ89M7CF7+6s6RHRIoF9i3/jfFoUUrKEWzLpNjdlUF018YKIK4J7ZQdv/PWnhL47LNuLId6gsIlm2LWvyGLz0k1n/qSvG9906KJ9/6IOq1UlSeO7Cggb7lTFehzT7jgoGm74qmCGT1Gp/57S+JUxMXi9+9efobQ5fOnT38+eipKbHx36e/G9S0owmwgqYli1CdzLQyxrLPuGCo6ZOFq675VNGGN3/yUy9eNt55hziyYl1Rx20rF4tVi0ZXr1VIyy70l/97QDy575iXHalObgqsUg/TfBbu0fb7Yksb3vJx9XsjwDXB+5n7fl988ZbrXds9PG/+3Lli3twJr3pyz7oSVmhk6E3FvYSrOBmeOV72s/8RS/e9qJdq9YMVVD0bAy40SJ/vhoIX6gaAZ42Pi1mzxqnajZTLLes2EVYky3Z6aKwHZaPAjQ2vFMcV4jpfGmgyqFL3iiwLz7i04gV4p6xgOKlx4KaCV4UY/k4ZTu8/cVrc/T2/OTfFscPhbnGPNb/7rJQ26GVK5rJQrPPzWZOejQQ3NbyqcJCN4YBhdfGnNrQOPWSWzwUDoE2ao1LhrcqyXbw/S9WtseAO4B35ShisNN/yW/eLGxYtoLY/WDkAePbgWeVb//UVIcYvotU9AHIaymk42wioSYyV+180LT5xliVETqPBLbvHe8MDfyzuW7uM0Pw4RX78/knx0H++HafyFtRqevpp2GHxXJbk4UaDK1tous9bN7xP7H1ffGvv+yQndKVQxTy2yLK7tm+9vSta+LazFeCCCCZ44XbRilWrxKcHr9T5imV7PsM7rRg8+XTNK8+WPf/Ni0+2gZXTZnEOts84xQQvFKoz+3YZXhgSLz7wCgMbIri1OlqTcWW7BvPeh/9/6LVRbSssXN26+XfE9YsnI8hYXWWX4K1aJZYq8Wqxfwi2DtyqeW+d2bft8DKw/jDa1NBacMvmvVKcOobPbYMXYL300JtVw+Fi0anrLwTYAEkt22pwsexbRwZuA7yw2LT04Ctl92Cl7AwslUKHcp0ANzeAm3afFzIrHCVv6+hhx8A6gGh7SqfAxYbP8PuN939FnJs9keQBjpyzrxwGzz95FMusPBy2pS5A+c6BS8m+sgxAfN1Vi6OuROcCL4B60dQpyhB4OBSGv/D8NQCFDlV0FlwV4EEAwi2k0gMWs+BY84nLxLrLp/dIDnmkBtgyo6pN5aFwSMc71tV5cFXdyh7gMGkrh9ShQQ4NsMykkx8cFMRhr97cHb2eeO7CBbGjy1vFOPIV7TQG1yAtAEzJwuqp8DHu65YtESuunf7iPADd7wunxy0BXjgozzrLhSMY5sJq72WH3izONWz5YhNEnFVt1KqhLIOLiO4CsalKABsOgBuO03MWirMTC8T1S2Y+yTU+dboo8y8vvlFkSfWYf/Sg9Z7PSBN3DDqpLfAnZ9UaKHS4JINrKVookC0vG6p4ASkPfUPJWV89DK6H9vBc9NjYx89E9/tig/6MtEf1PqeOAMqZ1EfKPM9lcCP5pQRq/WojL0IYTCkA1A/ImPB/sGCk/sbD3EjOzLBaBjdDp7BJrACmAIOLKcS/swIZKsDgZugUNokVwBRgcDGF+HdWIEMFGNwMncImsQKYAgwuphD/zgpkqACDm6FT2CRWAFOAwcUU4t9ZgQwVyBbcwZs6G+TDBju3bS0e/OejHgX0B0rYH/X4QV41S3DXb9o88k0gMJa39KwvUMped+RPX9bnk+zArXondtf2rdnZW5/r0l3Z1JEOrs6fDUnnhpErZQdCRZDwx41rCpIqn3BnWo9TGNx6dG/MVcu+iCgbwODW40oGtx7dG3NVBjdPVzG4efolG6sY3GxcwXPcPF2Rp1UMbp5+4Yybp1+ysYrBzcYVnHHzdEWeVjG4efqFM26efsnGKgY3G1dwxs3TFXlaxeDm6RfOuHn6JRurGNxsXBE/44KzXXccrPvJKR/b63Qx2K1e31V/vQ1NB1fVRW6l24bPqXhlXPnGyGA/YfB52XajxfdnoAD2VkkqcF1sp9ifAt4BTPIjZaQtXkF/THuT7aHBVWzfCC+OxIBIvllG3OO6iE0XbWL5WnY20NFobA1ttQZXCfjKr9shjSoVKza4auC4Cl/Xm0p12B4S3PWbNv/ABFOIt4xCaVNX52xp/w4yuJYVk5gAAHShYoFr2QuT7U/RU9t8RZBkuMVrkqHALYN2YK/zW0Yx4hJsCtGZUHzhaj8J3BiBozZKzWChwXUVhiK6LBMrA6ewHQvQEOAi0IKMTuCmjEubeKCU9fUtCi5BdIqdlDLFpx17PQHDKeOBBZl+UmzHlnU+lMZiZTBgsPOpv2OaYnZgbwcR48cKXN+gp2ojRwMQl6EW+6DOEHFZCm5icUhaYkGmVhJCHJJRSqFQmTex7ZXQ+IBLhNZqd5PE2gy9m5lvzXNczFm2AR2qPBXcupwL7fR1cGrbMXuxWCjLuG2CVsYvNf7K4p2qCcJL0dEaM67DBYpVYvn1OBhWqEvaYEi/L3xWoYu2UIRzCPwR2+E60n5538/WdgyGMse42A7DOGmzaaqAaY9p6gIuNX5sdMLsMGg69KtpmOt4d8RqSO85Aqz8VOoMcG2Cx/Y+nE3dpuDGgsyy/mJOTZ272K5KY7bq7bMMTCvblXmV+v1eUh2YXXrGjQEt2F+1aKlpSWqXB1TW8MaIyxFwqRew6SlNAFKvo59bBQMWYEpd1o51dLKVg6mBadsh+E5TMF1VcGNBS42XVHFpcx1MP9e4HIJLvYCN0VVBQ3WGWkdV0BKDxgqmKvsp16NqRdTCq8NxBRiLCwkuRQ/XNQBKpxaqQ8PaazvfpdhOjRPVh0NwKcHjcoGqgKGKhIlFsd31XqEvvJSAIjg3WIdjCzDmIwA3JrQU32K3pGzbPBiaG5/ywmLRdnTmytQQXCx4XC+AiYYFBiXj1uVcioOxDoNiOwV+TGfX3wn+gUUU7Hlp59V2LC5jaEPxCYUHzHZKHWV+K8ClGBqjV5NGUa4PZcucFFMgLOAJgS2qtKvTdqxt8DulfVg9rgGKxYVrvb6jKMqQH7Md69BRTQdZY8YnP0bG0z2xJfYzuZThlglcTKAYztVFxWwo63Cw8+A6MTtMLDhCgOujP9KpBZ0+WD5whF4b862PLkXHgfWovhegBAc1QEwAYMCnCnyXIIvtXKr2VeWw+Kg61yd2Umpj20bK8LwqHnx0kXpnAy5lvlgCbuloIYRA1OB36UCw4EzV6cQA11f7VNpg19G0Ia3sYx2BrzZFxsUMTxk8mC05g4s5y3a0EMK51E4nNLghbI/1GqDaVizedGjhUUOKpli9IZjCwEXH8pSGUMvYBj9WPoRAVNuxtQLbTocyHLOxzbUsprGh3iAxE3uoicHls8aD1B1En8p7cCF6TpuAwYJED2ZM/BrALb33Z9Iy9LvHNlpTy2I+cc1KPlneNy6xaY0PtHBuVVz62j6c41Y1ItRFqEFim7VS9GyWtpPBxYBI3emUtROzUzkvSCaB+rBrusal5cqxz71nchzYxNdIh8Lguko38zwbLbHgbBq4Ie3FtHGZRmB16t50uYaswyYOXKMvq6FylzKubVtdHex7nkXAB8u4obWxaANcmrRyXKVr7eD6Pt1hGzSYwHqvblve1h7b8rYLKjzHLVfYVsuymrB1kBhz9CTg5jRPxERuMrgduh0UJPOGuB2ExZPvIlRZZ5EE3JyylksnkkvWwoLEFtzUo50Ai1NqFd7w+oIbe+W49qEyBq7PJD3kULMskF0eNbS1i1IeCxTT4o0L7BRbQpbB4qPiWl7wYtcN8G52YbrrCnX24Kbq+bEgLhMYAyZFx4PZDk42gYsFZyrtq4KQYGPV6V7w2nbKtrbGio0kQ+XBCp73S8O+vbzr620EZ3kFD6VdGLhVvTrW7pC3WSht0csQ9MWqddbfplO2tNN75bj2jAsGUBodM4CwwMcyD+bgGMMh6TiC7dj7uJWdZkzbMeKosUGoxwleQlwW9VJ8oNjoZAuhjcMiyTIuJeti8Ng0TC1LER0LXkodMYZFhMBC51Ah6nDVnnIewT7SDhiu8YN1ylAvZQeOWPNZk4ZJwSU4CA1CSiDYQls2P1TrodgO5UPCS70m1ukQO83g2lN9hbXTZs8pF3ix61PbQfEDtS6sXFJwqQEU4skSuBYlS9r0kqHrq3KORTCRhmXU+lIGn2w/ZluiXR4rpxMYSKl1Sw4u5iRVIB8xCMOf4lK214hVr8sowTbDUzseF100CB+mfmQczsNiIsW+ypgNVeBSR1mDaxRf25Bf5aBulq9fPzm4NplwYCz5a96KMOiOgFII2wUxWwfbdAwDsNQvAVR29DZ1y4qoHY+qPeWL7hXaoyMCTNNUXzLA7DA5A4MWi0ns/LIAqAVcB3il/QXE8A/5DSH49k6/LyDY4SADa5utXDOict7Qdmm/j+0u0FKyGzIkHGkDVXcsODFgXB4ske2w1clmVKJpVWijaEKNR7RjM/mkNnDBGMveH4kpu59tHarX7uFgO0MNpRtoe5TPbFJ9YKtX6ri0HfVh7Ni2tywgKz9sTRXfO9qVCrAMQL1WHbaHckpK2zGbXTKu9BG1HbY+p9ZLjZWqco0E12PY7KKZ07Ck6kIpHWwbfJhAGDDY+dTfY4JrET/Wvk/hW0ybMo1rHSoHmDdSY8d69Zhc8cerorBaaDXHtriGddBZ1E2+bWZTp1IWtR3rQCgZiQAZaocLJI6ayNOi2OTaGehtqRwqJ5g7Rn1mNHLn02TbrTrLsuepbYIw5gZqUDf42vYD5CVge/u1KuOGGplZgavNXci3RjSBvIXx6UkDOLk2+0PYPghw8ge9oXxZ1rUNwjJ4KVmb6nNCdi+rKphfy/Sy6eiw9jqBKysFA+G2ify34RYEPEc6vKENf3e9qY01xOV3CcIgmPXbVoXtqv2Z265PBYJqL30NPvZ5QEG5H15o2+8Lq06E6mc1NgdxKfVJ5le1raHb+X9e2rKXCMkRlgAAAABJRU5ErkJggg==;" vertex="1" parent="qA_CRGKP_DHO0OBm4st0-23">
          <mxGeometry x="420" y="368.1952941176471" width="37.625" height="31.61764705882353" as="geometry" />
        </mxCell>
        <mxCell id="qA_CRGKP_DHO0OBm4st0-85" value="" style="shape=image;imageAspect=0;verticalLabelPosition=bottom;verticalAlign=top;image=data:image/png,iVBORw0KGgoAAAANSUhEUgAAAMgAAADICAYAAACtWK6eAAAAAXNSR0IArs4c6QAADlhJREFUeF7tnUuPXEcVx6sdEgcI4ySGEGRsTBwrjsQEECgsUOQRUoRg56VXsEmExAq+gO3Ad0BhAfKKZRAbhCKUGVksSAzEGAlLE4fY1vAQcjxjkwcJ9qBqT83c7rmPqrrnVJ1T9e9N4um6dav+5/z6PO7t2xODFxSAAp0KTKANFIAC3QoAEHgHFOhRAIDAPaAAAIEPQIE4BRBB4nTDUZUoAEAqMTS2GacAAInTDUdVogAAqcTQ2GacAgAkTjccVYkCAKQSQ2ObcQoAkDjdcFQlCgAQIYZ+6eK1JWP2LJ1YPHBayJKwDGMMAMnsBlMwJvecMmZzabqUTXPG/gegZDbM1ukBSCY77AJjfh0AJZNlZk8LQBKbYRAMgJLYIv2nAyCJzBEMBkBJZBkAklXo0WAAlKz2QwRhkv+li2unzcScYpoexTybsKhBWKVlB6MloqDjxWdSRBACbcnTqJg1bZozACVGONQg9KptzSgCDEQUNvvaiRFBIuQVCQZAibDk8CEAZFij7REqwAAoARYdHgpAhjUyKsEAKB6WHR4CQHo0KgIMgDJMQc8IANIiTpFgAJQoUABIQ7YqwAAoQaAAEGPKqDGCzN4yGNdRWhWsGpDkV73HOnGK4wHKjMpVAgIwPEgDKFORqgHEfaWV9QZCD79TN6RyUIoHpMrCm4PCSkEpFhAtYLy98cG2O1/f+K95++bOv5vvtfn8w/vuMw8v3Lf91tFDn+BAY3bOykApDhDpYFindyAMARDr7Q6c/fv2Gvv/LK9KQCkGEKlgOAhWr90yXEAMAfD4wQemQ1giTOGgqAdEIhgWBAuEfeWCogsaCwtAGfpI2XlfLSCSwZAGRZs7sEWVwiKKOkAkgrF69ZZ549p//D+WBI109Qp5VCkEFDWAAAxeqhBR2vUVD8jdq96T49uP5uT1E6/ZNUeMoQ2iRplVSCwgEm8HccW3hhpjCISh9wHKXYXEAQIwhlw37fu1gyICEIn1hXPDlOlU86Keu0JuL/bZl7242Hy5K+4pohknJHZPkh9XlBUQyWCkSKcsEEcP3r09ZMwV71RX5+1ax6yzM/YJfpJ9FkAkg2GNyBk1HBQsjrblgXb99sXRemaLJnbBAkFJCoh0MLjgSAFF16czB+yskAgDJQkgGsDggoPdmTxrdmpQkuxLQERhBUQLGBxw5IwaqaKJ3ePXvrDfE9ERwzKCwgKIJjA44Ejy6Rrpb7ag//1frkce3X6YhYSzpto+awZQSAHRBoYT/te/+weZw0iGw21SNSTbNcqd5ROLB5fJDNcxEQkgWsGgjh4a4CgGki1QuK+hkADy/Z/98U/HDj1w4bOPfvw73ERTz08VPTTBURQkzKCQAPL8i+c37To/dv9H3jr+lU8dpnZirvmoOjsa4XCa2nqE8mp8ssK9zSkYbrEnBcSt+dFPfnTly088eJzLsanmpYoe3/r6Z6iWlGUeKh3s4kV8WBCCwgKIFeree/e8LjntoipURTjESKwoIqm0tvbfrt5a+eG3jy2NlIbmbl6XYrUtRmraReEUdr/aowdFJ0/Sh8S1v7/31r+vvzdN8390cnF0ABg9gV1IHyBS0y6K3FuSY4z9pIxJsyTtvwmG00IVINLSLgpAkl0gG+v9HseHAJK1EJ/biwXjnXc+WHn3/du7OqjqAHF7k5B2AZBZT/PRQ1adMVm+tLp+pQ0MtRFk/oMsZ7fLxyGGPnhLiiB9esgCwxhbgN/Y+HCwS6o2gjQdL1e3C4DM4t+WYmkFo5gI0jRR6mhC0eaVlIsPRbu+9+c7etLAaCvAffZbRASZ3+jikYWzKW5ZASA7yjtASgGjyAjSBMUW8U8eXlh/ZP/eL/l8UsSOCencdJ2jhDrEAsL6JPhAA63f/PD1f/7r3Qt9BbjPlEVGkJRpF8XFwlLSLB+H4x8z3JkKWUPxgDgxONMuiigi6YJZiANJGuvbmQpZczWAWFG40i6KKGLXB0hCXHdnLAcYxdcgfVJzdLsoWr52zdKK3DiXTXNUbGcqZHVVRRDubhdFquXWiGjS7cZ9t4aEOL/P2KoBoU67KNq+80YDKE1FaAtwAOKjwNYYqrSLqh5pA8X+jfxHagI0yjc0PRhV1yB9hqbodnFB4moU91DqGmDhLMB9gK8+xWoTiaLbxQlJV3Rxf3dPc+9zAPekd/eEdwudJOBSFOAAxEeBnjFj0y6OmmTklloPl9Q5kwIGUqwATxubdlG1gAOW7DXUNgCk3B6SsjPlJc7WIKRYnmqNTbtSplxDW5LVGZss/+KXf3joiSOHvzi07hzvA5BA1cekXZy/uTG0DUlplFvrb89d/s35i6vftP9+9pmnh7aQ5X0AEin7mLQrZTSRCIbrTF2+smbevLo2tQAAGXBEn6eaRPoy22GS0y6JYMwX4AAkwDU1AuK2NybtsnNQpl4awHC63di4ac7/+RIiiA8nmgFx+xuTdrk5YmGRCkbX43TsfgGIDxlbY0oAxG5lbNrVlMz98qz9W9ePaUoEwxi/W0MASIWAUKVdAdKJGhpya0gTkK8+dcw8tG9B1F7sYtDFYjYJRdrFvESS6UPAaKtBAEiBXSxfz6JMu3zPmWrcmFtDEEECrFRKDdK35bHdrgA52YdaMG6sv7/+v9ub0U+NASABZqoBEMpuV4C0xEP9CnCfkwIQH5UK62L5bllf2kUHBmoQXy9pjKspgjTl0ZB2xRTgPi6ACOKjUqURZF4aid0uLjAQQQLAcENrjSBNqaSkXWM6UyGmRwQJUAuA7IiVK+1K/aUlAAJAAhTYPTRd2kVfgPtu/OVzr06H4kLhgGKIIO0Ccaddl1Y3zo59ArovDG3jAIinegCkXyjqtIu7APc0uwEgnkoBED+hxqZdqQpwv90YAOIrFADxVSrulnppYLjdIoJ42h2AeArVGOaTdqXuTIXuAoB4KgZAPIWaG7Y5MctPPbZwZfdvMubrTIXsBIB4qgVAPIXqGGa7XYuP7ztsv2EopQD32ZED5LFDB8yRzx3wOSTpGHxhKqnc/Cf79MJe/pMQngGAeIqJCOIp1MAwAEKjo5sFEYRWz+yzARBaEwAQWj2zzwZAaE0AQGj1zD4bAKE1AQCh1TP7bACE1gQAhFbP7LMBEFoTABBaPbPPpg0Q+2xe+70QXAcZcB20eWnYAiA0OqLNS6ujmNkACK0pkGLR6pl9NgBCawIAQqtn9tkACK0JAAitntlnAyC0JgAgtHpmnw2A0JoAgNDqmX02AEJrAgBCq2f22QAIrQkACK2e2WcDILQmACC0emafTSsg9ufX7MPjpL0AiDSLjFwPABkp4NzhAIRWz+yzARBaEwAQWj2zzwZAaE0AQGj1zD6bNkAuX1kzb15dm/4ENGqQHvfB3bw0bAEQGh3dLIggtHpmnw2A0JoAgNDqmX02AEJrAgBCq2f22QAIrQkACK2e2WcDILQmACC0emafDYDQmkAMIM/99Pwrk02zRLu9+mYDILQ2FwOI3dbzL7522pjJKdot1jUbAKG1tyhA7Na+95PXlm7fMzmFaBJnaAASp1vXUeIAcQtFNIkzNACJ000dIIgmcYYGIHG6qQQE0STc2FoBsTt99pmnwzfMeMTEmDMvnFw8PfYUk7ET+Bxva5M7eyav+IyteQwAobE+FRx2NUkAcdtGO7jfAQDIOEAowXArSQoI2sFlAWIfXG0fYC0gxVreNObMj08uLo9DbPfRyQFBAd9tQm0RRAIgHFGjaaEsgKCAb4cEgPh//nODkS3FmpcABfyOIgDED5BUcCQv0vu2jwLeGADSD0hKMMREkKYktV+BByDdgOSAQ1QEcdLUfD8XAGntIpFc8PNL3oR0sXwWW2M0ASA7nmEjxh1jljlatz7+JzLFaivga7o7GIDc9YBc6VQbOFnbvL4k11LA1w6IJDBURJDaCviaAZEIh8givS+qlF7A1wiIVDDURZAaokllgCxPjFmhuCXdN1WPGaeiBmnbWInRpBZApEeNpr+pBcRtoqR2sDZArA1ePvfq1BQ+X5jSBIbqFKutHVzCF7I0A2Kf7m6f8t710giHuiK99AK+REC0glFUBCmlgC8NEO1wFBVBmpBoLeBLAaQEMIqNIJqjSQGAsH31NaZFS3GM+i7WkAiavpClGZAnj37+7M9/8I3vDtlD2/vFA+IMouF+Lo2AXPjrGyu/euFEsQ8urwYQC4r0aybaACmp1uhpT2sLeuPWK7mA1wJIDWBUUaT3oSQxmmgApCY4im3z+sYYaQW8ZEBqA6P6CNKESEoBLxSQ4lq3vh+g1UcQaddMpAFSa9Ro+kVVXayhT47cBbwUQADGjqcAkBZqchXwEgABHLMOAUA6wkqOaJITEIDR7ggAZCDvSlnA5wIEcHQ7AQAZKky2fr03xReyUgMCMIaND0CGNZqOSJFypQJEylMLPaXPOgyABMrPWcCnAARRI8zgACRML9ZowgkIwIgwdOof8YxbotyjqKMJFyCAI96HEEHitduOJlQFPDUgAGOkcRFBxgvoZqBoBxMCouKphXTq882ECEKo7diUiwIQRA1CgyKC0Io5th08BhCAQW9LOyMiCI+uUV/vjQUEcDAZEYDwCeuiSUgBHwoIwOC1HyIIv77TM/gW8CGAAI40xkOKlUZnr5TLBxCAkchgW6cBIAn1HrqfawCQqr/6mtBMM6cCIBmU72oHdwGCqJHBSIgg+UTvagfPAwIw8toIRXp+/WcK+CYggEOAcdDmlWEEl3JZQACGDJu4VaAGEWIPW8A/8uD9S9J/9VWIXMmWAUCSSY0TaVQAgGi0GtacTAEAkkxqnEijAgBEo9Ww5mQKAJBkUuNEGhUAIBqthjUnUwCAJJMaJ9KoAADRaDWsOZkCACSZ1DiRRgUAiEarYc3JFAAgyaTGiTQqAEA0Wg1rTqbA/wH9qrJBWrcVOAAAAABJRU5ErkJggg==;" vertex="1" parent="qA_CRGKP_DHO0OBm4st0-23">
          <mxGeometry x="511" y="368.1952941176471" width="50" height="31.61764705882353" as="geometry" />
        </mxCell>
        <mxCell id="qA_CRGKP_DHO0OBm4st0-86" value="NodeN-Compile Server&lt;div&gt;&lt;br&gt;&lt;/div&gt;&lt;div&gt;&lt;br&gt;&lt;/div&gt;&lt;div&gt;&lt;br&gt;&lt;/div&gt;&lt;div&gt;&lt;span style=&quot;background-color: initial;&quot;&gt;……&lt;/span&gt;&lt;br&gt;&lt;/div&gt;" style="rounded=0;whiteSpace=wrap;html=1;verticalAlign=top;fillColor=#dae8fc;strokeColor=#6c8ebf;" vertex="1" parent="qA_CRGKP_DHO0OBm4st0-23">
          <mxGeometry y="420" width="296" height="130" as="geometry" />
        </mxCell>
        <mxCell id="qA_CRGKP_DHO0OBm4st0-94" value="NodeX-Test Server" style="rounded=0;whiteSpace=wrap;html=1;verticalAlign=top;fillColor=#f8cecc;strokeColor=#b85450;" vertex="1" parent="qA_CRGKP_DHO0OBm4st0-23">
          <mxGeometry x="296" y="420" width="296" height="130" as="geometry" />
        </mxCell>
        <mxCell id="qA_CRGKP_DHO0OBm4st0-95" value="" style="shape=image;imageAspect=0;aspect=fixed;verticalLabelPosition=bottom;verticalAlign=top;image=data:image/png,iVBORw0KGgoAAAANSUhEUgAAAMgAAADICAYAAACtWK6eAAAAAXNSR0IArs4c6QAAIABJREFUeF7tnQuUFsWVx2sYHgPyHkAFNRpF4wuNiKAxBvPwfVbX5CQYIKsm8RUTdXPIanw/dmN0s0ajsmpiTIBIctS4ie+TFUyy6ojPiaIBEtGALxgE5A0zs+dfM7e5X31V3dXvqm++PoczzHR3dXV3/ep/761b1Q2ivuX2BFZ8uHFyUHivXpMbGho+o71YZ+f24/gBDQ3z1eM7OzufCv7W0TF/5LD+VcfkdkM9sOCGHnjPmd+yBKFXL9nIAwhMjT7zq3cX2A1TAFAdnkyedB2QBI8RQDQ0Nl4pTy0ahLj1bWiYT9CMHNLvqrin9/Tj64BEtAAyk7wBwqJFdwpxNQ6rAxP9sOqAaJ5RBRSuK0T0Ow4/olth6rDoH1MdkO7n0qOgMCFTh6XqyfRoQOpQhIhLHRb5cHokIIGTXevmU1rzq/v8nuyz9ChA6mCkI6YngtIjAKmDkQ4M3dmApSc49jUNyIo1m69qEKJrvKK+5fIEah2UmgSkDkYuLIQWWqug1BQgtWRKvfj8c9oGecihhxXf+mNcsdZAqQlAfASDA3DXzJ/IJvjiAj0UuvZ5yIQuUMYfOlH+/Ma558doxvkeKp35GskF8x4Qn8wpQJEEBtvmDGgADH66oDS1oCbeAuILGARFHHWwBSLquG+e+20n1MVnULwDxAdzKgsoJnxyf9m4JxxygBi9Y3PAwjvvt4kFL74qf1/w0mtRjMj9ToCCkfn29qt9m7/iFSCuq0YaMM77+lckCKec+DmrRk8HLX/nPfnfX/7692LOfY+FnksmWJn+im9q4g0gK9dumefq3IukYCSFIoyCNWvWiP+d/7S44oafhsICVSkLFJ8gcR4Ql02qNGCcd+aXYylFkoOfe/5l0bLgJXHH7Ie0p5cJCSrU2dFxtOsml9OAuGpShYEx7qBxYvq0aQI/sc2Y8T3R+kqr/D8UI2swOrZt0Tb+Xr37Bn9v37xe3H73b5wExXU1cRYQV02qn868NQjV8papgoF9AAOAYLvu++fF9i9wHgDobN8qy+ignwYoTCpDsPz3L35bhySmFDsHiDSpevWaF/M+cj/cpBrTp08T06ZPC64PKGbNnh2oBqJRP7/1Guv6ERCAwaQO1oUZDrxzzsNaUOomV/UDcwoQV00qnWqoYCxc+Lp44P77xZ/+9OfgKduqBkGxbfP6tG3f+nxnIXEsS9gZQFyEQ6caOlPqkUceE4uX/E20PPO0aGtrk4307psvF4cdenBog4VvkKdSRNHyQusicda/3VR1WOlK4hAkTgDiKhznnjm9ovHceOMNgfONHYsXLxGPPPq4PGbxokVi8aK/WsEBMIpUizBQ6pCEdyOlA+IDHDrVmDf/KdHa2jWiDdWAekQph0tg8GZhgmTm3bNKzelyIcJVKiAuwqH6G6qvgYZ1/wMPimXLlgdtjEyrMLPKVTjoJnQ+CUbeZ/5sVpSlluv+siEpDRAXw7jwObhZZQMHmVYmOOCAt2/ZkFtEKsvWqYOkbH9E3l9Dw/wRg/seneW92pZVCiAuwoEHNnHcPsFzg1kFn4NvqnKQaWWCw3XVoHvr3W8H0dDYR2C85Ac33VWV01W2qVUmJIUD4iocqmn1+BOViX8qHHhpjzz0ezH1S8eJSy76ZlWH5AMcAKKx7wAJBt8O+NQXK353wdQqC5JCAXHR56CWcO7Xpwcz+rhphYE/OOSIWPFtVdtK6Zy3PnVvVQNLAgd68aJDvv0Gj6q4J5iDTqsI8rcKDgEXBojLcKjmFQDB9kprazAirrNZr/neN8SpJx9f1ci2blhtZeICisZ+O1QcmwQuq4spB/Fr68wqtUxnVKRgSAoBxHU4VOfc1OAoARH7oSzqSDl6YBs4dGCgTGTeYgMk48ftnaTdW5/TZ8BQqRZnnH+F9cQrJ3yR7jssSklyB8R1OEzJh3gPzc3NYr/99hVTp08Te+y+e9D4rrv2OplSgkb8i5k/CP4OOKLyp6hh8paMTNvbf/brisZ91tQTxdnTTrJu8HEPhHmFdPgzL7jW+lQnIlqstkVAkisgvsIBML559lni6Mn6L6YRIHhX//fI3WLIkCGy148aHVeVA1NmAYZp6uwLj860brxxD0RdSLG4WmHQ8IW/LNYmM7pkZtH95g1JboC4mpVLD1anHADjC8ccK77whc+JXXYZU9HmMDC4fPk7Ytny5WLek/OCtBIAMmiH/lamFXeKdarBG+r4A8fmqiBRQLk6uq6rd54Tr3IDZOWazZ1RL6Gs/TqfA3BccOGFYuLECUG1AEXLcwsqRs2xk6eWAJABfTojTSvY+zCvsKlw5G1OJX3OOkhcM7Po3kYM6ZdLW86lUN9MKx0cunEPehkckEfvvUmMGtoU2QbJ9+BwuAoGvxkVEhfNLFnfnEbbMwfEdTjwLPmIOX6/+PuXBP4GVANwhG0ckDt/eJFVxAmA/O7xP4nL/uN2WbQPcNAzQEo8QKGtpbUra9m1LQ9/JFNAXPc78EJV32Ps3vuIW2+9Wb5rGzhwHE9ttwVkU2c/ceGlP5IOuU9w4H5VFXEp3KtCmrU/kikgLvsd9CD5iDn+ds211wZ+x8233GbVKSYBZMlb74uvnHOVVBtA5dvGVcRVPyQPUyszQHwwrVTziqtHS8sC8WyL3eLRfOagbSiWemFbxXENIK4izvoh9NAy9EcyAcQXONToFaJWJ5xwnHystuqBY5GkiA0DeTCXbDesT5Xn4J9tPZIc5xUgGaajpAbEB7+DGoQKCJlXcdSDO+hxAUnSMMs6B0Co6S7czHLVUefPKwt/JDUgrqav6xqWKaU9jnpwQGzNqywaedHqAxhUX8k3QLII/aYCxBfTihooB+TTnz5SXHb5ZSKOeqCcIgHB4GKvxj5yMtNtP71XjD9gT6uQchogkYKC7cwLr6sChM84dDmSVaEiKdPjUwHiQ9TKZF4lBYQiWHlHo9SkxjO+dbno6NgWOwI2/vhzrcPKPFespeV50b51UwWQ3A/xBRC8/zSj7IkB8Uk9dHlXBEjYiLmuJyZA8vQ/dOnwGD9BanrcKJgtIOo1Acjt99xfAaSvgKQZQEwEiE+OuSmd3WVAdCnxBEhc5QIg2KL8Jd01/+XcS8TZU08MVMRXQHD/SR32ZIB48v3xsLkeBEgcBx0PmhQkbk8exy9Qp8LSuTCzFry8MJaKwLmH7xA1es+vSUuhwg/Bxp11Ag5/d3rAUH3gCcdGYgPii2kVBgeeHRIUf3XvnFjjH0UBYppxSCpiowjUPgiQqHMoIMDntJBicLg4IL5BkkRFYgPig2NumkJ7y6jh4jsfrAr6limnfVW8uXSpWNXWJrAIw/DmEcG+4c3NEiJ1oyhWngqCa6orjVA9Zt7zgFQE6tltpuZSow5TEZ6MSNd6vnVR1bVUQLyCJIGKxALEB/UIg+OIpiZx6NvvxLF2BNJRxu69fX54UYCEVZIaqa0/wlVEBzbfb7ouwaUDxCdI4jrssQDxQT3UVHa8PCgH4MAWFxAyxyYefoQ8nwDJM4qF3vyObpXAzEJZ7+5FHPB33ttHOd/U4HnDVs8xzR6kc8NMLA6UL6HfOGFfa0B8UA81U1eFY1V7uzhm+ftVnSR6YkRraMOcbGz8234wtwgSJCvuPqY59piErXTZ9OhBXS3nrfMydaaWek16JqoJZ1KQwAQsecFrm2ccR0WsAXFdPXROOVcOHRymRkAPWV2rliChbN68/JCoHl3Xs9s0DJ4qYvJHSJ1Mvk1g3jX1E+P79RV3rvmo4tLOZ/p219ZWRawAcV09ouDAM7l+1Wpx37oNwcu0td9VSLiK2JZh03jVY0i9SM34fphdMLlsHHR+ngpeVOhXV+/A4R8ySJw1ZJAERIXEh/CvbUTLChDX1UP1O2YMGyy+Mmhgxfs9/b0V4tUtXR/DxGZru+NY3vMWBUgSqGzOUU2puCpIgNwxqlmMb+onL6mDxHl/xDKiFQmIb+rxpYEDxMXDu1YP4Rt3zuM62LznhZmFcDC+JpWngtg09qTHpIFEBwjqcfYHbeKFTZsrquR6SryNingNiM60emLMjmJ4Y2PFi1L9jzSAVJg6nk6fxT2ozraNkvCOgisIPRM1Qui8P2KhIqGAuK4eqmk1d+cRYq8+lUv5b+7sEPM2bBCXta1NZF7RSbroTVzQkvb4eZynCwREQcLPeX630VXV8tHUilIRbwFR1YNHrPibW7Ftq3hh8+bUgNDodQDMgWNjO8l5NPQ0ZerCyWGQUMACvgcURLepkPiuIqGAuOqc60wrXY8GOKAgcM5JQXz1G9KAEHauDhJTAMMGEFxLNbVcj2qFqYgREJfNKxUQnd+xtqNdrG3fJttGHZBwvFRITOFfW0B8M7USAeLqXHMVDl3UCqoB9eDbKe+2yV9rXUEoE9hmtXn+fDgkpmdE4W6Mf+Bf2OaVwx7irBsVxFXzSnXMdeqxbGtluBEvkgDB/+OMgeRl2uRVLp/XYfO9EqpHHEB0ESz1fmpFRbSAuGpe2agH+R3qC5u7bqOY+1HXSHpUtCavxpt3ueo8kjiA8MFQk4KYxkBM9+WTipjMLC0grppXqnqojrnOtKKX15MAsf0UHG/YPIyt60CiQrw2ES0c4+wIu8HM0gPi4Lc9VPW4bPhQccrAARXvxaQePcFRl1+GevVv4rwzvhT5pSv+0Ci1npIU0zroKii+q0gVIL6YV6p68KiVSfK5H1JrZhZMJDIfbU052+iVLHfOwzL9P2wMxHcV0ZlZVYD4YF7pIlc6xzzMD6m1aBb5EFEBCMoS5gOfNlm9cf0P/uy9URGNmVUNiAfmlRq5slEPemEYMKSs3lqChNRAneMC0wlzy0kFeMONAoOvz5sGEJ8iWqqKVADiqnnFnfOk6qFz1vE3G0jIvHDZLLOdhUir0UetMo/yaM4JnxOjy1iIMunqgEQ9oRT7o0bN46iHCRL8XZd4qDqwUeZLitvM5FQdJOgAaF57FBSoBFciWg8rqf9RC2ZWhYK4ODjIAdE5iDa+h6718bCvuh+NSl0Gx4XMXd0nCTIhi4FB5XG15NNsTUmKUfXwRkUUP8R5QLh5NXunkeITffsE7yJs3CPqhWF/GCTq+UWpB18PC+MZfOPrW5Hq2dyn7hids07Hcd+Em1c2I+im+ngDiLLYdQCIi/5HlHkVNu5h23BsIClKPfhIuC6XyrSYA81NJ1OK3zuf0w5ViFoQQvXJ0vofPppZ3FH3BhDVvEqrHvzFIar16pZtQSpKWerBAdm89gMt47bOuO5kqGDY+bqoVhbmVWC2aRZ4cHJaLjOzAkBcHP8Ii15loR42volNlMtWraKOUzNxKUSrc66TgBIGiA4Orh42GbxR9+eNmaUFxLHxD3UJ0d+OHiV27d07eAdJnfOol6jzTYr0P/AZAm5eYQAQppMpAgVQYEbp1tbVKWGc0XOen5XG/wgzs1zNzaJ1s6SCuPi9D9X/4PH3LM0rGxVJOv4RN+oEBx2AqFm4UZDQPRAkNDBY0TC719GKWhguMIe6U0vwe9z0krBOSF39xNUpueSHdAHi4Pc++DKi6gvKy7ziLzaLvC36LoeNatExgESNXuk+QxCnzCTH5qEeqIcvc9ZpeVJnAQkL7+ZpXlFjyiIlBT0/RqPjfEvd1Jij1tZNAoHpHO57ZKkeuB7WzoKK8M1FM6sCENcddD7+kbd5RS9ODf8mMbOo588qTKwuPWSbNhIXnrzUg+qhJi+6CAh9QloqiGuAqA469z+KMK/oRXIzK2k0i7JskwBW5WS3LpLLoOq2sLEQfjwcevX753x/1pErXV1VP8TJVU+6I1ldgDgWwQpz0Iswr3QqkhQQPjCXBSRJwrsVAPzwIuN6XnmaVhV1UMZDXHXUEclyHhBuAxdlXtHL5MsFSQczpHGFmTFBsl+GS5XGASXqMw/SN1DUKWvfw0dAEMlqcDHEa4pgFQ0IXir3RZKqiISLZuRlCAk17DA4bT+RUOXfWCztE9e3oeNVR91VBekCxPEQL597XqT/kbWKoDzyR9KAlrRRhp3HVzThxyWZ+2FbP9VRdzHlxFlATCHeIv0P/qKzCPlSedQYs4ps2TZI03HqB4L4cVmkl5iu6wUgQlztpIJwQCjFpAzzil4uBySNL0LlkTlTNiRhcAR1DVmoOg2caiTL1VBvg2shXjx0lwDRpcOnNZG4Q5y2rKSNVAfHgJFjxIYVy6uKzMNhV0fU64DEeJM6QIr2PwDGq5uRBl+5xi/dRtreX53OmzRCFuOxykPV69L5gGOXo04RH73/D/Hun3+XOyR1QOK+ue7jTYOERQJiM4kqC1OLO+74f1rooh65yaQiOOh8QLLi5T+KbetWVxSZpZLUAYl6W4b9JkCKcNBtweBVz6Ln51EkSmvPIn+L6mlSDexv3u8w0bzvhKq3sWXjerHsjw9qITlr8MDgA54JX3NVTlbdxLJ8kjpA8nbQo8ypHQ87RjQNGyXWvPWGWP3G81V3kkXPr/bu8E3SJDoSFGRWmR4/7m3IrmO1uwHJey89JTa9+2bV/rTzQ9SxEHcBcSzNpGhAwlRD13g+eK3FCIk0maaeaNkVdPkDsgH/ZbGcFIWftJgCL4Rgwd9wnG7wj8q6Y87Dga9hW5HeA4eKkQcfJQbtuKv2FNM9p4HEC0CEEA2u5WEVBUhcMHjLMTUYOgaKYmrI1KObkg5tG3Uex4WpyZp/LBbvP/dEZkpSByThG9QBkqWDHmZOmexx3a28u+AP4qO3/1qxa+KkSaLl2WcrHdtxe8vfYS7RplOJhI8r8WlwuKUi9esrJzHR1rTzHtIn2WHYyKqyTRGuJCPudUASv7rKcRCsw9ve2SE/xpl2M6kGojiD9tjfaIubrgsnlo8bfOfCC8V3LrxAQtLybIu45cc/jqwyb6gvbN4indckGze75JKhBpMN19M52Xzgbugnj5aA2EKSJLpVByTJW+4+h4+DZAFIGnNKdxvrP1wh/wyzY93il4JDoCBz5t4beud77b5HsN+UyoHGA1h4z84LtYmc6UK6YakjKiB0PR0oujBwXH+kDkhGgMzdeYRoEp2JSgszp+CUDtvzwFjlAgyCg07EWAGiPDRmQCpiKpgAsc1z0i2Vg7JNkTNdSFe3ptjmjkpFXry1PZgKO3DsJwUc9zBI8ByWP/mbSNhNz0G9LxeTFVF351NNbhk1XOzWGPo5d+07yEo1CAgVDPWiOlAmTpoooCp8iwsInRsGCh2D1Uz48j86cwqfxsaC3+q2pVOIL7/XNVdcBcQEyt8fnxN0DHHNLDUXy0lAGhrmOwkInw8yY9hg8amm7evxRnX5RYMRBQr2AxIChfwSUhD4Vmvb27U+Vr+GXmJwY6O8BP6PzQSK7rnozB4TIDifphjDUW/aaXfto+YmFw9U2CoiFcoBcXU+COalOw8IvgcybVD/KC5kztTcjzYac6fCQpi8cJ0ZFXlxzQGqoqiHUIOyjdCN7N0ngMQWlLiAUNZyGCBcTdYueSWI5MX1QeqAJGlV3efwOekH9O0jrmseHFmampJOJwzabR/RfMDhom//HULLyAoMnaIQLHwfARInhWaXPl2hWV0vTA1UVRgeJcM1wxTklx9tFA+s2yBsAEEdVr80L6hL3FAvnw/i5KINuDNXFUQdC3lw5+bQxq3OHaeDbVQjLzB0Fd703tIgbYNsdltAYGJBRbAhAnTn2nVBSFg1b3jvrH7PY2yfRq0PgnLjAALoKYIX1/9QI1h1QCL7/8oD4gKi8zui4CgSDLo7XaOyNbEAyNvbOiQYBAmVqzZQ3jtTzx7m61A5cQDhsMc1r3wBBIvHOTmjEC+Mj4VMGTRATBlo9kNUQMJCuGWAwfEns4QatS0gKGNwr0YxuHH7At7cnIKKyFFxpiw4B4DYXiOODwL1oNB2XPPKiwiWEBhcuNrJVU3wYnkkKwoQnYm19xe/VaVbyE5d/e5bMfUs28Op500CCNWEIlpYtemzy/XfEaFj0XhtzTiKYpnCvGGgx3lKPsxHx/14A4iNo85XQcTN6UwslwCJ27vrGiAfuzA1UIBI6vux3o2ib8iQki0g3FSsVfNKAuLqulioXFo/RJ0lRw3og78vjNPZ5XIsmVloXLv17pUoz2x9pxBTuwf2eCWnT58mf32ltVW0vtJqrP+pAweIfbq/97h3n97i9+u7IlgYQYeChG1pzCtf/A/cv7MrK9LLieOH4BxVRXRmFkwsKEmZGzezrhs+ODYgSAuZsXL7dFhAMW7cODHuoHFVtwVIZs2eHQoLPykOIHGjV7iOF6uZdD+Q7YCs3TJPdHZOLrPR6K4dxw/B+aqzrjOzynbSUU8OyI3NQ4xhV/WZwEmf0bamIuMXcEzrVg06fnjzCLFx4waxccOGiiKOPeY4+ftBx58qf+64177i/SWvi/cXvy7eW/J6cGyYD5LGvMIFfPE/nF7dnd5UWjML5agq4gIgqBeZWU+OGWUFCEyq/1q9feyDt/zHn3gs+HX0LruK/gMGiGeeflocfPDB4sNVbQEoAGSnvfYVx3z70qr+CIC0PvpAAApS3nVbluaVsykmuHG+uruLy4+ijiogGFGHwx62qWbWx46dJvoNHBKc4oKjjspQQ5uzU7PYIcRxDgODboqryJ577yNu+tGP5D9sb7/zjgQEoJz/rfPFB+u3agGhsn55QZcPY1IRqncW5pWzA4TdEayRQ/pd5ewXpuiF5WFmueCok5n1r8MGiaOa+lYxrwMDvf+440+VKoAe/4mf/HtwHqkIFOT0r31NKgi2X993nzj8iCPk/089+eRIQFDmyvfe1TrqPca8qgLkw42TG3r12p5YE9pHF7uTA4Irx007QS7WzhM+X1FpFxx1amxqCNukGDCLAAbf0JjJdyAVASAvv/yyePaZZ+ShF333u/InVGTqaaeJhtF7iYOO6/JB1I2gi1IPnFfL4V3cX8VHPPEH1xZvoJenmllRg4Y4Lyqa5ZofInv3gQPEW9vatVNudXDgHJ2KwEEf1lyduwZADtxvf2leqaDRsw5TDxzTU8wr3GvFZ6AlII5GslC3rM2srAEhNbDNgqUGyfOZTLqMiJOpx8c5rzz2gHjl0Qfk6aQi8EPULQoQKsfknKcxr3Qf7nRyghQ9tG4HHb8G7qHLgMSNZqkqMvQTh4pR+08M2kzWjjo1Hphzg/c6qGparqnx4+983gjGIPhyn1Fw8J6fTC34IjoVWblihZg04TCtgpAShQHOo1dxzSsvvknIXhJ94bYCEBe/NMUbVtxBQ3V+iBruzdJR54DA30mjUNQQbeFQTS2uIruNHi0ddDjqbyxcKE464UTxtZtnV/EaZVrhBDXJMgx6dZ869uFy9Ap11wIizSzHVlnkDzqus64OGo757JcrlrHJExDUOwkk3IzRNeSwRskddlKRc84+W0w6/HDpqJsAiXLMSeWymvuB8pw2r5j/UaEgrvshcZ11NcNXHVXPMpKlKkhSQJKoB0HDHXadL/KLu+8Wd/3qvqoxEIx7RPlOPcm8wvMkB90rQFDZuCrCo1mqH5Kkhzf14FkAwh32OOYVr5NORSiidcWll4onW16qAISONznmPVE9uHlVBYjrfkhcFVHNLO6HuAYIn99NjT4uKGEqogJiY1qlBcQ351z1P7wDRKciYeMiKiA7H/lPwQrmWUayslYQrgqUWBgW6rVREQDy2qpNQcjYxjFHuUnNK+9Cu90PkZtXVYC47odQQ+ARLfzNNLoe5Ydk5ahnAYjaGFVzzhYUk4pgwToaJKQxj6iZgzxogPrEmVrro3pQgiJ/9lVpcq6bWag8XxYIv4epSJgf4hogZNLwpUx1oESpCfkW5Kxv3dYuQ7yUxYv9UY65CmxYciKtIWxaSxhluR650plXWgXxARBUXFURU6ZvmB+SVSQrKwXhMEQtPId0kR3H7qsdZVdVBJOpZsz4ngQEKe2mZEQVRu4XqYODNlDw8lwf+0BdVfNKC4gvZpaqIiZTSwVk9xNODxaRy8pRzwMQ3riiUlJ05helrdMU3FmzZsuJUkhLiTKtSMn4yvUwr+JAoftWCsp18lNrkoSG+SMG962aBKOdieCLiqhhX52pFeaH+AIIwRIFCo4jWPgsQUzFpfnpNlNqo/whVWkC33DSJPl9FL5g9y0/vrniOymuTpJSw7t0T14DojO1dJBwP4QPGCaNZEEx+OcB8lYQtUEClG0ffVj1BVpTw+V/t1EPGxB5mQBCBYPvnzrltIovb7lobunMK6OJ5YuZhXqqYyP4mwqJyVFPAgg1HgACR5cSDGGO8LknWamTrtFTQiN+xgUFdaYN56p+jw1kYYphOl+FxCmn3WBehQLii5mFm1BNLfyNO+1hiYtJIll8bIAgSQoIb+wVjbW78fLs3jiNN89joxRDd218lg6Q0OaSL2Iyr2oGEJ2phb/R+EhYJCsJICibQ8LT1Gm0niJkspdft32JHuq1XWz4YVAlgUItj6uIS76IybwKBcQnM8tkatF0VhUQvpBD0lAvB0RtCOq8jjx786zKJsda/Uovyn/o4YfEx/bYQ66Wom44Ho44bXF8ERdUJEw9IgHxyczCzehCv4BkyqD+AmYWbRyQOL4CqUFcu9/UiHm0p/L/2yd30bnqp9x0DbVPn97i9YVd61tdefkVwSFYZXKHMXvK3zu2bJI/N65YXvGFXnx8lF+Devspp00RZ5xxupzGi4lYtBEY+GmrLqqZ5YKzngoQ31QkDBKEe2nb7fNTRNOQrnnbtoDwtAs1gqUDQG38+F6hbWNPqgqYVvvOsn/I09GgDxs/Qf5ft4DepjVt4u0/zA0upQLCw7OYX8IBwWfkSDXU86Lqzr/yW7aZFQVHpILgAN9UxAQJf3G8wdgAgq9TDRi6vffkZXW2bxNb1q8VK17+o/Q1or5yG9WA0u7/26K/BkXQSoo6QDavWyPeenz77EK13ry354CQcoSZUmH34FI0KxNAfFQR1FkX2aIXFxcQnKf7XjhvCAjtawuXAAAJJ0lEQVQZL33kHvmd9ChzKC0EYefbAoIyFt1/W1CUDmzq7eGDDB4yWGBJId3G/Zaoe58za1aF+VemHxLmnNN9Wn1f2UcVCYMkzWAhQMHWp2lAxXcPfQIEdd2weqX44OmHQgGh3v7W226VC2NzQLgPgkIIDCgLbTpY3njtNXHSiScFx5QFiI16WJlYdCcuz1cP61F1SpIGEN216AOhaHAuKcgVV1wlR7Axm3Loxw8QWzdtkP9odXseiUNjRt35Rn7IxZdcLI4+erLgywmhXHLQOSBh74J8JDL9cGxZjrqNesQCxNX1e23MFRUS9RNtScdC1GujwZ33jdNl2kVZGzexCBBTarsaql6y9M2KapMfAniuueaqCkCS3B8Bgsxiyg0rw1G3VY9YgOBgX1UEdechYHU50iwBGX/AJ6p64iSNKek5HJCf//weMffeuca5H2rOlQoI6kB+CBx1Wjk+ad0QYQMkVC+UUwYgtuoRGxCfVUSaAeO6VhysA9LVxFVAdOYhB4SHesnEanm2pYIXCmdDdVQfxAVA4qhHbECkiji8RGlUz0aAYBzj48dODQ7PSkGowel64qi6ZbWfGiHKi6sgOkDIUUcka9ROOwaDhboRd909cEhI3Z5teS6IZBWtIHHUIxEgvka0uILg/3yFk6wBKdNR54AsXrxEfhPE5IOoc851oV4TIHGB5oOYHJAinfS46pEIEJ9VhE/TrQPStS4wnzWoA4QiWb/9nwfFgP5NFflYTf3N367v378yb4t/6aoMQJLAkRgQX1WEA8LzsbJWkDJH0+MoCBoAn3dO9aYvUmE/ok1QIYyFjB27V1zh0B5P0TXsLGochL73EfcGrAYKdYX66LDnDQj1yLoxhbgvJunxHJANGzeJfz75lNAVTDggqPeN/3lDxcc/yUzLChBkBB915FHB7RUxcSqpeiRWELo738K+HBA+WJiVglCPXCYgq9pWig/b2uQr2rp1mxy1DlviR13RkX8QFGUQZBgsPPLII2Nxi+xidSvDvIrrmPM6J1YQFOKbiugASTLtNqyVUIMrK5IVFxB1sFAFZN68+eL6H1wfCwwZEJk0SVx++WWCQ0JqRIW5rh6pFcQ3h50DgjkSIw76tOjVt0lg0lRWW/D12pKSFtMCgnAutrVr14rrr78+GPEOez6AAcsLjdllF9Gnd+8KKOg8FbRColchc81t33cqBZEq4vAHQNWHoC42h/0YNGxsHm37vCKPI0DKctQ5IKgs8p7CTCybFUwwVoFt/KFdc1peeL5FvLjgOfl/TKiaNm2azPaVYK3ZPjFt6dKlYtmyZVUKVNTYR1LHPDMTiwryxdQKS4G3WYozkg42Ol2WH6IDJGwtLBUQggE9PLZDDu2Cg2+6lWRsno0sb8JhYubPZtkenvi4NI555oCgQB9G2KNeLF/KJ+mb4Q2uDD/EBpCwZYNsTR/d9GbTM+PQ6YBL+qxN52UFB8pPbWLxSvoACeobpiTYnwYUPvhWxog6H7HGvVDmLE0TjlpNxRYQXeNEB6RuRQChXjNN1EotK1NAfPJHbHrApKBQJMsFQHjmbFRPXZT5E1WPNPuz8DtyMbGoUF/8EapvHqAQIGX4IaqCqIDwdXrpGUA1AEcZvX0aGNRzszStqOxMFYQK9cXU4g8YoGC7a+ZPQt+ZjapQJMsFQCi8St8KoZubPWu2wIrv2GpCOYS4euSQfldlCVzmPkiFP+LwJ6XDHqItKOSr4Cdf7xYA8cG3oh11VUEIEHUAEDlW8E9qBZAs/Y5cTazA1PJofMQEjI35FdVjleGH8FmFPQGQrP2OQgDBRXzzR8JAsTG/dOeXMWDIAaH0jhtvvEGuTMI3vnhCEWkfUZ1Jkv15+B2FAVJLkNBDi2OC4Zwy/BAOSFvbKvHV074qogApKu08CQSmc/KGI1cfhN9UrSiJ7kUh9k9pF7RfdfSL9kNsAeGri/gGSBFwFAZILSpJWE+oDkQW7YfwOSGU8q5GsVB/HslKM0CYpSrYlFUUHIUC0pMgcQkQPHf4GlGA+BLqLRKOwgHBBX0cI7Hp1fgxas5X0X4IV5AwQLwL9WaQvh73XeYyUBhViZ4ACVeRogHRJSzqFIQDgnfmdCSrBDhKURCCp9YhUc2sIh11HSAI8SKSpW481Ouso14SHKUCUus+iWpmFemoq4DQiHkUIC466kX7HGoHUoqJ1VNCwHwGY5EDhraAqCaWa4CUDUfpCkKg1Oo4SVl+iJqPReFcriCtra1BsiK9B5cAcQEOZwCpVXNLNbOK8kNMCYtRwRNXnHRX4HAKkFqFhJtZRfohuoRFEyAYA5FzQjTzz6Ogynq/S3A4B4iEpAaygHmj4WaWS4AUPU/cBqQ8s3Jtrq87pnQn3VTxWvFLuJlV1HiI6qS/+eZScc7Z58hH7ZKfEbz7EsO4UeA4C0itmFxF+yEqHHiOHBDXUkpcM6mcC/NGEVwLJlcR0SwdGPRsKeUdvzsDSEPD/M729qtHDus/P6oNlLnfaQWplfESdVSdPk+Wxcc+w8Dgz8+pyVEOm1TeKUgtQGJasI5AwXf9dN8UN/WcgAIbreJuOg6mFZb/5ItPl60grptUXgMSRLkaG68UnZ2Ty5TeuNfWrQuslkGQhMHS3DxcvL5wYcWpC9nv9HllU/1Kc9I9Mam8B4RuwLcoVxYLQMSFUj2+LDh8Uw3+3LzxQUyNw0dQcC98hfS0DT/q/LIGAn0Gg56p94CQ2SV69ZrcIMSVUY3Fxf26ee0AiG80750G+HT3QZ8nwD46rpTRcU/NKd0zrQlAfDW7XIQ1VZ1qCIyaUhD1pfpmdqVqlI6cXAvmVM0rSB2U4mmpVTBqWkHqoOQMSg2aUqYnVlM+SFSzgOmFY3x15qPuL/f9PQiMHqUgOkWpgxIDpx4IRo8GhDcN6dA3NHzGt5H5GM072aHdUOBk1xMKk92g3Vk9ysSKeiQ9HpY6FFVNpA6IgZoeA0sditB+sw5IlKx0f+ekZnyWhgY5/wJzMXq6+WTx6rP9DLTNBWvhmCAa5oPvwoDoyb5E0nZXV5CkT46dh1mPyAWTKgNoZBddcDo+gdDZ+ZS8fkfH/DoQ6V9uHZD0zzC0BA5PBUD8LBNM3Y1evUAnIOjoCKaq1kHI7yX+P4Igm624TrfCAAAAAElFTkSuQmCC;" vertex="1" parent="qA_CRGKP_DHO0OBm4st0-23">
          <mxGeometry x="360" y="489.0005882352941" width="50" height="50" as="geometry" />
        </mxCell>
        <mxCell id="qA_CRGKP_DHO0OBm4st0-96" value="kublet" style="rounded=0;whiteSpace=wrap;html=1;" vertex="1" parent="qA_CRGKP_DHO0OBm4st0-23">
          <mxGeometry x="312" y="450" width="74" height="25.29" as="geometry" />
        </mxCell>
        <mxCell id="qA_CRGKP_DHO0OBm4st0-97" value="docker" style="rounded=0;whiteSpace=wrap;html=1;" vertex="1" parent="qA_CRGKP_DHO0OBm4st0-23">
          <mxGeometry x="496" y="450" width="80" height="25.29" as="geometry" />
        </mxCell>
        <mxCell id="qA_CRGKP_DHO0OBm4st0-98" value="kube-proxy" style="rounded=0;whiteSpace=wrap;html=1;" vertex="1" parent="qA_CRGKP_DHO0OBm4st0-23">
          <mxGeometry x="402" y="450" width="84" height="25.29" as="geometry" />
        </mxCell>
        <mxCell id="qA_CRGKP_DHO0OBm4st0-101" value="" style="shape=image;imageAspect=0;aspect=fixed;verticalLabelPosition=bottom;verticalAlign=top;image=data:image/png,iVBORw0KGgoAAAANSUhEUgAAAMgAAADICAYAAACtWK6eAAAAAXNSR0IArs4c6QAAEvpJREFUeF7tnet53LgOhjUuYc9pwXUkKScnRSQuIrvlbFKHW8imBM95KJuzskYS8eFCEhTyZ/fxUCRuLwBSGs1lin/mFvjvX88f8yIvL9Pt/9PfLg/Thz0Bri/Tz63PHh6mH+nvvz4/zv+Nf3YWuNhNfa6ZMwQJgBz01+t7GKwscrlMP5YwJYACHh1rByAMO2YYrtP0NV1eCwSGqNN0nZ7SdQENy3pTAEKwmysgSvq8AfP7y+O30tD4fApA9oIgQeGiQkijOIA5tGBUkIV5MhRdt0xSII6uD1jurHN6QE5TKVCwrtNT7FtO3GKdvlogwFynp7PuWU5VQQIKhIqNsSdswU4BSIAhBGN9+YlAGRqQAEMZjBOCMiQgAYYxGKvp8538EfcpQwESYNQFY3O1wTb0wwDyx/fnb9Pl9dGP+NfYAgNB4h6QqBqNYSjcePTedrkFJMDoGIyFaN73Jy4BiXbKBxzvpHTadrkCJKqGQzA2joY9tV1uAImqMQAcWQVH1cQFIP/56/nv0z5hOxAXS1XS3uSfz4+feleva0Cipeo9fBTk67yadAtItFQKwedlio4h6RKQaKm8RLaenL22XF0BUqOlSo647RVfpp/5FTrpb/EmkFfLLN/Qkm1V600tD5fpU09+6AaQ5JSX6/S3Xk56nSkBcZmmp56Mrq1ji/nmFng2sMHjPR21XF0Aog1HQFEXmdl/6YV4mrB0AklzQLQ24wFFXSj2VlOFpQNImgKiAUeA0QcYW1Jo+De9+K7lnfdmgEiNF2D0C8ZaMqmvW0LSBBCJwQIMP2AsJRVv6htVkuqASODo7QjQZ6i2lVri/xaVpCogXONE1Wgb1Bars28GV64k1QCRwOHhoTaLIBp9Tm5M1KwkVQBh3+cwzBZbP2pz9GM2owfrUr/1b41YPmXQOyTmgPQCR7yDVwlxg5fG9QyJOSB//Pl8RV2jtRmv8WwXqttQ4xVh4fpKK1b2/GIKCGcjpqEwOyMNFb2VlVFqh1sm1C2LmQHCClKhkblZqHIojb2cgg/Rh1YtH5U3AaQ2HAFGh8wJQKkdP0fWUweEtSmvbcwO42lIkWr7VbBetT0Ip4f8/b9HFqicPc6QgdixUpKbvBz/auxhl+ZkBeaePzilkaNQtFQdE7EnGjO7o5Bo70fUAOHAwbkjymrhHMbTkCIzIGH5m7GOaYtVSwkWhENGmmOlGMHL8jtjHbNjXs6+A22tWBA6jqOhRWcEb40YMwGkFt0cAw0dZM6Vq5EgNfYj4j0IJ3DRUyt0o+Y8dk4jfo04QEFcG18ESI3qwVrjNCHmW1E0w3PabHQNNUC4gYtkDe4avsPmZNKD+xFWNwGuoXIfhNNaoce6rDVOFl8jqIu0QZwqkmyErCEGhJvZo3qMEM76OqBtEKeKoGtkLVl7EFZmB8scaw1938WMlSyAZPiaVQQGhFs9kPaKvUYlZ8Yy+hZAMjwXEGQNVgWRBC7UXjG+hajvspixtgWQKsJpszh7EaiCcAFByOWuUduZsZ6+BZA44QKCrJE0JAMiClxg/xF7D/3A8zQjtdPgtlloFakCSA2lPQWBVNat71iIEphUIMXrkTaLm0yRKkIHRLAvoAIyipMV4+V+qkI15gaNqczA5EjwctsspIqQABEFLtBeSRQGfOB6aCnZSFqPXgxT0jHLKdGVCiINEEH1gI53Jev04l1LOYjJxnuiobZZEkCoVaQIiKh6JCmIThWvYxmYncxNzazebUnN7lJAKOuUARFmdWo28O5Ua4YoztRoPaz1oMyP6Crdc5Xi8xAQjaAtCZANprEWxfhuxxAr8c2ewsTW0k41ASmtdQiIRi9LbQs01mrpVOu1qXbMcni3J1VfDT2P1jquIApZqKai1kHaav5SltuSS9qft9I1r1szbo66nF1ANFoexLHSXrK1Q03XB9urJEsAQvfIUZzuA6JQPQIQupOORlKz6XoOjfZDRwN8ltp71731NgHRqB7JJAEIHhjrKxAbBiB8ewcgfNu1vZLRXo1w3Fu7guwlou0KotBeRQXR4YrbXnk/7q0NSLLX1pp3gGi1VwGIHBBJe+X9uLcFIFv2DkDkcWw3g6C9CkBwt9AAUWqvooLgDlpfIW2vPB/3tqggyV5rm99XkABEHtkKM2i0V573Ia0AWa/7DhDN/UdUECElCu2V5zarFSDrxBSACOPY6nKN9srzcW+fgCi2V1FB+Ohotlde9yGtAFnvQ95XkACEH9WaVyq2V173IS0BWa59A0R7/xEVhE+MZnvldR/SEpBlBQ9A+HFsciXSXqWk9vvL4zeKIN6e7u0OEIsnPyFnK7d3lKDpcgzQXiVAHh6mH78+P/4o6RKAlCz0/vNcxf+tIAYBGoBgTtm6UXU0w/wdGgAoiySIa0i7omUFSRLm9WdArLJLAEILhjwKstf352/TZfqKXBOA0P0RgNBtVW8kUA2WhyrUTb1VIrQwUOsKkivzXEEsTrCQUyyr9amOS1n4ep0+UsdbjaMG+uyzRUtMDab1dVZ6aMxL1ckqdnJlNgVk2csd9tJv7YKGYZE5tpxgZfCSXEirtJYRudZLm9UVIJZGKzmvVUAeOaCJTMz2CqnUlt1CKQGgn7cGJB+YvFYQgxOspUESJJdpelofRzYJxCQYIRgtk8ZWsHDbqzwXNaC87EOo+ljGUJKhCiDLU5rry/Tz8jB9aNbzE+CwPNnbgqNUZZfX7AUENaBqJES0WmyNp+pjDoiXjKJh9HkOIiBpaLUqAsi0FxAIZNX0EjgtABEYT3Ip0srUSh6ITEftMHWeWnpJ/NQDICmZXixLlMRAJtcCmTqvX2N/9s/nx08UfUu+ogZVAEKx9mu3cSpAqBl2aT7zdgSAVgsQD/sQKuwlmxBR2Bw2Hy5ZLiARTv1aIBCXa1tnWwTaUjUbaR8SgKgTcDwhEojrmayqCBLQ1ERG1dMafKl7AxCpBZHrmdUjL2EWTIBcVECogWWmE+KXg7FUPah24Yh1mhaLmlWPjGhRRRC5Su1Vlh2pShY6cQJx65puAOnZSCrGBrL00XramQoJZGRtZN6efR+AqEQ/YRIlQNRbEkAuBJBkEWplUteJ4A7qkB4ASbJees4iVGPujgOCkLKWpq2oQcw5kqUGF2duip00xlB1QJMHKlsAAlhMK+MibRAnAJD5NaEHTFkcGoAUTSQfgGRp6moqAQVUNmtAOPNTbSUZd1pAUnaTGI56bXpqmPpKHOqcc0ui8OUuBFzq6dVaB2qApap4naaviA0kY6lPcVPl1/DHkT71Wqzr9ER9RY3EAZxrU5BQXp2T5pa2WUj7I3E+NcA49tK4pqQbVf7SPBJZq90HoSorUYZ7bTYwIqOozTJur7IdEBC5tpNed5RsqP7wDwgQEFKDc67PBkYCSlJFarRX2Q7IWhzbaVwj/QKYe0B6d9Kyx0dk5VQRBEINx1OzsEagS+bY2mdRZdew057s5i0WEhASA3OvvTMuUO1YVQSYX8XxwHpcG2pct5VsegBk/j4Iy9FEq3QPyOplFai86AkTUqHQubdcgupDdKv6sF4ryKkBkfa+KUqQNgsJVpXq8RbGCJTqkU+cMAAhGqrWsKOqiQQyVH2BdkcTEOQlFbXsv1xHmqhUbbU2QGqx0t80yrmnEl/Sl9r/IlUEyeQl+eBABuCE5xZc0Psxr/l7sZBsLLAz6dLkjDQw3TUu3s0FAopSRRA7mGVEQCeSQQWDZpu9TB/T2+n3pqEmKTN7vf0EwlxBkF4asQsUGMZvd7SSm1SBgeC0dDhig9ZjewAkVf0AZCcSqA6iJJim7VXrSGeuT7W/VUKp8nZ3rxUk+RSRXWvTb+VsZow2vawrQCh9NMdaSJCpb0w5Aq+uoTrpsIpEe8XyBNX2ZknlzW/xE2xH7gOCey/JRHvF4uP2G4Glq6sAQtpoliTd+Nx7BUkqSQIc0l/heyYMF3V7SesKkte//cqtxUkWFCAdnWIto4bqqM02C6hAZpmwWwSOBaPa3cpudz8DHYBsOwyBfN1mSaqP07hWE7s7QCw26khw9bhJz96mOmtZRSDdo726A4tqc5MKsqj8txYrANlPfkiw3+wY7ZWomnQHiMVGHQmsnisIZ7Me7ZWIj6anWEvf3SrI4Vk+U9eRAKFmtDnRfH/+Rn2jikmLwPRXT5dR7W1hv11AtNuskQBBdEECzcLByPq9jm0GyKo1fldBAhCdo0ck6HpvLRFdNMd2CYh2m4VkXQ+BguhDCZaoHvtWagXIeu/4roIEIOWwRjbfpdkCEIeAaLZZSMb1UEGSO6mZrQSHxakhZU0vY6h2Vk0yG0fzdxVE03EjAoLodBSMqo71EvWAnF0DovXYCRJMXiqIVhUJQHQORDTtuNU+b1YQrTZrVEAQvfbCwFNCABK/2tDqFWTnyYdNQLTaLCSQvAWMZLOumfXUIrKziWoDsufPXUA02qyRAaE6cCvuApAyjdQEpGHLozjdBUSrzaIqqgFk2ex6IxD416t6q5Z6VqPPVDVuDh4s3QVE655IVUXp9lcZyakiGhlPRfjOJ6kZN0drHQKi4cyaitb2OaeKaNi0tp6110PsKq7Gha8lHAKi0WZRs6zXwKEmgBxkYofWjtYG67kBRKPNogKiAWMDX0J31r0mgep2Rb5sJnyXQSnBHVaQZBhx4BKVFa9T3YuvC0LZLr5aS/NSrZghrFMERFxFCEJkq3k7ycpyU6tktFc0PkpZ/dauChMOZR0SIJLsjmRYr4BQdIz2igYH8nsmIpsSEzcJEGkVoZCq0s4RfWAy7MDgIkeaCNvxpMTATRpIKjI1JsmASKoItQWRgtja7amSXF+mnw8P048sC+n3SFoL3tH61MCVxCNSpciASIKX0oJ434d0FGNuRUHiRFKVqRDOhzCINSXUUoWSrIHoEmM7tADQXrH3q8AaMCCSKnKWNqvDsHMjEjWJSvYfyBosQLgZHimf3DXcREIIem8BILOz2ytgjSwg1GJJ9wkIvWwjRPD5swAYuNzYQOJPBAg3wyNtlqSM+ouQk0uMAsJ5vARcQwTIHLyMu5hIm8Vd4+Sh5k99MHA5cYcc664NyGqxRK0WaBD2aYW/UDmlxEjbw4ID/JUwVUC4rRZiFMnJ2SkjzpHScMvN6Fok1YN1irW2PyvDg1WEC6KjWDmfqGAMcKoH2tJvOUHUYuUJOc/EoFUkIBmIIRAOdhfBWEe1xcqTcYKXQzcniwwUVmOowghalt8Z65hVEO6JE9qDctcZI7IG0IIZtHCHwlzHFBBOGeRUkYDEKSjMoOVUD7R9P7Koyh6kdquV1uO0dU5Dy73YnE6BnQiZIO4ZWRUQduAKlGKdorkPOR8KpA7hMk1Pvz4/3r4fQ5WcUzmkR7rmLdbtVKvyeTXLmFRPxTieBQRJj9MdcNv1knLqFSQvyMns3FIsArNkofgcsoCkatz8yHjWSnPfsVTYDBBOFkiCSSFh965QGMTgtQU0wOAc9MxyCKpVyZNmgHD3I1qGzqBcHqYP1+v0sWSI+By3QPJVuoq7z1ivyOk6LOF40w03DHIFe3+gnBVmOV41/orIH2PfWyAnsPRXzuZ7y56p22C93EI5RrZkM60gt56Ss2k3LJ3JIWn6l5d/K0uqNAHDewukN7TMbe/iLS1aUOSVuK24deXI8lUBJLc7rOxdIUsEGG0s0Et3caR9NUACkjZB2OuqXDisjnP37FQVEAkk+aVsv788vu4l4p9bC7A24+CLwrWMUx2QJDjXQLPS0XJp+b76PNyqkQStXTmq70HW3pAYK0CpHtuiBaW+bgXHDKZIc+HFUsMFKEIHGF/OPr5dyNUSjuaASPYkd76N1ss43OnTa4DRS/JrWkGyyVUqSZ7sOj2l/43NPD2gNUaqQbHwYw8+7AIQ1UqyKs/55wi0b3BpBJXnOfLNVtYd8JLiHXUD3QCSbMa+q1oy+Nvn+ag4D893iAOebQNmCNKn+amD/MSB2fNtHcHRxR5k7Rr1Uk2EJw/LD+CBlw013Cz4C1bSeJJb2xFdVZClcqr7Em2rxXyqFtB8gltVsNbHvCVlApKShQb4vLOWam3RbitIFrR1yzVACHarQo8tlTtAssBRTbqNc1iw1jf/EIG7ryCxL0Hc6WBs5y2V2woSoDgI/gMRe96IH1nWVQUJSJxC4qxqLK3sFpDYm/QPi6e9xp413QMSoPQHitd2asuSwwCSlIuTrg5gcdxODQ9IVJOGgAwGRrbkUBVkHR5RUSoAMygYpwAkKooNIGd6gcbQFWSzoqQ/xtsVWeSMtPmmGuBUgLyrKAEKNUbmN4povX+XvGgnA08JyN0Nx4DlLhzPDMVQNwo1E03a1J/5bfDab2vX9E2ruU5fQbYMP3/192X6eAZYAopj9AIQQmrKP50wAjBLIJLq8X38AISAADbE02+NBBCYb9ejo4LI7DdfnVuy282lBr9qlUHIrzmK6qDg2N6/k66jYttZ1vDMB2YbP9azfpPI3ttV8o/apHnitUX2vv0/S/n6t9asaEAAAAAASUVORK5CYII=;" vertex="1" parent="qA_CRGKP_DHO0OBm4st0-23">
          <mxGeometry x="470" y="489" width="50" height="50" as="geometry" />
        </mxCell>
        <mxCell id="qA_CRGKP_DHO0OBm4st0-4" value="" style="strokeColor=#dddddd;shadow=1;strokeWidth=1;rounded=1;absoluteArcSize=1;arcSize=2;" vertex="1" parent="qA_CRGKP_DHO0OBm4st0-23">
          <mxGeometry x="220" y="-60" width="130" height="60" as="geometry" />
        </mxCell>
        <mxCell id="qA_CRGKP_DHO0OBm4st0-5" value="Kubernetes&lt;div&gt;Cluster&lt;/div&gt;" style="sketch=0;dashed=0;connectable=0;html=1;fillColor=#5184F3;strokeColor=none;shape=mxgraph.gcp2.kubernetes_logo;part=1;labelPosition=right;verticalLabelPosition=middle;align=left;verticalAlign=middle;spacingLeft=5;fontColor=#999999;fontSize=12;" vertex="1" parent="qA_CRGKP_DHO0OBm4st0-4">
          <mxGeometry width="45" height="43.65" relative="1" as="geometry">
            <mxPoint x="5" y="7.675000000000001" as="offset" />
          </mxGeometry>
        </mxCell>
      </root>
    </mxGraphModel>
  </diagram>
</mxfile>
